{"asset":{"version":"2.0","generator":"Blockbench 4.12.5 glTF exporter"},"scenes":[{"nodes":[10],"name":"blockbench_export"}],"scene":0,"nodes":[{"name":"head"},{"translation":[0.000891875,-0.59116375,0.03125],"name":"grenade","children":[0]},{"translation":[0,0,0.09375],"name":"chamber","children":[1]},{"translation":[0.011829375,-3.71616375,0.1875],"name":"grenade_reloading"},{"translation":[-0.125,0,0],"name":"L_MALE"},{"name":"L_SLIM"},{"translation":[0,-3,0],"name":"INNER_L","children":[4,5]},{"rotation":[0.7783837846152392,-0.013843514611424995,0.4766342942436512,0.4083464099292618],"translation":[-1.367465625,-2.51199,1.53559625],"name":"LEFT_ARM","children":[6]},{"translation":[0,0,-0.0625],"name":"reloading","children":[3,7]},{"name":"root","children":[2,8]},{"name":"root","mesh":0,"children":[9],"skin":0}],"bufferViews":[{"buffer":0,"byteOffset":0,"byteLength":115236,"target":34962,"byteStride":12},{"buffer":0,"byteOffset":115236,"byteLength":115236,"target":34962,"byteStride":12},{"buffer":0,"byteOffset":230472,"byteLength":76824,"target":34962,"byteStride":8},{"buffer":0,"byteOffset":307296,"byteLength":76824,"target":34962,"byteStride":8},{"buffer":0,"byteOffset":384120,"byteLength":153648,"target":34962,"byteStride":16},{"buffer":0,"byteOffset":537768,"byteLength":19244,"target":34963},{"buffer":0,"byteOffset":557012,"byteLength":144,"target":34963},{"buffer":0,"byteOffset":557156,"byteLength":640}],"buffers":[{"byteLength":557796,"uri":"data:application/octet-stream;base64,"}],"accessors":[{"bufferView":0,"componentType":5126,"count":9603,"max":[0.43480172753334045,0.0989643856883049,1.8616622686386108],"min":[-2.0736021995544434,-3.9171700477600098,-2.5856587886810303],"type":"VEC3"},{"bufferView":1,"componentType":5126,"count":9603,"max":[1,1,1],"min":[-1,-1,-1],"type":"VEC3"},{"bufferView":2,"componentType":5126,"count":9603,"max":[0.84375,1],"min":[0,0],"type":"VEC2"},{"bufferView":3,"componentType":5123,"count":9603,"max":[0,9,0,0],"min":[0,0,0,0],"type":"VEC4"},{"bufferView":4,"componentType":5126,"count":9603,"max":[0,1,0,0],"min":[0,1,0,0],"type":"VEC4"},{"bufferView":5,"componentType":5123,"count":9621,"max":[9554],"min":[0],"type":"SCALAR"},{"bufferView":6,"componentType":5123,"count":72,"max":[9602],"min":[9555],"type":"SCALAR"},{"bufferView":7,"componentType":5126,"count":10,"max":[1,0,0.7307029366493225,0,0.36771267652511597,1,0,0,0.753314733505249,0.6225038766860962,1,0,0.6846045851707458,3.7161636352539062,0.0625,1],"min":[0.5452561974525452,-0.41081494092941284,0,0,0,-0.6661231517791748,-0.6488970518112183,0,0,0,-0.21214592456817627,0,-0.01182937528938055,-3.152078151702881,-0.31830039620399475,1],"type":"MAT4"}],"materials":[{"pbrMetallicRoughness":{"metallicFactor":0,"roughnessFactor":1,"baseColorTexture":{"index":0}},"alphaMode":"MASK","alphaCutoff":0.05,"doubleSided":true},{"pbrMetallicRoughness":{"metallicFactor":0,"roughnessFactor":1},"alphaMode":"MASK","alphaCutoff":0.05,"doubleSided":true}],"textures":[{"sampler":0,"source":0,"name":"m203.png"}],"samplers":[{"magFilter":9728,"minFilter":9728,"wrapS":33071,"wrapT":33071}],"images":[{"mimeType":"image/png","name":"m203.png","uri":"m203.png"}],"meshes":[{"primitives":[{"mode":4,"attributes":{"POSITION":0,"NORMAL":1,"TEXCOORD_0":2,"JOINTS_0":3,"WEIGHTS_0":4},"indices":5,"material":0},{"mode":4,"attributes":{"POSITION":0,"NORMAL":1,"TEXCOORD_0":2,"JOINTS_0":3,"WEIGHTS_0":4},"indices":6,"material":1}]}],"skins":[{"inverseBindMatrices":7,"joints":[9,2,1,0,8,3,7,6,4,5],"skeleton":9}]}