{"asset":{"version":"2.0","generator":"Blockbench 4.12.5 glTF exporter"},"scenes":[{"nodes":[7],"name":"blockbench_export"}],"scene":0,"nodes":[{"name":"main"},{"name":"lower"},{"translation":[-0.125,0,0],"name":"L_MALE"},{"name":"L_SLIM"},{"translation":[0,-3.0000000000000027,0],"name":"INNER_L","children":[2,3]},{"rotation":[0.7544014961530282,-0.04723478019554311,0.5517197270407971,0.35249482398466453],"translation":[-1.5073643749999999,-2.3558924999999995,0.342795625],"name":"LEFT_ARM","children":[4]},{"name":"root","children":[0,1,5]},{"name":"root","mesh":0,"children":[6],"skin":0}],"bufferViews":[{"buffer":0,"byteOffset":0,"byteLength":84480,"target":34962,"byteStride":12},{"buffer":0,"byteOffset":84480,"byteLength":84480,"target":34962,"byteStride":12},{"buffer":0,"byteOffset":168960,"byteLength":56320,"target":34962,"byteStride":8},{"buffer":0,"byteOffset":225280,"byteLength":56320,"target":34962,"byteStride":8},{"buffer":0,"byteOffset":281600,"byteLength":112640,"target":34962,"byteStride":16},{"buffer":0,"byteOffset":394240,"byteLength":14112,"target":34963},{"buffer":0,"byteOffset":408352,"byteLength":448}],"buffers":[{"byteLength":408800,"uri":"data:application/octet-stream;base64,"}],"accessors":[{"bufferView":0,"componentType":5126,"count":7040,"max":[0.3383237421512604,0.3388218879699707,0.00979626178741455],"min":[-0.3383237421512604,-0.3388218879699707,-1.8729950189590454],"type":"VEC3"},{"bufferView":1,"componentType":5126,"count":7040,"max":[1,1,1],"min":[-1,-1,-1],"type":"VEC3"},{"bufferView":2,"componentType":5126,"count":7040,"max":[0.9262090921401978,0.9634106159210205],"min":[0,0],"type":"VEC2"},{"bufferView":3,"componentType":5123,"count":7040,"max":[0,2,0,0],"min":[0,1,0,0],"type":"VEC4"},{"bufferView":4,"componentType":5126,"count":7040,"max":[0,1,0,0],"min":[0,1,0,0],"type":"VEC4"},{"bufferView":5,"componentType":5123,"count":7056,"max":[7039],"min":[0],"type":"SCALAR"},{"bufferView":6,"componentType":5126,"count":7,"max":[1,0,0.7991363406181335,0,0.3176887333393097,1,0,0,0.8657364249229431,0.4797245264053345,1,0,1.1596406698226929,0.38189786672592163,0,1],"min":[0.38674843311309814,-0.4602246880531311,0,0,0,-0.7470325231552124,-0.5839659571647644,0,0,0,-0.14270548522472382,0,0,-2.6181020736694336,-0.12225256860256195,1],"type":"MAT4"}],"materials":[{"pbrMetallicRoughness":{"metallicFactor":0,"roughnessFactor":1,"baseColorTexture":{"index":0}},"alphaMode":"MASK","alphaCutoff":0.05,"doubleSided":true}],"textures":[{"sampler":0,"source":0,"name":"m4a1_handguard.png"}],"samplers":[{"magFilter":9728,"minFilter":9728,"wrapS":33071,"wrapT":33071}],"images":[{"mimeType":"image/png","name":"m4a1_handguard.png","uri":"m4a1_handguard.png"}],"meshes":[{"primitives":[{"mode":4,"attributes":{"POSITION":0,"NORMAL":1,"TEXCOORD_0":2,"JOINTS_0":3,"WEIGHTS_0":4},"indices":5,"material":0}]}],"skins":[{"inverseBindMatrices":6,"joints":[6,0,1,5,4,2,3],"skeleton":6}]}