{"asset":{"version":"2.0","generator":"Blockbench 5.0.7 glTF exporter"},"scenes":[{"nodes":[11],"name":"blockbench_export"}],"scene":0,"nodes":[{"name":"main"},{"name":"lower"},{"translation":[0,-0.310425,0.057546875],"name":"RAIL_LOWER"},{"translation":[0,0.310425,0.057546875],"name":"RAIL_UPPER"},{"rotation":[0,0,0.7071067811865475,0.7071067811865476],"translation":[-0.310425,0,0.057546875],"name":"RAIL_LEFT"},{"rotation":[0,0,-0.7071067811865475,0.7071067811865476],"translation":[0.310425,0,0.057546875],"name":"RAIL_RIGHT"},{"translation":[-0.125,0,0],"name":"L_MALE"},{"name":"L_SLIM"},{"translation":[0,-3.0000000000000004,0],"name":"INNER_L","children":[6,7]},{"rotation":[0.7568016134517344,-0.04877238023028338,0.5484227577229274,0.35228546892414336],"translation":[-1.476114375,-2.3246425,1.280295625],"name":"LEFT_ARM","children":[8]},{"name":"root","children":[0,1,2,3,4,5,9]},{"name":"root","mesh":0,"children":[10],"skin":0}],"bufferViews":[{"buffer":0,"byteOffset":0,"byteLength":97512,"target":34962,"byteStride":12},{"buffer":0,"byteOffset":97512,"byteLength":97512,"target":34962,"byteStride":12},{"buffer":0,"byteOffset":195024,"byteLength":65008,"target":34962,"byteStride":8},{"buffer":0,"byteOffset":260032,"byteLength":65008,"target":34962,"byteStride":8},{"buffer":0,"byteOffset":325040,"byteLength":130016,"target":34962,"byteStride":16},{"buffer":0,"byteOffset":455056,"byteLength":16296,"target":34963},{"buffer":0,"byteOffset":471352,"byteLength":704}],"buffers":[{"byteLength":472056,"uri":"data:application/octet-stream;base64,"}],"accessors":[{"bufferView":0,"componentType":5126,"count":8126,"max":[0.3104231357574463,0.3104231357574463,1.0722962617874146],"min":[-0.31042376160621643,-0.31042376160621643,-0.8104950189590454],"type":"VEC3"},{"bufferView":1,"componentType":5126,"count":8126,"max":[1,1,1],"min":[-1,-1,-1],"type":"VEC3"},{"bufferView":2,"componentType":5126,"count":8126,"max":[0.780468761920929,0.78125],"min":[0,0],"type":"VEC2"},{"bufferView":3,"componentType":5123,"count":8126,"max":[0,2,0,0],"min":[0,1,0,0],"type":"VEC4"},{"bufferView":4,"componentType":5126,"count":8126,"max":[0,1,0,0],"min":[0,1,0,0],"type":"VEC4"},{"bufferView":5,"componentType":5123,"count":8148,"max":[8125],"min":[0],"type":"SCALAR"},{"bufferView":6,"componentType":5126,"count":11,"max":[1,1,0.7957308292388916,0,1,1,0,0,0.8644580841064453,0.479724645614624,1,0,0.3260337710380554,0.3104250133037567,0.0030549964867532253,1],"min":[2.220446049250313e-16,-1,0,0,-1,-0.7470324039459229,-0.5867161750793457,0,0,0,-0.15025486052036285,0,-6.892819943788025e-17,-3.0301170349121094,-0.05754687637090683,1],"type":"MAT4"}],"materials":[{"pbrMetallicRoughness":{"metallicFactor":0,"roughnessFactor":1,"baseColorTexture":{"index":0}},"alphaMode":"MASK","alphaCutoff":0.05,"doubleSided":true}],"textures":[{"sampler":0,"source":0,"name":"kac_ras.png"}],"samplers":[{"magFilter":9728,"minFilter":9728,"wrapS":33071,"wrapT":33071}],"images":[{"mimeType":"image/png","name":"kac_ras.png","uri":"kac_ras.png"}],"meshes":[{"primitives":[{"mode":4,"attributes":{"POSITION":0,"NORMAL":1,"TEXCOORD_0":2,"JOINTS_0":3,"WEIGHTS_0":4},"indices":5,"material":0}]}],"skins":[{"inverseBindMatrices":6,"joints":[10,0,1,2,3,4,5,9,8,6,7],"skeleton":10}]}