{"asset":{"version":"2.0","generator":"Blockbench 5.1.4 glTF exporter"},"scenes":[{"nodes":[12],"name":"blockbench_export"}],"scene":0,"nodes":[{"translation":[-0.125,0,0],"name":"L_MALE"},{"name":"L_SLIM"},{"translation":[0,-3,0],"name":"INNER_L","children":[0,1]},{"rotation":[0.7573751907854879,-0.03886196680516546,0.5468803817177141,0.35467508512858265],"translation":[-1.444864375,-2.2996425,1.280295625],"name":"LEFT_ARM","children":[2]},{"name":"main"},{"name":"lower"},{"rotation":[0,0,-0.7071067811865475,0.7071067811865476],"translation":[-0.310425,0,-0.523609375],"name":"RAIL_LEFT"},{"rotation":[0,0,0.7071067811865475,0.7071067811865476],"translation":[0.310425,0,-0.523609375],"name":"RAIL_RIGHT"},{"translation":[0,-0.2755125,0.057546875],"name":"RAIL_LOWER"},{"translation":[0,0.310425,0.168625],"name":"RAIL_UPPER"},{"translation":[0,0.310425,-1.731821875],"name":"RAIL_UPPER_FRONT"},{"name":"root","children":[3,4,5,6,7,8,9,10]},{"name":"root","mesh":0,"children":[11],"skin":0}],"bufferViews":[{"buffer":0,"byteOffset":0,"byteLength":295344,"target":34962,"byteStride":12},{"buffer":0,"byteOffset":295344,"byteLength":295344,"target":34962,"byteStride":12},{"buffer":0,"byteOffset":590688,"byteLength":196896,"target":34962,"byteStride":8},{"buffer":0,"byteOffset":787584,"byteLength":196896,"target":34962,"byteStride":8},{"buffer":0,"byteOffset":984480,"byteLength":393792,"target":34962,"byteStride":16},{"buffer":0,"byteOffset":1378272,"byteLength":49224,"target":34963},{"buffer":0,"byteOffset":1427496,"byteLength":768}],"buffers":[{"byteLength":1428264,"uri":"data:application/octet-stream;base64,"}],"accessors":[{"bufferView":0,"componentType":5126,"count":24612,"max":[0.3104231357574463,0.3104231357574463,1.1277618408203125],"min":[-0.3104231357574463,-0.27551186084747314,-2.1408438682556152],"type":"VEC3"},{"bufferView":1,"componentType":5126,"count":24612,"max":[1,1,1],"min":[-1,-1,-1],"type":"VEC3"},{"bufferView":2,"componentType":5126,"count":24612,"max":[0.7030783295631409,0.7030316591262817],"min":[0,0],"type":"VEC2"},{"bufferView":3,"componentType":5123,"count":24612,"max":[0,6,0,0],"min":[0,5,0,0],"type":"VEC4"},{"bufferView":4,"componentType":5126,"count":24612,"max":[0,1,0,0],"min":[0,1,0,0],"type":"VEC4"},{"bufferView":5,"componentType":5123,"count":24612,"max":[24611],"min":[0],"type":"SCALAR"},{"bufferView":6,"componentType":5126,"count":12,"max":[1,1,0.800820529460907,0,1,1,0,0,0.8559539914131165,0.49473851919174194,1,0,0.36209967732429504,0.3104250133037567,1.731821894645691,1],"min":[2.220446049250313e-16,-1,0,0,-1,-0.7453906536102295,-0.5797499418258667,0,0,0,-0.15025486052036285,0,-6.892819943788025e-17,-2.99310302734375,-0.16862499713897705,1],"type":"MAT4"}],"materials":[{"pbrMetallicRoughness":{"metallicFactor":0,"roughnessFactor":1,"baseColorTexture":{"index":0}},"alphaMode":"MASK","alphaCutoff":0.05,"doubleSided":true}],"textures":[{"sampler":0,"source":0,"name":"daniel_defense_ris_ii.png"}],"samplers":[{"magFilter":9728,"minFilter":9728,"wrapS":33071,"wrapT":33071}],"images":[{"mimeType":"image/png","name":"daniel_defense_ris_ii.png","uri":"daniel_defense_ris_ii.png"}],"meshes":[{"primitives":[{"mode":4,"attributes":{"POSITION":0,"NORMAL":1,"TEXCOORD_0":2,"JOINTS_0":3,"WEIGHTS_0":4},"indices":5,"material":0}]}],"skins":[{"inverseBindMatrices":6,"joints":[11,3,2,0,1,4,5,6,7,8,9,10],"skeleton":11}]}