{"asset":{"version":"2.0","generator":"Blockbench 5.0.7 glTF exporter"},"scenes":[{"nodes":[6],"name":"blockbench_export"}],"scene":0,"nodes":[{"translation":[0,0.9375,0],"name":"ammo1"},{"translation":[0.075,0.8875,0],"name":"ammo2"},{"translation":[0,0.8375,0],"name":"ammo3"},{"translation":[0.075,0.7875,0],"name":"ammo4"},{"translation":[0,0.8375,0],"name":"holder"},{"name":"root","children":[0,1,2,3,4]},{"name":"root","mesh":0,"children":[5],"skin":0}],"bufferViews":[{"buffer":0,"byteOffset":0,"byteLength":60696,"target":34962,"byteStride":12},{"buffer":0,"byteOffset":60696,"byteLength":60696,"target":34962,"byteStride":12},{"buffer":0,"byteOffset":121392,"byteLength":40464,"target":34962,"byteStride":8},{"buffer":0,"byteOffset":161856,"byteLength":40464,"target":34962,"byteStride":8},{"buffer":0,"byteOffset":202320,"byteLength":80928,"target":34962,"byteStride":16},{"buffer":0,"byteOffset":283248,"byteLength":10116,"target":34963},{"buffer":0,"byteOffset":293364,"byteLength":384}],"buffers":[{"byteLength":293748,"uri":"data:application/octet-stream;base64,"}],"accessors":[{"bufferView":0,"componentType":5126,"count":5058,"max":[0.1165037527680397,0.8713987469673157,0.38535812497138977],"min":[-0.13236688077449799,-1.1480469703674316,-0.5024162530899048],"type":"VEC3"},{"bufferView":1,"componentType":5126,"count":5058,"max":[1,1,1],"min":[-1,-1,-1],"type":"VEC3"},{"bufferView":2,"componentType":5126,"count":5058,"max":[0.7900453209877014,0.959765613079071],"min":[0,0],"type":"VEC2"},{"bufferView":3,"componentType":5123,"count":5058,"max":[0,5,0,0],"min":[0,0,0,0],"type":"VEC4"},{"bufferView":4,"componentType":5126,"count":5058,"max":[0,1,0,0],"min":[0,1,0,0],"type":"VEC4"},{"bufferView":5,"componentType":5123,"count":5058,"max":[5057],"min":[0],"type":"SCALAR"},{"bufferView":6,"componentType":5126,"count":6,"max":[1,0,0,0,0,1,0,0,0,0,1,0,0,0,0,1],"min":[1,0,0,0,0,1,0,0,0,0,1,0,-0.07500000298023224,-0.9375,0,1],"type":"MAT4"}],"materials":[{"pbrMetallicRoughness":{"metallicFactor":0,"roughnessFactor":1,"baseColorTexture":{"index":0}},"alphaMode":"MASK","alphaCutoff":0.05,"doubleSided":true}],"textures":[{"sampler":0,"source":0,"name":"ar_mag_30r.png"}],"samplers":[{"magFilter":9728,"minFilter":9728,"wrapS":33071,"wrapT":33071}],"images":[{"mimeType":"image/png","name":"ar_mag_30r.png","uri":"ar_mag_30r.png"}],"meshes":[{"primitives":[{"mode":4,"attributes":{"POSITION":0,"NORMAL":1,"TEXCOORD_0":2,"JOINTS_0":3,"WEIGHTS_0":4},"indices":5,"material":0}]}],"skins":[{"inverseBindMatrices":6,"joints":[5,0,1,2,3,4],"skeleton":5}]}