{"asset":{"version":"2.0","generator":"Blockbench 5.1.4 glTF exporter"},"scenes":[{"nodes":[4],"name":"blockbench_export"}],"scene":0,"nodes":[{"translation":[0,-0.0796875,0],"name":"M_LOK"},{"translation":[0.159375,0.178125,-0.45625],"name":"LASER"},{"name":"main","children":[0,1]},{"name":"root","children":[2]},{"name":"root","mesh":0,"children":[3],"skin":0}],"bufferViews":[{"buffer":0,"byteOffset":0,"byteLength":111852,"target":34962,"byteStride":12},{"buffer":0,"byteOffset":111852,"byteLength":111852,"target":34962,"byteStride":12},{"buffer":0,"byteOffset":223704,"byteLength":74568,"target":34962,"byteStride":8},{"buffer":0,"byteOffset":298272,"byteLength":74568,"target":34962,"byteStride":8},{"buffer":0,"byteOffset":372840,"byteLength":149136,"target":34962,"byteStride":16},{"buffer":0,"byteOffset":521976,"byteLength":18800,"target":34963},{"buffer":0,"byteOffset":540776,"byteLength":256}],"buffers":[{"byteLength":541032,"uri":"data:application/octet-stream;base64,"}],"accessors":[{"bufferView":0,"componentType":5126,"count":9321,"max":[0.35959187150001526,0.3203187584877014,0.5525218844413757],"min":[-0.3499881327152252,-0.13414999842643738,-0.5907631516456604],"type":"VEC3"},{"bufferView":1,"componentType":5126,"count":9321,"max":[1,1,1],"min":[-1,-1,-1],"type":"VEC3"},{"bufferView":2,"componentType":5126,"count":9321,"max":[0.9843390583992004,0.875],"min":[0,0],"type":"VEC2"},{"bufferView":3,"componentType":5123,"count":9321,"max":[0,2,0,0],"min":[0,1,0,0],"type":"VEC4"},{"bufferView":4,"componentType":5126,"count":9321,"max":[0,1,0,0],"min":[0,1,0,0],"type":"VEC4"},{"bufferView":5,"componentType":5123,"count":9399,"max":[9320],"min":[0],"type":"SCALAR"},{"bufferView":6,"componentType":5126,"count":4,"max":[1,0,0,0,0,1,0,0,0,0,1,0,0,0.07968749850988388,0.45625001192092896,1],"min":[1,0,0,0,0,1,0,0,0,0,1,0,-0.15937499701976776,-0.17812499403953552,0,1],"type":"MAT4"}],"materials":[{"pbrMetallicRoughness":{"metallicFactor":0,"roughnessFactor":1,"baseColorTexture":{"index":0}},"alphaMode":"MASK","alphaCutoff":0.05,"doubleSided":true}],"textures":[{"sampler":0,"source":0,"name":"peq_15.png"}],"samplers":[{"magFilter":9728,"minFilter":9728,"wrapS":33071,"wrapT":33071}],"images":[{"mimeType":"image/png","name":"peq_15.png","uri":"peq_15.png"}],"meshes":[{"primitives":[{"mode":4,"attributes":{"POSITION":0,"NORMAL":1,"TEXCOORD_0":2,"JOINTS_0":3,"WEIGHTS_0":4},"indices":5,"material":0}]}],"skins":[{"inverseBindMatrices":6,"joints":[3,2,0,1],"skeleton":3}]}