{"asset":{"version":"2.0","generator":"Blockbench 5.1.1 glTF exporter"},"scenes":[{"nodes":[9],"name":"blockbench_export"}],"scene":0,"nodes":[{"name":"L_MALE"},{"name":"L_SLIM"},{"translation":[0,-3,0],"name":"INNER_L","children":[0,1]},{"name":"LEFT_ARM","children":[2]},{"name":"R_MALE"},{"name":"R_SLIM"},{"translation":[0,-3,0],"name":"INNER_R","children":[4,5]},{"name":"RIGHT_ARM","children":[6]},{"name":"root","children":[3,7]},{"name":"root","mesh":0,"children":[8],"skin":0}],"bufferViews":[{"buffer":0,"byteOffset":0,"byteLength":2304,"target":34962,"byteStride":12},{"buffer":0,"byteOffset":2304,"byteLength":2304,"target":34962,"byteStride":12},{"buffer":0,"byteOffset":4608,"byteLength":1536,"target":34962,"byteStride":8},{"buffer":0,"byteOffset":6144,"byteLength":1536,"target":34962,"byteStride":8},{"buffer":0,"byteOffset":7680,"byteLength":3072,"target":34962,"byteStride":16},{"buffer":0,"byteOffset":10752,"byteLength":144,"target":34963},{"buffer":0,"byteOffset":10896,"byteLength":144,"target":34963},{"buffer":0,"byteOffset":11040,"byteLength":144,"target":34963},{"buffer":0,"byteOffset":11184,"byteLength":144,"target":34963},{"buffer":0,"byteOffset":11328,"byteLength":576}],"buffers":[{"byteLength":11904,"uri":"data:application/octet-stream;base64,"}],"accessors":[{"bufferView":0,"componentType":5126,"count":192,"max":[0.7312499284744263,0,0.6125000715255737],"min":[-0.71875,-3,-0.59375],"type":"VEC3"},{"bufferView":1,"componentType":5126,"count":192,"max":[1,1,1],"min":[-1,-1,-1],"type":"VEC3"},{"bufferView":2,"componentType":5126,"count":192,"max":[1,1],"min":[0.5,0.25],"type":"VEC2"},{"bufferView":3,"componentType":5123,"count":192,"max":[0,8,0,0],"min":[0,3,0,0],"type":"VEC4"},{"bufferView":4,"componentType":5126,"count":192,"max":[0,1,0,0],"min":[0,1,0,0],"type":"VEC4"},{"bufferView":5,"componentType":5123,"count":72,"max":[47],"min":[0],"type":"SCALAR"},{"bufferView":6,"componentType":5123,"count":72,"max":[95],"min":[48],"type":"SCALAR"},{"bufferView":7,"componentType":5123,"count":72,"max":[143],"min":[96],"type":"SCALAR"},{"bufferView":8,"componentType":5123,"count":72,"max":[191],"min":[144],"type":"SCALAR"},{"bufferView":9,"componentType":5126,"count":9,"max":[1,0,0,0,0,1,0,0,0,0,1,0,0,3,0,1],"min":[1,0,0,0,0,1,0,0,0,0,1,0,0,0,0,1],"type":"MAT4"}],"materials":[{"pbrMetallicRoughness":{"metallicFactor":0,"roughnessFactor":1,"baseColorTexture":{"index":0}},"alphaMode":"MASK","alphaCutoff":0.05,"doubleSided":true},{"pbrMetallicRoughness":{"metallicFactor":0,"roughnessFactor":1,"baseColorTexture":{"index":1}},"alphaMode":"MASK","alphaCutoff":0.05,"doubleSided":true}],"textures":[{"sampler":0,"source":0,"name":"steve.png"},{"sampler":1,"source":1,"name":"alex.png"}],"samplers":[{"magFilter":9728,"minFilter":9728,"wrapS":33071,"wrapT":33071},{"magFilter":9728,"minFilter":9728,"wrapS":33071,"wrapT":33071}],"images":[{"mimeType":"image/png","name":"steve.png","uri":"steve.png"},{"mimeType":"image/png","name":"alex.png","uri":"alex.png"}],"meshes":[{"primitives":[{"mode":4,"attributes":{"POSITION":0,"NORMAL":1,"TEXCOORD_0":2,"JOINTS_0":3,"WEIGHTS_0":4},"indices":5,"material":0},{"mode":4,"attributes":{"POSITION":0,"NORMAL":1,"TEXCOORD_0":2,"JOINTS_0":3,"WEIGHTS_0":4},"indices":6,"material":1},{"mode":4,"attributes":{"POSITION":0,"NORMAL":1,"TEXCOORD_0":2,"JOINTS_0":3,"WEIGHTS_0":4},"indices":7,"material":0},{"mode":4,"attributes":{"POSITION":0,"NORMAL":1,"TEXCOORD_0":2,"JOINTS_0":3,"WEIGHTS_0":4},"indices":8,"material":1}]}],"skins":[{"inverseBindMatrices":9,"joints":[8,3,2,0,1,7,6,4,5],"skeleton":8}]}