{"asset":{"version":"2.0","generator":"Blockbench 5.1.4 glTF exporter"},"scenes":[{"nodes":[6],"name":"blockbench_export"}],"scene":0,"nodes":[{"translation":[0,0.3953125,1.4375],"name":"SIGHT_POSE"},{"translation":[0,0.3953125,-25],"name":"CROSS_HAIR"},{"translation":[0,0.3953125,1.1],"name":"REAR_LENS"},{"translation":[0,0,0.21875],"name":"body"},{"translation":[0,0.3953125,-0.0625],"name":"CROSS_HAIR_Z"},{"name":"root","children":[0,1,2,3,4]},{"name":"root","mesh":0,"children":[5],"skin":0}],"bufferViews":[{"buffer":0,"byteOffset":0,"byteLength":89352,"target":34962,"byteStride":12},{"buffer":0,"byteOffset":89352,"byteLength":89352,"target":34962,"byteStride":12},{"buffer":0,"byteOffset":178704,"byteLength":59568,"target":34962,"byteStride":8},{"buffer":0,"byteOffset":238272,"byteLength":59568,"target":34962,"byteStride":8},{"buffer":0,"byteOffset":297840,"byteLength":119136,"target":34962,"byteStride":16},{"buffer":0,"byteOffset":416976,"byteLength":15108,"target":34963},{"buffer":0,"byteOffset":432084,"byteLength":384}],"buffers":[{"byteLength":432468,"uri":"data:application/octet-stream;base64,"}],"accessors":[{"bufferView":0,"componentType":5126,"count":7446,"max":[0.28636839985847473,0.7532526254653931,1.1410231590270996],"min":[-0.3299415409564972,-0.10014589875936508,-0.3865886926651001],"type":"VEC3"},{"bufferView":1,"componentType":5126,"count":7446,"max":[1,1,1],"min":[-1,-1,-1],"type":"VEC3"},{"bufferView":2,"componentType":5126,"count":7446,"max":[0.9609375,0.7326571941375732],"min":[0,0],"type":"VEC2"},{"bufferView":3,"componentType":5123,"count":7446,"max":[0,4,0,0],"min":[0,3,0,0],"type":"VEC4"},{"bufferView":4,"componentType":5126,"count":7446,"max":[0,1,0,0],"min":[0,1,0,0],"type":"VEC4"},{"bufferView":5,"componentType":5123,"count":7554,"max":[7445],"min":[0],"type":"SCALAR"},{"bufferView":6,"componentType":5126,"count":6,"max":[1,0,0,0,0,1,0,0,0,0,1,0,0,0,25,1],"min":[1,0,0,0,0,1,0,0,0,0,1,0,0,-0.39531248807907104,-1.4375,1],"type":"MAT4"}],"materials":[{"pbrMetallicRoughness":{"metallicFactor":0,"roughnessFactor":1,"baseColorTexture":{"index":0}},"alphaMode":"MASK","alphaCutoff":0.05,"doubleSided":true}],"textures":[{"sampler":0,"source":0,"name":"acog.png"}],"samplers":[{"magFilter":9728,"minFilter":9728,"wrapS":33071,"wrapT":33071}],"images":[{"mimeType":"image/png","name":"acog.png","uri":"acog.png"}],"meshes":[{"primitives":[{"mode":4,"attributes":{"POSITION":0,"NORMAL":1,"TEXCOORD_0":2,"JOINTS_0":3,"WEIGHTS_0":4},"indices":5,"material":0}]}],"skins":[{"inverseBindMatrices":6,"joints":[5,0,1,2,3,4],"skeleton":5}]}