{"asset":{"version":"2.0","generator":"Blockbench 5.1.4 glTF exporter"},"scenes":[{"nodes":[6],"name":"blockbench_export"}],"scene":0,"nodes":[{"name":"ammo1"},{"name":"ammo2"},{"name":"ammo3"},{"name":"ammo4"},{"translation":[0,0.8375,0],"name":"holder"},{"name":"root","children":[0,1,2,3,4]},{"name":"root","mesh":0,"children":[5],"skin":0}],"bufferViews":[{"buffer":0,"byteOffset":0,"byteLength":56232,"target":34962,"byteStride":12},{"buffer":0,"byteOffset":56232,"byteLength":56232,"target":34962,"byteStride":12},{"buffer":0,"byteOffset":112464,"byteLength":37488,"target":34962,"byteStride":8},{"buffer":0,"byteOffset":149952,"byteLength":37488,"target":34962,"byteStride":8},{"buffer":0,"byteOffset":187440,"byteLength":74976,"target":34962,"byteStride":16},{"buffer":0,"byteOffset":262416,"byteLength":9372,"target":34963},{"buffer":0,"byteOffset":271788,"byteLength":384}],"buffers":[{"byteLength":272172,"uri":"data:application/octet-stream;base64,"}],"accessors":[{"bufferView":0,"componentType":5126,"count":4686,"max":[0.11650287359952927,0.8713988661766052,0.38535913825035095],"min":[-0.1323671191930771,-0.5379630923271179,-0.268967866897583],"type":"VEC3"},{"bufferView":1,"componentType":5126,"count":4686,"max":[1,1,1],"min":[-1,-1,-1],"type":"VEC3"},{"bufferView":2,"componentType":5126,"count":4686,"max":[0.7809374928474426,0.8752227425575256],"min":[0,0],"type":"VEC2"},{"bufferView":3,"componentType":5123,"count":4686,"max":[0,5,0,0],"min":[0,0,0,0],"type":"VEC4"},{"bufferView":4,"componentType":5126,"count":4686,"max":[0,1,0,0],"min":[0,1,0,0],"type":"VEC4"},{"bufferView":5,"componentType":5123,"count":4686,"max":[4685],"min":[0],"type":"SCALAR"},{"bufferView":6,"componentType":5126,"count":6,"max":[1,0,0,0,0,1,0,0,0,0,1,0,0,0,0,1],"min":[1,0,0,0,0,1,0,0,0,0,1,0,0,-0.8374999761581421,0,1],"type":"MAT4"}],"materials":[{"pbrMetallicRoughness":{"metallicFactor":0,"roughnessFactor":1,"baseColorTexture":{"index":0}},"alphaMode":"MASK","alphaCutoff":0.05,"doubleSided":true}],"textures":[{"sampler":0,"source":0,"name":"texture"}],"samplers":[{"magFilter":9728,"minFilter":9728,"wrapS":33071,"wrapT":33071}],"images":[{"mimeType":"image/png","name":"usgi_20.png","uri":"usgi_20.png"}],"meshes":[{"primitives":[{"mode":4,"attributes":{"POSITION":0,"NORMAL":1,"TEXCOORD_0":2,"JOINTS_0":3,"WEIGHTS_0":4},"indices":5,"material":0}]}],"skins":[{"inverseBindMatrices":6,"joints":[5,0,1,2,3,4],"skeleton":5}]}