{"asset":{"version":"2.0","generator":"Blockbench 5.1.4 glTF exporter"},"scenes":[{"nodes":[12],"name":"blockbench_export"}],"scene":0,"nodes":[{"name":"raw"},{"name":"shell"},{"translation":[0.000891875,-0.59116375,0.03125],"name":"grenade","children":[0,1]},{"translation":[0,-0.5941062500000001,-2.687499999999999],"name":"MUZZLE_FLASH"},{"translation":[0,0,-0.71875],"name":"chamber","children":[2,3]},{"translation":[0.011829375,-3.71616375,0.1875],"name":"grenade_reloading"},{"translation":[-0.125,0,0],"name":"L_MALE"},{"name":"L_SLIM"},{"translation":[0,-3,0],"name":"INNER_L","children":[6,7]},{"rotation":[0.7783837846152392,-0.013843514611424995,0.4766342942436512,0.4083464099292618],"translation":[-1.367465625,-2.51199,1.53559625],"name":"LEFT_ARM","children":[8]},{"translation":[0,0,-0.875],"name":"reloading","children":[5,9]},{"name":"root","children":[4,10]},{"name":"root","mesh":0,"children":[11],"skin":0}],"bufferViews":[{"buffer":0,"byteOffset":0,"byteLength":126180,"target":34962,"byteStride":12},{"buffer":0,"byteOffset":126180,"byteLength":126180,"target":34962,"byteStride":12},{"buffer":0,"byteOffset":252360,"byteLength":84120,"target":34962,"byteStride":8},{"buffer":0,"byteOffset":336480,"byteLength":84120,"target":34962,"byteStride":8},{"buffer":0,"byteOffset":420600,"byteLength":168240,"target":34962,"byteStride":16},{"buffer":0,"byteOffset":588840,"byteLength":21164,"target":34963},{"buffer":0,"byteOffset":610004,"byteLength":768}],"buffers":[{"byteLength":610772,"uri":"data:application/octet-stream;base64,"}],"accessors":[{"bufferView":0,"componentType":5126,"count":10515,"max":[0.26784875988960266,0.0989643856883049,0.40306374430656433],"min":[-0.2678475081920624,-3.9171700477600098,-3.3981587886810303],"type":"VEC3"},{"bufferView":1,"componentType":5126,"count":10515,"max":[1,1,1],"min":[-1,-1,-1],"type":"VEC3"},{"bufferView":2,"componentType":5126,"count":10515,"max":[0.9591134786605835,0.9765625],"min":[0,0],"type":"VEC2"},{"bufferView":3,"componentType":5123,"count":10515,"max":[0,7,0,0],"min":[0,0,0,0],"type":"VEC4"},{"bufferView":4,"componentType":5126,"count":10515,"max":[0,1,0,0],"min":[0,1,0,0],"type":"VEC4"},{"bufferView":5,"componentType":5123,"count":10581,"max":[10514],"min":[0],"type":"SCALAR"},{"bufferView":6,"componentType":5126,"count":12,"max":[1,0,0.7307029366493225,0,0.36771267652511597,1,0,0,0.753314733505249,0.6225038766860962,1,0,1.2966728210449219,3.7161636352539062,3.40625,1],"min":[0.5452561974525452,-0.41081494092941284,0,0,0,-0.6661231517791748,-0.6488970518112183,0,0,0,-0.21214592456817627,0,-0.01182937528938055,-2.6462936401367188,-0.4906689524650574,1],"type":"MAT4"}],"materials":[{"pbrMetallicRoughness":{"metallicFactor":0,"roughnessFactor":1,"baseColorTexture":{"index":0}},"alphaMode":"MASK","alphaCutoff":0.05,"doubleSided":true}],"textures":[{"sampler":0,"source":0,"name":"m203.png"}],"samplers":[{"magFilter":9728,"minFilter":9728,"wrapS":33071,"wrapT":33071}],"images":[{"mimeType":"image/png","name":"m203.png","uri":"m203.png"}],"meshes":[{"primitives":[{"mode":4,"attributes":{"POSITION":0,"NORMAL":1,"TEXCOORD_0":2,"JOINTS_0":3,"WEIGHTS_0":4},"indices":5,"material":0}]}],"skins":[{"inverseBindMatrices":6,"joints":[11,4,2,0,1,3,10,5,9,8,6,7],"skeleton":11}]}