{"asset":{"version":"2.0","generator":"Blockbench 4.12.6 glTF exporter"},"scenes":[{"nodes":[10],"name":"blockbench_export"}],"scene":0,"nodes":[{"translation":[0,-0.222,-0.392315625],"name":"RAIL_GRIP"},{"translation":[0,-0.222,-0.805328125],"name":"RAIL_LOWER"},{"translation":[0,0.31319375,-0.68414375],"name":"RAIL_UPPER"},{"rotation":[0,0,-0.7071067811865475,0.7071067811865476],"translation":[-0.2,-0.006265625,-0.805325],"name":"RAIL_LEFT"},{"rotation":[0,0,0.7071067811865475,0.7071067811865476],"translation":[0.2,-0.006265625,-0.805325],"name":"RAIL_RIGHT"},{"translation":[-0.125,0,0],"name":"L_MALE"},{"name":"L_SLIM"},{"translation":[0,-3,0],"name":"INNER_L","children":[5,6]},{"rotation":[0.7507305049711,-0.03057140502524741,0.563953971783221,0.3426733368830284],"translation":[-1.301114375,-2.4058925,0.9052956249999999],"name":"LEFT_ARM","children":[7]},{"name":"root","children":[0,1,2,3,4,8]},{"name":"root","mesh":0,"children":[9],"skin":0}],"bufferViews":[{"buffer":0,"byteOffset":0,"byteLength":121284,"target":34962,"byteStride":12},{"buffer":0,"byteOffset":121284,"byteLength":121284,"target":34962,"byteStride":12},{"buffer":0,"byteOffset":242568,"byteLength":80856,"target":34962,"byteStride":8},{"buffer":0,"byteOffset":323424,"byteLength":80856,"target":34962,"byteStride":8},{"buffer":0,"byteOffset":404280,"byteLength":161712,"target":34962,"byteStride":16},{"buffer":0,"byteOffset":565992,"byteLength":20216,"target":34963},{"buffer":0,"byteOffset":586208,"byteLength":640}],"buffers":[{"byteLength":586848,"uri":"data:application/octet-stream;base64,"}],"accessors":[{"bufferView":0,"componentType":5126,"count":10107,"max":[0.21970687806606293,0.31319186091423035,1.1750361919403076],"min":[-0.2156662493944168,-0.3214137554168701,-2.46311616897583],"type":"VEC3"},{"bufferView":1,"componentType":5126,"count":10107,"max":[1,1,1],"min":[-1,-1,-1],"type":"VEC3"},{"bufferView":2,"componentType":5126,"count":10107,"max":[0.8981539011001587,0.7745078206062317],"min":[0,0],"type":"VEC2"},{"bufferView":3,"componentType":5123,"count":10107,"max":[0,0,0,0],"min":[0,0,0,0],"type":"VEC4"},{"bufferView":4,"componentType":5126,"count":10107,"max":[0,1,0,0],"min":[0,1,0,0],"type":"VEC4"},{"bufferView":5,"componentType":5123,"count":10107,"max":[10106],"min":[0],"type":"SCALAR"},{"bufferView":6,"componentType":5126,"count":10,"max":[1,1,0.8258028626441956,0,1,1,0,0,0.8677068948745728,0.4800289273262024,1,0,0.6299798488616943,0.22200000286102295,0.8053281307220459,1],"min":[2.220446049250313e-16,-1,0,0,-1,-0.7632807493209839,-0.548992395401001,0,0,0,-0.12906180322170258,0,-0.006265624891966581,-2.8335487842559814,-0.12951356172561646,1],"type":"MAT4"}],"materials":[{"pbrMetallicRoughness":{"metallicFactor":0,"roughnessFactor":1,"baseColorTexture":{"index":0}},"alphaMode":"MASK","alphaCutoff":0.05,"doubleSided":true}],"textures":[{"sampler":0,"source":0,"name":"urgi_handguard.png"}],"samplers":[{"magFilter":9728,"minFilter":9728,"wrapS":33071,"wrapT":33071}],"images":[{"mimeType":"image/png","name":"urgi_handguard.png","uri":"urgi_handguard.png"}],"meshes":[{"primitives":[{"mode":4,"attributes":{"POSITION":0,"NORMAL":1,"TEXCOORD_0":2,"JOINTS_0":3,"WEIGHTS_0":4},"indices":5,"material":0}]}],"skins":[{"inverseBindMatrices":6,"joints":[9,0,1,2,3,4,8,7,5,6],"skeleton":9}]}