{"asset":{"version":"2.0","generator":"Blockbench 5.1.5 glTF exporter"},"scenes":[{"nodes":[8],"name":"blockbench_export"}],"scene":0,"nodes":[{"translation":[0,-0.187183125,-0.31244125],"name":"holder"},{"name":"bullet_1"},{"name":"bullet_2"},{"name":"bullet_3"},{"name":"bullet_4"},{"name":"bullet_5"},{"name":"bullet_6"},{"name":"root","children":[0,1,2,3,4,5,6]},{"name":"root","mesh":0,"children":[7],"skin":0}],"bufferViews":[{"buffer":0,"byteOffset":0,"byteLength":90900,"target":34962,"byteStride":12},{"buffer":0,"byteOffset":90900,"byteLength":90900,"target":34962,"byteStride":12},{"buffer":0,"byteOffset":181800,"byteLength":60600,"target":34962,"byteStride":8},{"buffer":0,"byteOffset":242400,"byteLength":60600,"target":34962,"byteStride":8},{"buffer":0,"byteOffset":303000,"byteLength":121200,"target":34962,"byteStride":16},{"buffer":0,"byteOffset":424200,"byteLength":15152,"target":34963},{"buffer":0,"byteOffset":439352,"byteLength":512}],"buffers":[{"byteLength":439864,"uri":"data:application/octet-stream;base64,"}],"accessors":[{"bufferView":0,"componentType":5126,"count":7575,"max":[0.16562125086784363,0.4775668680667877,0.4053712487220764],"min":[-0.16560561954975128,-2.164639472961426,-1.2487143278121948],"type":"VEC3"},{"bufferView":1,"componentType":5126,"count":7575,"max":[1,0.9983434677124023,1],"min":[-1,-0.998957633972168,-0.9983906745910645],"type":"VEC3"},{"bufferView":2,"componentType":5126,"count":7575,"max":[0.6009688377380371,0.578125],"min":[0,0],"type":"VEC2"},{"bufferView":3,"componentType":5123,"count":7575,"max":[0,7,0,0],"min":[0,0,0,0],"type":"VEC4"},{"bufferView":4,"componentType":5126,"count":7575,"max":[0,1,0,0],"min":[0,1,0,0],"type":"VEC4"},{"bufferView":5,"componentType":5123,"count":7575,"max":[7574],"min":[0],"type":"SCALAR"},{"bufferView":6,"componentType":5126,"count":8,"max":[1,0,0,0,0,1,0,0,0,0,1,0,0,0.18718312680721283,0.31244125962257385,1],"min":[1,0,0,0,0,1,0,0,0,0,1,0,0,0,0,1],"type":"MAT4"}],"materials":[{"pbrMetallicRoughness":{"metallicFactor":0,"roughnessFactor":1,"baseColorTexture":{"index":0}},"alphaMode":"MASK","alphaCutoff":0.05,"doubleSided":true}],"textures":[{"sampler":0,"source":0,"name":"6l18.png"}],"samplers":[{"magFilter":9728,"minFilter":9728,"wrapS":33071,"wrapT":33071}],"images":[{"mimeType":"image/png","name":"6l18.png","uri":"6l18.png"}],"meshes":[{"primitives":[{"mode":4,"attributes":{"POSITION":0,"NORMAL":1,"TEXCOORD_0":2,"JOINTS_0":3,"WEIGHTS_0":4},"indices":5,"material":0}]}],"skins":[{"inverseBindMatrices":6,"joints":[7,0,1,2,3,4,5,6],"skeleton":7}]}