{"asset":{"version":"2.0","generator":"Blockbench 5.1.5 glTF exporter"},"scenes":[{"nodes":[8],"name":"blockbench_export"}],"scene":0,"nodes":[{"translation":[0,-0.187183125,-0.31244125],"name":"holder"},{"name":"bullet_1"},{"name":"bullet_2"},{"name":"bullet_3"},{"name":"bullet_4"},{"name":"bullet_5"},{"name":"bullet_6"},{"name":"root","children":[0,1,2,3,4,5,6]},{"name":"root","mesh":0,"children":[7],"skin":0}],"bufferViews":[{"buffer":0,"byteOffset":0,"byteLength":90168,"target":34962,"byteStride":12},{"buffer":0,"byteOffset":90168,"byteLength":90168,"target":34962,"byteStride":12},{"buffer":0,"byteOffset":180336,"byteLength":60112,"target":34962,"byteStride":8},{"buffer":0,"byteOffset":240448,"byteLength":60112,"target":34962,"byteStride":8},{"buffer":0,"byteOffset":300560,"byteLength":120224,"target":34962,"byteStride":16},{"buffer":0,"byteOffset":420784,"byteLength":15036,"target":34963},{"buffer":0,"byteOffset":435820,"byteLength":512}],"buffers":[{"byteLength":436332,"uri":"data:application/octet-stream;base64,"}],"accessors":[{"bufferView":0,"componentType":5126,"count":7514,"max":[0.16561312973499298,0.47731688618659973,0.4053899943828583],"min":[-0.16561312973499298,-1.6335537433624268,-0.8833918571472168],"type":"VEC3"},{"bufferView":1,"componentType":5126,"count":7514,"max":[1,0.9983851313591003,1],"min":[-1,-0.9983838796615601,-0.9999982118606567],"type":"VEC3"},{"bufferView":2,"componentType":5126,"count":7514,"max":[0.84375,0.890625],"min":[0,0],"type":"VEC2"},{"bufferView":3,"componentType":5123,"count":7514,"max":[0,7,0,0],"min":[0,0,0,0],"type":"VEC4"},{"bufferView":4,"componentType":5126,"count":7514,"max":[0,1,0,0],"min":[0,1,0,0],"type":"VEC4"},{"bufferView":5,"componentType":5123,"count":7518,"max":[7513],"min":[0],"type":"SCALAR"},{"bufferView":6,"componentType":5126,"count":8,"max":[1,0,0,0,0,1,0,0,0,0,1,0,0,0.18718312680721283,0.31244125962257385,1],"min":[1,0,0,0,0,1,0,0,0,0,1,0,0,0,0,1],"type":"MAT4"}],"materials":[{"pbrMetallicRoughness":{"metallicFactor":0,"roughnessFactor":1,"baseColorTexture":{"index":0}},"alphaMode":"MASK","alphaCutoff":0.05,"doubleSided":true}],"textures":[{"sampler":0,"source":0,"name":"6l23.png"}],"samplers":[{"magFilter":9728,"minFilter":9728,"wrapS":33071,"wrapT":33071}],"images":[{"mimeType":"image/png","name":"6l23.png","uri":"6l23.png"}],"meshes":[{"primitives":[{"mode":4,"attributes":{"POSITION":0,"NORMAL":1,"TEXCOORD_0":2,"JOINTS_0":3,"WEIGHTS_0":4},"indices":5,"material":0}]}],"skins":[{"inverseBindMatrices":6,"joints":[7,0,1,2,3,4,5,6],"skeleton":7}]}