{"asset":{"version":"2.0","generator":"Blockbench 5.1.5 glTF exporter"},"scenes":[{"nodes":[1],"name":"blockbench_export"}],"scene":0,"nodes":[{"name":"root"},{"name":"root","mesh":0,"children":[0],"skin":0}],"bufferViews":[{"buffer":0,"byteOffset":0,"byteLength":11988,"target":34962,"byteStride":12},{"buffer":0,"byteOffset":11988,"byteLength":11988,"target":34962,"byteStride":12},{"buffer":0,"byteOffset":23976,"byteLength":7992,"target":34962,"byteStride":8},{"buffer":0,"byteOffset":31968,"byteLength":7992,"target":34962,"byteStride":8},{"buffer":0,"byteOffset":39960,"byteLength":15984,"target":34962,"byteStride":16},{"buffer":0,"byteOffset":55944,"byteLength":2000,"target":34963},{"buffer":0,"byteOffset":57944,"byteLength":64}],"buffers":[{"byteLength":58008,"uri":"data:application/octet-stream;base64,"}],"accessors":[{"bufferView":0,"componentType":5126,"count":999,"max":[0.1957281231880188,0.10980812460184097,0.9957287311553955],"min":[-0.17360812425613403,-0.220248743891716,-1.3495512008666992],"type":"VEC3"},{"bufferView":1,"componentType":5126,"count":999,"max":[1,0.9633923172950745,1],"min":[-1,-1,-1],"type":"VEC3"},{"bufferView":2,"componentType":5126,"count":999,"max":[0.576012134552002,0.375],"min":[0,0],"type":"VEC2"},{"bufferView":3,"componentType":5123,"count":999,"max":[0,0,0,0],"min":[0,0,0,0],"type":"VEC4"},{"bufferView":4,"componentType":5126,"count":999,"max":[0,1,0,0],"min":[0,1,0,0],"type":"VEC4"},{"bufferView":5,"componentType":5123,"count":999,"max":[998],"min":[0],"type":"SCALAR"},{"bufferView":6,"componentType":5126,"count":1,"max":[1,0,0,0,0,1,0,0,0,0,1,0,0,0,0,1],"min":[1,0,0,0,0,1,0,0,0,0,1,0,0,0,0,1],"type":"MAT4"}],"materials":[{"pbrMetallicRoughness":{"metallicFactor":0,"roughnessFactor":1,"baseColorTexture":{"index":0}},"alphaMode":"MASK","alphaCutoff":0.05,"doubleSided":true}],"textures":[{"sampler":0,"source":0,"name":"6p34_dustcover.png"}],"samplers":[{"magFilter":9728,"minFilter":9728,"wrapS":33071,"wrapT":33071}],"images":[{"mimeType":"image/png","name":"6p34_dustcover.png","uri":"6p34_dustcover.png"}],"meshes":[{"primitives":[{"mode":4,"attributes":{"POSITION":0,"NORMAL":1,"TEXCOORD_0":2,"JOINTS_0":3,"WEIGHTS_0":4},"indices":5,"material":0}]}],"skins":[{"inverseBindMatrices":6,"joints":[0],"skeleton":0}]}