{"asset":{"version":"2.0","generator":"Blockbench 5.1.5 glTF exporter"},"scenes":[{"nodes":[1],"name":"blockbench_export"}],"scene":0,"nodes":[{"name":"root"},{"name":"root","mesh":0,"children":[0],"skin":0}],"bufferViews":[{"buffer":0,"byteOffset":0,"byteLength":41316,"target":34962,"byteStride":12},{"buffer":0,"byteOffset":41316,"byteLength":41316,"target":34962,"byteStride":12},{"buffer":0,"byteOffset":82632,"byteLength":27544,"target":34962,"byteStride":8},{"buffer":0,"byteOffset":110176,"byteLength":27544,"target":34962,"byteStride":8},{"buffer":0,"byteOffset":137720,"byteLength":55088,"target":34962,"byteStride":16},{"buffer":0,"byteOffset":192808,"byteLength":6980,"target":34963},{"buffer":0,"byteOffset":199788,"byteLength":64}],"buffers":[{"byteLength":199852,"uri":"data:application/octet-stream;base64,"}],"accessors":[{"bufferView":0,"componentType":5126,"count":3443,"max":[0.17032812535762787,0.2160950005054474,2.177741289138794],"min":[-0.20115500688552856,-0.7512400150299072,-0.3551781177520752],"type":"VEC3"},{"bufferView":1,"componentType":5126,"count":3443,"max":[1,1,1],"min":[-1,-1,-1],"type":"VEC3"},{"bufferView":2,"componentType":5126,"count":3443,"max":[0.9382736086845398,0.9324547052383423],"min":[0,0],"type":"VEC2"},{"bufferView":3,"componentType":5123,"count":3443,"max":[0,0,0,0],"min":[0,0,0,0],"type":"VEC4"},{"bufferView":4,"componentType":5126,"count":3443,"max":[0,1,0,0],"min":[0,1,0,0],"type":"VEC4"},{"bufferView":5,"componentType":5123,"count":3489,"max":[3442],"min":[0],"type":"SCALAR"},{"bufferView":6,"componentType":5126,"count":1,"max":[1,0,0,0,0,1,0,0,0,0,1,0,0,0,0,1],"min":[1,0,0,0,0,1,0,0,0,0,1,0,0,0,0,1],"type":"MAT4"}],"materials":[{"pbrMetallicRoughness":{"metallicFactor":0,"roughnessFactor":1,"baseColorTexture":{"index":0}},"alphaMode":"MASK","alphaCutoff":0.05,"doubleSided":true}],"textures":[{"sampler":0,"source":0,"name":"6p34_stock.png"}],"samplers":[{"magFilter":9728,"minFilter":9728,"wrapS":33071,"wrapT":33071}],"images":[{"mimeType":"image/png","name":"6p34_stock.png","uri":"6p34_stock.png"}],"meshes":[{"primitives":[{"mode":4,"attributes":{"POSITION":0,"NORMAL":1,"TEXCOORD_0":2,"JOINTS_0":3,"WEIGHTS_0":4},"indices":5,"material":0}]}],"skins":[{"inverseBindMatrices":6,"joints":[0],"skeleton":0}]}