{"asset":{"version":"2.0","generator":"Blockbench 5.1.4 glTF exporter"},"scenes":[{"nodes":[2],"name":"blockbench_export"}],"scene":0,"nodes":[{"translation":[0,0.353125,1.71875],"name":"SIGHT_POSE"},{"name":"root","children":[0]},{"name":"root","mesh":0,"children":[1],"skin":0}],"bufferViews":[{"buffer":0,"byteOffset":0,"byteLength":51300,"target":34962,"byteStride":12},{"buffer":0,"byteOffset":51300,"byteLength":51300,"target":34962,"byteStride":12},{"buffer":0,"byteOffset":102600,"byteLength":34200,"target":34962,"byteStride":8},{"buffer":0,"byteOffset":136800,"byteLength":34200,"target":34962,"byteStride":8},{"buffer":0,"byteOffset":171000,"byteLength":68400,"target":34962,"byteStride":16},{"buffer":0,"byteOffset":239400,"byteLength":8552,"target":34963},{"buffer":0,"byteOffset":247952,"byteLength":128}],"buffers":[{"byteLength":248080,"uri":"data:application/octet-stream;base64,"}],"accessors":[{"bufferView":0,"componentType":5126,"count":4275,"max":[0.184063121676445,0.4093262255191803,0.9666137099266052],"min":[-0.286338746547699,-0.07279124855995178,-0.7847618460655212],"type":"VEC3"},{"bufferView":1,"componentType":5126,"count":4275,"max":[1,1,1],"min":[-1,-1,-1],"type":"VEC3"},{"bufferView":2,"componentType":5126,"count":4275,"max":[0.6063241958618164,0.5162924528121948],"min":[0,0],"type":"VEC2"},{"bufferView":3,"componentType":5123,"count":4275,"max":[0,0,0,0],"min":[0,0,0,0],"type":"VEC4"},{"bufferView":4,"componentType":5126,"count":4275,"max":[0,1,0,0],"min":[0,1,0,0],"type":"VEC4"},{"bufferView":5,"componentType":5123,"count":4275,"max":[4274],"min":[0],"type":"SCALAR"},{"bufferView":6,"componentType":5126,"count":2,"max":[1,0,0,0,0,1,0,0,0,0,1,0,0,0,0,1],"min":[1,0,0,0,0,1,0,0,0,0,1,0,0,-0.3531250059604645,-1.71875,1],"type":"MAT4"}],"materials":[{"pbrMetallicRoughness":{"metallicFactor":0,"roughnessFactor":1,"baseColorTexture":{"index":0}},"alphaMode":"MASK","alphaCutoff":0.05,"doubleSided":true}],"textures":[{"sampler":0,"source":0,"name":"m4a1_rear_sight.png"}],"samplers":[{"magFilter":9728,"minFilter":9728,"wrapS":33071,"wrapT":33071}],"images":[{"mimeType":"image/png","name":"m4a1_rear_sight.png","uri":"m4a1_rear_sight.png"}],"meshes":[{"primitives":[{"mode":4,"attributes":{"POSITION":0,"NORMAL":1,"TEXCOORD_0":2,"JOINTS_0":3,"WEIGHTS_0":4},"indices":5,"material":0}]}],"skins":[{"inverseBindMatrices":6,"joints":[1,0],"skeleton":1}]}