{"asset":{"version":"2.0","generator":"Blockbench 5.1.4 glTF exporter"},"scenes":[{"nodes":[2],"name":"blockbench_export"}],"scene":0,"nodes":[{"translation":[0,0.359375,1.71875],"name":"SIGHT_POSE"},{"name":"root","children":[0]},{"name":"root","mesh":0,"children":[1],"skin":0}],"bufferViews":[{"buffer":0,"byteOffset":0,"byteLength":52308,"target":34962,"byteStride":12},{"buffer":0,"byteOffset":52308,"byteLength":52308,"target":34962,"byteStride":12},{"buffer":0,"byteOffset":104616,"byteLength":34872,"target":34962,"byteStride":8},{"buffer":0,"byteOffset":139488,"byteLength":34872,"target":34962,"byteStride":8},{"buffer":0,"byteOffset":174360,"byteLength":69744,"target":34962,"byteStride":16},{"buffer":0,"byteOffset":244104,"byteLength":8792,"target":34963},{"buffer":0,"byteOffset":252896,"byteLength":128}],"buffers":[{"byteLength":253024,"uri":"data:application/octet-stream;base64,"}],"accessors":[{"bufferView":0,"componentType":5126,"count":4359,"max":[0.1896660029888153,0.41129112243652344,0.9875331521034241],"min":[-0.28129199147224426,-0.09076887369155884,-0.7851378917694092],"type":"VEC3"},{"bufferView":1,"componentType":5126,"count":4359,"max":[1,1,1],"min":[-1,-1,-1],"type":"VEC3"},{"bufferView":2,"componentType":5126,"count":4359,"max":[0.7647906541824341,0.75],"min":[0,0],"type":"VEC2"},{"bufferView":3,"componentType":5123,"count":4359,"max":[0,0,0,0],"min":[0,0,0,0],"type":"VEC4"},{"bufferView":4,"componentType":5126,"count":4359,"max":[0,1,0,0],"min":[0,1,0,0],"type":"VEC4"},{"bufferView":5,"componentType":5123,"count":4395,"max":[4358],"min":[0],"type":"SCALAR"},{"bufferView":6,"componentType":5126,"count":2,"max":[1,0,0,0,0,1,0,0,0,0,1,0,0,0,0,1],"min":[1,0,0,0,0,1,0,0,0,0,1,0,0,-0.359375,-1.71875,1],"type":"MAT4"}],"materials":[{"pbrMetallicRoughness":{"metallicFactor":0,"roughnessFactor":1,"baseColorTexture":{"index":0}},"alphaMode":"MASK","alphaCutoff":0.05,"doubleSided":true}],"textures":[{"sampler":0,"source":0,"name":"texture"}],"samplers":[{"magFilter":9728,"minFilter":9728,"wrapS":33071,"wrapT":33071}],"images":[{"mimeType":"image/png","name":"a2_carry_handle.png","uri":"a2_carry_handle.png"}],"meshes":[{"primitives":[{"mode":4,"attributes":{"POSITION":0,"NORMAL":1,"TEXCOORD_0":2,"JOINTS_0":3,"WEIGHTS_0":4},"indices":5,"material":0}]}],"skins":[{"inverseBindMatrices":6,"joints":[1,0],"skeleton":1}]}