{"asset":{"version":"2.0","generator":"Blockbench 5.1.4 glTF exporter"},"scenes":[{"nodes":[2],"name":"blockbench_export"}],"scene":0,"nodes":[{"translation":[0,0.353125,1.71875],"name":"SIGHT_POSE"},{"name":"root","children":[0]},{"name":"root","mesh":0,"children":[1],"skin":0}],"bufferViews":[{"buffer":0,"byteOffset":0,"byteLength":52452,"target":34962,"byteStride":12},{"buffer":0,"byteOffset":52452,"byteLength":52452,"target":34962,"byteStride":12},{"buffer":0,"byteOffset":104904,"byteLength":34968,"target":34962,"byteStride":8},{"buffer":0,"byteOffset":139872,"byteLength":34968,"target":34962,"byteStride":8},{"buffer":0,"byteOffset":174840,"byteLength":69936,"target":34962,"byteStride":16},{"buffer":0,"byteOffset":244776,"byteLength":8816,"target":34963},{"buffer":0,"byteOffset":253592,"byteLength":128}],"buffers":[{"byteLength":253720,"uri":"data:application/octet-stream;base64,"}],"accessors":[{"bufferView":0,"componentType":5126,"count":4371,"max":[0.1896662563085556,0.411291241645813,0.9844081401824951],"min":[-0.2812918722629547,-0.09076874703168869,-0.7882631421089172],"type":"VEC3"},{"bufferView":1,"componentType":5126,"count":4371,"max":[1,1,1],"min":[-1,-1,-1],"type":"VEC3"},{"bufferView":2,"componentType":5126,"count":4371,"max":[0.7647906541824341,0.75],"min":[0,0],"type":"VEC2"},{"bufferView":3,"componentType":5123,"count":4371,"max":[0,0,0,0],"min":[0,0,0,0],"type":"VEC4"},{"bufferView":4,"componentType":5126,"count":4371,"max":[0,1,0,0],"min":[0,1,0,0],"type":"VEC4"},{"bufferView":5,"componentType":5123,"count":4407,"max":[4370],"min":[0],"type":"SCALAR"},{"bufferView":6,"componentType":5126,"count":2,"max":[1,0,0,0,0,1,0,0,0,0,1,0,0,0,0,1],"min":[1,0,0,0,0,1,0,0,0,0,1,0,0,-0.3531250059604645,-1.71875,1],"type":"MAT4"}],"materials":[{"pbrMetallicRoughness":{"metallicFactor":0,"roughnessFactor":1,"baseColorTexture":{"index":0}},"alphaMode":"MASK","alphaCutoff":0.05,"doubleSided":true}],"textures":[{"sampler":0,"source":0,"name":"a2_carry_handle.png"}],"samplers":[{"magFilter":9728,"minFilter":9728,"wrapS":33071,"wrapT":33071}],"images":[{"mimeType":"image/png","name":"a2_carry_handle.png","uri":"a2_carry_handle.png"}],"meshes":[{"primitives":[{"mode":4,"attributes":{"POSITION":0,"NORMAL":1,"TEXCOORD_0":2,"JOINTS_0":3,"WEIGHTS_0":4},"indices":5,"material":0}]}],"skins":[{"inverseBindMatrices":6,"joints":[1,0],"skeleton":1}]}