{"asset":{"version":"2.0","generator":"Blockbench 5.0.2 glTF exporter"},"scenes":[{"nodes":[2],"name":"blockbench_export"}],"scene":0,"nodes":[{"translation":[0,0,-0.375],"name":"MUZZLE_FLASH"},{"name":"root","children":[0]},{"name":"root","mesh":0,"children":[1],"skin":0}],"bufferViews":[{"buffer":0,"byteOffset":0,"byteLength":22032,"target":34962,"byteStride":12},{"buffer":0,"byteOffset":22032,"byteLength":22032,"target":34962,"byteStride":12},{"buffer":0,"byteOffset":44064,"byteLength":14688,"target":34962,"byteStride":8},{"buffer":0,"byteOffset":58752,"byteLength":14688,"target":34962,"byteStride":8},{"buffer":0,"byteOffset":73440,"byteLength":29376,"target":34962,"byteStride":16},{"buffer":0,"byteOffset":102816,"byteLength":3672,"target":34963},{"buffer":0,"byteOffset":106488,"byteLength":128}],"buffers":[{"byteLength":106616,"uri":"data:application/octet-stream;base64,"}],"accessors":[{"bufferView":0,"componentType":5126,"count":1836,"max":[0.1007668748497963,0.10076812654733658,0.04074687510728836],"min":[-0.10076812654733658,-0.1007668748497963,-0.42439374327659607],"type":"VEC3"},{"bufferView":1,"componentType":5126,"count":1836,"max":[1,0.9929901957511902,1],"min":[-1,-0.9929890036582947,-1],"type":"VEC3"},{"bufferView":2,"componentType":5126,"count":1836,"max":[0.861336886882782,0.90625],"min":[0,0],"type":"VEC2"},{"bufferView":3,"componentType":5123,"count":1836,"max":[0,0,0,0],"min":[0,0,0,0],"type":"VEC4"},{"bufferView":4,"componentType":5126,"count":1836,"max":[0,1,0,0],"min":[0,1,0,0],"type":"VEC4"},{"bufferView":5,"componentType":5123,"count":1836,"max":[1835],"min":[0],"type":"SCALAR"},{"bufferView":6,"componentType":5126,"count":2,"max":[1,0,0,0,0,1,0,0,0,0,1,0,0,0,0.41874998807907104,1],"min":[1,0,0,0,0,1,0,0,0,0,1,0,0,0,0,1],"type":"MAT4"}],"materials":[{"pbrMetallicRoughness":{"metallicFactor":0,"roughnessFactor":1,"baseColorTexture":{"index":0}},"alphaMode":"MASK","alphaCutoff":0.05,"doubleSided":true}],"textures":[{"sampler":0,"source":0,"name":"A2_flash_hider.png"}],"samplers":[{"magFilter":9728,"minFilter":9728,"wrapS":33071,"wrapT":33071}],"images":[{"mimeType":"image/png","name":"A2_flash_hider.png","uri":"A2_flash_hider.png"}],"meshes":[{"primitives":[{"mode":4,"attributes":{"POSITION":0,"NORMAL":1,"TEXCOORD_0":2,"JOINTS_0":3,"WEIGHTS_0":4},"indices":5,"material":0}]}],"skins":[{"inverseBindMatrices":6,"joints":[1,0],"skeleton":1}]}