{"asset":{"version":"2.0","generator":"Blockbench 5.1.4 glTF exporter"},"scenes":[{"nodes":[1],"name":"blockbench_export"}],"scene":0,"nodes":[{"name":"root"},{"name":"root","mesh":0,"children":[0],"skin":0}],"bufferViews":[{"buffer":0,"byteOffset":0,"byteLength":18576,"target":34962,"byteStride":12},{"buffer":0,"byteOffset":18576,"byteLength":18576,"target":34962,"byteStride":12},{"buffer":0,"byteOffset":37152,"byteLength":12384,"target":34962,"byteStride":8},{"buffer":0,"byteOffset":49536,"byteLength":12384,"target":34962,"byteStride":8},{"buffer":0,"byteOffset":61920,"byteLength":24768,"target":34962,"byteStride":16},{"buffer":0,"byteOffset":86688,"byteLength":3096,"target":34963},{"buffer":0,"byteOffset":89784,"byteLength":64}],"buffers":[{"byteLength":89848,"uri":"data:application/octet-stream;base64,"}],"accessors":[{"bufferView":0,"componentType":5126,"count":1548,"max":[0.15256625413894653,0.2033337503671646,0.7464256286621094],"min":[-0.15256625413894653,-0.8186693787574768,-0.15146875381469727],"type":"VEC3"},{"bufferView":1,"componentType":5126,"count":1548,"max":[1,1,0.9833766222000122],"min":[-1,-1,-1],"type":"VEC3"},{"bufferView":2,"componentType":5126,"count":1548,"max":[0.7601390480995178,0.9227843880653381],"min":[0,0],"type":"VEC2"},{"bufferView":3,"componentType":5123,"count":1548,"max":[0,0,0,0],"min":[0,0,0,0],"type":"VEC4"},{"bufferView":4,"componentType":5126,"count":1548,"max":[0,1,0,0],"min":[0,1,0,0],"type":"VEC4"},{"bufferView":5,"componentType":5123,"count":1548,"max":[1547],"min":[0],"type":"SCALAR"},{"bufferView":6,"componentType":5126,"count":1,"max":[1,0,0,0,0,1,0,0,0,0,1,0,0,0,0,1],"min":[1,0,0,0,0,1,0,0,0,0,1,0,0,0,0,1],"type":"MAT4"}],"materials":[{"pbrMetallicRoughness":{"metallicFactor":0,"roughnessFactor":1,"baseColorTexture":{"index":0}},"alphaMode":"MASK","alphaCutoff":0.05,"doubleSided":true}],"textures":[{"sampler":0,"source":0,"name":"a2_pistol_grip.png"}],"samplers":[{"magFilter":9728,"minFilter":9728,"wrapS":33071,"wrapT":33071}],"images":[{"mimeType":"image/png","name":"a2_pistol_grip.png","uri":"a2_pistol_grip.png"}],"meshes":[{"primitives":[{"mode":4,"attributes":{"POSITION":0,"NORMAL":1,"TEXCOORD_0":2,"JOINTS_0":3,"WEIGHTS_0":4},"indices":5,"material":0}]}],"skins":[{"inverseBindMatrices":6,"joints":[0],"skeleton":0}]}