{"asset":{"version":"2.0","generator":"Blockbench 5.2.1 glTF exporter"},"scenes":[{"nodes":[11],"name":"blockbench_export"}],"scene":0,"nodes":[{"translation":[0,3,0],"name":"L_MALE_PIVOT"},{"translation":[-0.125,0,0],"name":"L_MALE","children":[0]},{"translation":[0,3,0],"name":"L_SLIM_PIVOT"},{"name":"L_SLIM","children":[2]},{"translation":[0,-3,0],"name":"INNER_L","children":[1,3]},{"rotation":[0.7448139385639411,-0.05012189558335067,0.5619622017083499,0.35628426341210384],"translation":[-1.4937500000000001,-2.35625,1.275],"name":"LEFT_ARM","children":[4]},{"translation":[0,-0.227175,-0.2427875],"name":"RAIL_GRIP"},{"translation":[0,0.3106875,-0.15914375],"name":"RAIL_UPPER"},{"rotation":[0,0,-0.7071067811865475,0.7071067811865476],"translation":[-0.237425,0.00539375,-0.6443875],"name":"RAIL_LEFT"},{"rotation":[0,0,0.7071067811865475,0.7071067811865476],"translation":[0.237425,0.00539375,-0.6443875],"name":"RAIL_RIGHT"},{"name":"root","children":[5,6,7,8,9]},{"name":"root","mesh":0,"children":[10],"skin":0}],"bufferViews":[{"buffer":0,"byteOffset":0,"byteLength":76608,"target":34962,"byteStride":12},{"buffer":0,"byteOffset":76608,"byteLength":76608,"target":34962,"byteStride":12},{"buffer":0,"byteOffset":153216,"byteLength":51072,"target":34962,"byteStride":8},{"buffer":0,"byteOffset":204288,"byteLength":51072,"target":34962,"byteStride":8},{"buffer":0,"byteOffset":255360,"byteLength":102144,"target":34962,"byteStride":16},{"buffer":0,"byteOffset":357504,"byteLength":12768,"target":34963},{"buffer":0,"byteOffset":370272,"byteLength":704}],"buffers":[{"byteLength":370976,"uri":"data:application/octet-stream;base64,"}],"accessors":[{"bufferView":0,"componentType":5126,"count":6384,"max":[0.23742499947547913,0.31068626046180725,1.172853708267212],"min":[-0.23742499947547913,-0.25525376200675964,-1.5801587104797363],"type":"VEC3"},{"bufferView":1,"componentType":5126,"count":6384,"max":[1,1,1],"min":[-1,-1,-1],"type":"VEC3"},{"bufferView":2,"componentType":5126,"count":6384,"max":[0.71875,0.71875],"min":[0.00017671874957159162,0],"type":"VEC2"},{"bufferView":3,"componentType":5123,"count":6384,"max":[0,0,0,0],"min":[0,0,0,0],"type":"VEC4"},{"bufferView":4,"componentType":5126,"count":6384,"max":[0,1,0,0],"min":[0,1,0,0],"type":"VEC4"},{"bufferView":5,"componentType":5123,"count":6384,"max":[6383],"min":[0],"type":"SCALAR"},{"bufferView":6,"componentType":5126,"count":11,"max":[1,1,0.801399290561676,0,1,1,0,0,0.8728298544883728,0.474397748708725,1,0,0.3225337564945221,0.23742499947547913,0.6443874835968018,1],"min":[2.220446049250313e-16,-1,0,0,-1,-0.7410986423492432,-0.5870642066001892,0,0,0,-0.11452001333236694,0,-0.005393750034272671,-3.060750722885132,-0.040166813880205154,1],"type":"MAT4"}],"materials":[{"pbrMetallicRoughness":{"metallicFactor":0,"roughnessFactor":1,"baseColorTexture":{"index":0}},"alphaMode":"MASK","alphaCutoff":0.05,"doubleSided":true}],"textures":[{"sampler":0,"source":0,"name":"ak24a_handguard.png"}],"samplers":[{"magFilter":9728,"minFilter":9728,"wrapS":33071,"wrapT":33071}],"images":[{"mimeType":"image/png","name":"ak24a_handguard.png","uri":"ak24a_handguard.png"}],"meshes":[{"primitives":[{"mode":4,"attributes":{"POSITION":0,"NORMAL":1,"TEXCOORD_0":2,"JOINTS_0":3,"WEIGHTS_0":4},"indices":5,"material":0}]}],"skins":[{"inverseBindMatrices":6,"joints":[10,5,4,1,0,3,2,6,7,8,9],"skeleton":10}]}