{"asset":{"version":"2.0","generator":"Blockbench 5.2.1 glTF exporter"},"scenes":[{"nodes":[4],"name":"blockbench_export"}],"scene":0,"nodes":[{"translation":[0,-0.125,0],"name":"piston"},{"translation":[0,0,-3.4725],"name":"MUZZLE"},{"translation":[0,0,-3.5475],"name":"MUZZLE_FLASH"},{"name":"root","children":[0,1,2]},{"name":"root","mesh":0,"children":[3],"skin":0}],"bufferViews":[{"buffer":0,"byteOffset":0,"byteLength":45288,"target":34962,"byteStride":12},{"buffer":0,"byteOffset":45288,"byteLength":45288,"target":34962,"byteStride":12},{"buffer":0,"byteOffset":90576,"byteLength":30192,"target":34962,"byteStride":8},{"buffer":0,"byteOffset":120768,"byteLength":30192,"target":34962,"byteStride":8},{"buffer":0,"byteOffset":150960,"byteLength":60384,"target":34962,"byteStride":16},{"buffer":0,"byteOffset":211344,"byteLength":7548,"target":34963},{"buffer":0,"byteOffset":218892,"byteLength":256}],"buffers":[{"byteLength":219148,"uri":"data:application/octet-stream;base64,"}],"accessors":[{"bufferView":0,"componentType":5126,"count":3774,"max":[0.14971500635147095,0.25099438428878784,0.4974437355995178],"min":[-0.14971500635147095,-0.1497156322002411,-3.5430831909179688],"type":"VEC3"},{"bufferView":1,"componentType":5126,"count":3774,"max":[1,1,1],"min":[-1,-1,-1],"type":"VEC3"},{"bufferView":2,"componentType":5126,"count":3774,"max":[0.8061875104904175,0.75],"min":[0,0],"type":"VEC2"},{"bufferView":3,"componentType":5123,"count":3774,"max":[0,1,0,0],"min":[0,0,0,0],"type":"VEC4"},{"bufferView":4,"componentType":5126,"count":3774,"max":[0,1,0,0],"min":[0,1,0,0],"type":"VEC4"},{"bufferView":5,"componentType":5123,"count":3774,"max":[3773],"min":[0],"type":"SCALAR"},{"bufferView":6,"componentType":5126,"count":4,"max":[1,0,0,0,0,1,0,0,0,0,1,0,0,0.125,3.547499895095825,1],"min":[1,0,0,0,0,1,0,0,0,0,1,0,0,0,0,1],"type":"MAT4"}],"materials":[{"pbrMetallicRoughness":{"metallicFactor":0,"roughnessFactor":1,"baseColorTexture":{"index":0}},"alphaMode":"MASK","alphaCutoff":0.05,"doubleSided":true}],"textures":[{"sampler":0,"source":0,"name":"ak24b_barrel.png"}],"samplers":[{"magFilter":9728,"minFilter":9728,"wrapS":33071,"wrapT":33071}],"images":[{"mimeType":"image/png","name":"ak24b_barrel.png","uri":"ak24b_barrel.png"}],"meshes":[{"primitives":[{"mode":4,"attributes":{"POSITION":0,"NORMAL":1,"TEXCOORD_0":2,"JOINTS_0":3,"WEIGHTS_0":4},"indices":5,"material":0}]}],"skins":[{"inverseBindMatrices":6,"joints":[3,0,1,2],"skeleton":3}]}