{"asset":{"version":"2.0","generator":"Blockbench 5.1.5 glTF exporter"},"scenes":[{"nodes":[2],"name":"blockbench_export"}],"scene":0,"nodes":[{"translation":[0,0,-0.625],"name":"MUZZLE_FLASH"},{"name":"root","children":[0]},{"name":"root","mesh":0,"children":[1],"skin":0}],"bufferViews":[{"buffer":0,"byteOffset":0,"byteLength":22320,"target":34962,"byteStride":12},{"buffer":0,"byteOffset":22320,"byteLength":22320,"target":34962,"byteStride":12},{"buffer":0,"byteOffset":44640,"byteLength":14880,"target":34962,"byteStride":8},{"buffer":0,"byteOffset":59520,"byteLength":14880,"target":34962,"byteStride":8},{"buffer":0,"byteOffset":74400,"byteLength":29760,"target":34962,"byteStride":16},{"buffer":0,"byteOffset":104160,"byteLength":3720,"target":34963},{"buffer":0,"byteOffset":107880,"byteLength":128}],"buffers":[{"byteLength":108008,"uri":"data:application/octet-stream;base64,"}],"accessors":[{"bufferView":0,"componentType":5126,"count":1860,"max":[0.14001624286174774,0.1400631219148636,0.003981874790042639],"min":[-0.14001624286174774,-0.13996875286102295,-0.8160181045532227],"type":"VEC3"},{"bufferView":1,"componentType":5126,"count":1860,"max":[1,1,1],"min":[-1,-1,-1],"type":"VEC3"},{"bufferView":2,"componentType":5126,"count":1860,"max":[0.8002656102180481,0.8125],"min":[0,0],"type":"VEC2"},{"bufferView":3,"componentType":5123,"count":1860,"max":[0,0,0,0],"min":[0,0,0,0],"type":"VEC4"},{"bufferView":4,"componentType":5126,"count":1860,"max":[0,1,0,0],"min":[0,1,0,0],"type":"VEC4"},{"bufferView":5,"componentType":5123,"count":1860,"max":[1859],"min":[0],"type":"SCALAR"},{"bufferView":6,"componentType":5126,"count":2,"max":[1,0,0,0,0,1,0,0,0,0,1,0,0,0,0.625,1],"min":[1,0,0,0,0,1,0,0,0,0,1,0,0,0,0,1],"type":"MAT4"}],"materials":[{"pbrMetallicRoughness":{"metallicFactor":0,"roughnessFactor":1,"baseColorTexture":{"index":0}},"alphaMode":"MASK","alphaCutoff":0.05,"doubleSided":true}],"textures":[{"sampler":0,"source":0,"name":"ak_74_muzzle_brake.png"}],"samplers":[{"magFilter":9728,"minFilter":9728,"wrapS":33071,"wrapT":33071}],"images":[{"mimeType":"image/png","name":"ak_74_muzzle_brake.png","uri":"ak_74_muzzle_brake.png"}],"meshes":[{"primitives":[{"mode":4,"attributes":{"POSITION":0,"NORMAL":1,"TEXCOORD_0":2,"JOINTS_0":3,"WEIGHTS_0":4},"indices":5,"material":0}]}],"skins":[{"inverseBindMatrices":6,"joints":[1,0],"skeleton":1}]}