{"asset":{"version":"2.0","generator":"Blockbench 5.1.5 glTF exporter"},"scenes":[{"nodes":[42],"name":"blockbench_export"}],"scene":0,"nodes":[{"translation":[0.15625,0.14375,-0.8125],"name":"BULLET_SHELL"},{"translation":[0,-0.5,-0.75],"name":"MAG"},{"translation":[0,3,0],"name":"L_MALE_PIVOT"},{"translation":[-0.125,0,0],"name":"L_MALE","children":[2]},{"translation":[0,3,0],"name":"L_SLIM_PIVOT"},{"name":"L_SLIM","children":[4]},{"translation":[0,-3,0],"name":"INNER_L","children":[3,5]},{"rotation":[0.8014950278181168,-0.04693105984567578,0.45110236325472985,0.3897561466745529],"translation":[-1.425,-2.35625,0.1125],"name":"LEFT_ARM","children":[6]},{"name":"reloading","children":[1,7]},{"translation":[0,0.24375,0.675],"name":"spring"},{"translation":[0,-0.24375,0.75],"name":"bolt"},{"translation":[0,0.24375,-1],"name":"slider","children":[10]},{"translation":[0,-0.2078125,-0.1875],"name":"hammer"},{"translation":[0,-0.07685624999999999,0.42120625],"name":"safety"},{"translation":[0,0.50625,1.3125],"name":"SIGHT_POSE"},{"translation":[0,0.50625,1],"name":"FARTHEST_SIGHT_Z"},{"translation":[0,-0.513325,-0.30636875],"name":"mag_release"},{"translation":[0,0,-1.26875],"name":"ammo"},{"translation":[0,0,-1.26875],"name":"shell"},{"name":"main","children":[9,11,12,13,14,15,16,17,18]},{"translation":[0,0,-5.15625],"name":"MUZZLE"},{"translation":[0,0,-5.29375],"name":"MUZZLE_FLASH"},{"translation":[0,0.25,0],"name":"DUSTCOVER"},{"translation":[0,0.3125,-2.5],"name":"HANDGUARD_UPPER"},{"translation":[0,0,-2.5],"name":"HANDGUARD_LOWER"},{"translation":[0,-0.1875,1.25],"name":"STOCK"},{"translation":[0,-0.5625,0.625],"name":"REAR_GRIP"},{"translation":[0,3,0],"name":"R_MALE_PIVOT"},{"translation":[0.125,0,0],"name":"R_MALE","children":[27]},{"translation":[0,3,0],"name":"R_SLIM_PIVOT"},{"name":"R_SLIM","children":[29]},{"translation":[0,-3,0],"name":"INNER_R","children":[28,30]},{"rotation":[-0.7528458688671527,0.02994559743523753,-0.004959770414516961,0.657496585239303],"translation":[-0.251538125,-2.852738125,-0.48850187499999986],"name":"ammo_reloading"},{"rotation":[0.7567690113507175,0.11496056930302385,-0.015250818788894636,0.6433134100040592],"translation":[0.68125,-1.3,3],"name":"RIGHT_ARM","children":[31,32]},{"translation":[0,0.0375,-0.48125],"name":"SHELL_THROW"},{"translation":[-0.23924375,-0.190975,-0.0009125],"name":"MOUNT"},{"translation":[0,-0.5,-0.75],"name":"OLD_MAG"},{"name":"body","children":[19,20,21,22,23,24,25,26,33,34,35,36]},{"translation":[0,-0.09375,0],"name":"global","children":[0,8,37]},{"translation":[-0.89375,0.64375,2.125],"name":"camera"},{"translation":[0,-0.09375,0.4375],"name":"HAND_ROT_PIVOT"},{"name":"root","children":[38,39,40]},{"name":"root","mesh":0,"children":[41],"skin":0}],"bufferViews":[{"buffer":0,"byteOffset":0,"byteLength":368628,"target":34962,"byteStride":12},{"buffer":0,"byteOffset":368628,"byteLength":368628,"target":34962,"byteStride":12},{"buffer":0,"byteOffset":737256,"byteLength":245752,"target":34962,"byteStride":8},{"buffer":0,"byteOffset":983008,"byteLength":245752,"target":34962,"byteStride":8},{"buffer":0,"byteOffset":1228760,"byteLength":491504,"target":34962,"byteStride":16},{"buffer":0,"byteOffset":1720264,"byteLength":61760,"target":34963},{"buffer":0,"byteOffset":1782024,"byteLength":2688}],"buffers":[{"byteLength":1784712,"uri":"data:application/octet-stream;base64,"}],"accessors":[{"bufferView":0,"componentType":5126,"count":30719,"max":[0.42232874035835266,0.4180218577384949,1.0091512203216553],"min":[-0.26803353428840637,-0.8171312212944031,-5.304995059967041],"type":"VEC3"},{"bufferView":1,"componentType":5126,"count":30719,"max":[1,1,1],"min":[-1,-1,-1],"type":"VEC3"},{"bufferView":2,"componentType":5126,"count":30719,"max":[0.9852488040924072,0.96875],"min":[0,0],"type":"VEC2"},{"bufferView":3,"componentType":5123,"count":30719,"max":[0,36,0,0],"min":[0,12,0,0],"type":"VEC4"},{"bufferView":4,"componentType":5126,"count":30719,"max":[0,1,0,0],"min":[0,1,0,0],"type":"VEC4"},{"bufferView":5,"componentType":5123,"count":30879,"max":[30718],"min":[0],"type":"SCALAR"},{"bufferView":6,"componentType":5126,"count":42,"max":[1,0.19361931085586548,0.686529278755188,0,0.2764098048210144,1,0,0,0.7596959471702576,0.9701728224754333,1,0,1.5555050373077393,0.65625,5.293749809265137,1],"min":[0.5886082649230957,-0.42686986923217773,0,0,0,-0.6917752623558044,-0.9771857857704163,0,-0.21526727080345154,0,-0.28919360041618347,0,-0.15625,-3.2457194328308105,-2.125,1],"type":"MAT4"}],"materials":[{"pbrMetallicRoughness":{"metallicFactor":0,"roughnessFactor":1,"baseColorTexture":{"index":0}},"alphaMode":"MASK","alphaCutoff":0.05,"doubleSided":true}],"textures":[{"sampler":0,"source":0,"name":"ak74m.png"}],"samplers":[{"magFilter":9728,"minFilter":9728,"wrapS":33071,"wrapT":33071}],"images":[{"mimeType":"image/png","name":"ak74m.png","uri":"ak74m.png"}],"meshes":[{"primitives":[{"mode":4,"attributes":{"POSITION":0,"NORMAL":1,"TEXCOORD_0":2,"JOINTS_0":3,"WEIGHTS_0":4},"indices":5,"material":0}]}],"skins":[{"inverseBindMatrices":6,"joints":[41,38,0,8,1,7,6,3,2,5,4,37,19,9,11,10,12,13,14,15,16,17,18,20,21,22,23,24,25,26,33,31,28,27,30,29,32,34,35,36,39,40],"skeleton":41}]}