{"asset":{"version":"2.0","generator":"Blockbench 5.1.5 glTF exporter"},"scenes":[{"nodes":[1],"name":"blockbench_export"}],"scene":0,"nodes":[{"name":"root"},{"name":"root","mesh":0,"children":[0],"skin":0}],"bufferViews":[{"buffer":0,"byteOffset":0,"byteLength":3888,"target":34962,"byteStride":12},{"buffer":0,"byteOffset":3888,"byteLength":3888,"target":34962,"byteStride":12},{"buffer":0,"byteOffset":7776,"byteLength":2592,"target":34962,"byteStride":8},{"buffer":0,"byteOffset":10368,"byteLength":2592,"target":34962,"byteStride":8},{"buffer":0,"byteOffset":12960,"byteLength":5184,"target":34962,"byteStride":16},{"buffer":0,"byteOffset":18144,"byteLength":648,"target":34963},{"buffer":0,"byteOffset":18792,"byteLength":64}],"buffers":[{"byteLength":18856,"uri":"data:application/octet-stream;base64,"}],"accessors":[{"bufferView":0,"componentType":5126,"count":324,"max":[0.1739950031042099,0.1103268712759018,0.4889112412929535],"min":[-0.1739950031042099,-0.17565999925136566,-0.6325287222862244],"type":"VEC3"},{"bufferView":1,"componentType":5126,"count":324,"max":[1,0.9259650111198425,1],"min":[-1,-1,-1],"type":"VEC3"},{"bufferView":2,"componentType":5126,"count":324,"max":[0.5780507922172546,0.640625],"min":[0.0003589062544051558,0],"type":"VEC2"},{"bufferView":3,"componentType":5123,"count":324,"max":[0,0,0,0],"min":[0,0,0,0],"type":"VEC4"},{"bufferView":4,"componentType":5126,"count":324,"max":[0,1,0,0],"min":[0,1,0,0],"type":"VEC4"},{"bufferView":5,"componentType":5123,"count":324,"max":[323],"min":[0],"type":"SCALAR"},{"bufferView":6,"componentType":5126,"count":1,"max":[1,0,0,0,0,1,0,0,0,0,1,0,0,0,0,1],"min":[1,0,0,0,0,1,0,0,0,0,1,0,0,0,0,1],"type":"MAT4"}],"materials":[{"pbrMetallicRoughness":{"metallicFactor":0,"roughnessFactor":1,"baseColorTexture":{"index":0}},"alphaMode":"MASK","alphaCutoff":0.05,"doubleSided":true}],"textures":[{"sampler":0,"source":0,"name":"upper.png"}],"samplers":[{"magFilter":9728,"minFilter":9728,"wrapS":33071,"wrapT":33071}],"images":[{"mimeType":"image/png","name":"upper.png","uri":"upper.png"}],"meshes":[{"primitives":[{"mode":4,"attributes":{"POSITION":0,"NORMAL":1,"TEXCOORD_0":2,"JOINTS_0":3,"WEIGHTS_0":4},"indices":5,"material":0}]}],"skins":[{"inverseBindMatrices":6,"joints":[0],"skeleton":0}]}