{"asset":{"version":"2.0","generator":"Blockbench 5.1.5 glTF exporter"},"scenes":[{"nodes":[7,8,9,10,11,12,13,14],"name":"blockbench_export"}],"scene":0,"nodes":[{"translation":[0,2.9999999999999996,0],"name":"L_MALE_PIVOT"},{"translation":[-0.125,0,0],"name":"L_MALE","children":[0]},{"translation":[0,2.9999999999999996,0],"name":"L_SLIM_PIVOT"},{"name":"L_SLIM","children":[2]},{"translation":[0,-2.9999999999999996,0],"name":"INNER_L","children":[1,3]},{"rotation":[0.7623487803141159,-0.03535872246979746,0.5403192234919204,0.35444214566551163],"translation":[-1.45,-2.31875,1.59375],"name":"LEFT_ARM","children":[4]},{"name":"root","children":[5]},{"name":"root","mesh":0,"children":[6],"skin":0},{"translation":[0,0.08125,2.5],"name":"root2"},{"translation":[0,0.29375,-0.0625],"name":"root3"},{"translation":[0,0.24375,2.4375],"name":"root4"},{"translation":[0,-0.2,3.75],"name":"root5"},{"translation":[0,-0.5,1.75],"name":"root6"},{"translation":[0,-0.0125,-2.725],"name":"root7"},{"translation":[-0.91375,0.69375,4.7875],"name":"camera2"}],"bufferViews":[{"buffer":0,"byteOffset":0,"byteLength":33984,"target":34962,"byteStride":12},{"buffer":0,"byteOffset":33984,"byteLength":33984,"target":34962,"byteStride":12},{"buffer":0,"byteOffset":67968,"byteLength":22656,"target":34962,"byteStride":8},{"buffer":0,"byteOffset":90624,"byteLength":22656,"target":34962,"byteStride":8},{"buffer":0,"byteOffset":113280,"byteLength":45312,"target":34962,"byteStride":16},{"buffer":0,"byteOffset":158592,"byteLength":5664,"target":34963},{"buffer":0,"byteOffset":164256,"byteLength":448}],"buffers":[{"byteLength":164704,"uri":"data:application/octet-stream;base64,"}],"accessors":[{"bufferView":0,"componentType":5126,"count":2832,"max":[0.2188231199979782,0.11722750216722488,0.9537674784660339],"min":[-0.2188231199979782,-0.3313356339931488,-0.6293812394142151],"type":"VEC3"},{"bufferView":1,"componentType":5126,"count":2832,"max":[1,1,1],"min":[-1,-1,-1],"type":"VEC3"},{"bufferView":2,"componentType":5126,"count":2832,"max":[0.8560148477554321,0.9222906231880188],"min":[0,0],"type":"VEC2"},{"bufferView":3,"componentType":5123,"count":2832,"max":[0,0,0,0],"min":[0,0,0,0],"type":"VEC4"},{"bufferView":4,"componentType":5126,"count":2832,"max":[0,1,0,0],"min":[0,1,0,0],"type":"VEC4"},{"bufferView":5,"componentType":5123,"count":2832,"max":[2831],"min":[0],"type":"SCALAR"},{"bufferView":6,"componentType":5126,"count":7,"max":[1,0,0.7987581491470337,0,0.3291124403476715,1,0,0,0.848888635635376,0.5022071003913879,1,0,0.13494741916656494,0,0.07924037426710129,1],"min":[0.4136098027229309,-0.436935156583786,0,0,0,-0.74624103307724,-0.5786270499229431,0,0,0,-0.16485179960727692,0,0,-3.164294958114624,0,1],"type":"MAT4"}],"materials":[{"pbrMetallicRoughness":{"metallicFactor":0,"roughnessFactor":1,"baseColorTexture":{"index":0}},"alphaMode":"MASK","alphaCutoff":0.05,"doubleSided":true}],"textures":[{"sampler":0,"source":0,"name":"lower.png"}],"samplers":[{"magFilter":9728,"minFilter":9728,"wrapS":33071,"wrapT":33071}],"images":[{"mimeType":"image/png","name":"lower.png","uri":"lower.png"}],"meshes":[{"primitives":[{"mode":4,"attributes":{"POSITION":0,"NORMAL":1,"TEXCOORD_0":2,"JOINTS_0":3,"WEIGHTS_0":4},"indices":5,"material":0}]}],"skins":[{"inverseBindMatrices":6,"joints":[6,5,4,1,0,3,2],"skeleton":6}]}