{"asset":{"version":"2.0","generator":"Blockbench 5.1.6 glTF exporter"},"scenes":[{"nodes":[7],"name":"blockbench_export"}],"scene":0,"nodes":[{"translation":[0,3,0],"name":"L_MALE_PIVOT"},{"translation":[-0.125,0,0],"name":"L_MALE","children":[0]},{"translation":[0,3,0],"name":"L_SLIM_PIVOT"},{"name":"L_SLIM","children":[2]},{"translation":[0,-3,0],"name":"INNER_L","children":[1,3]},{"rotation":[0.7517103709453943,-0.04204377698302866,0.552831557977127,0.35712897885038924],"translation":[-1.51875,-2.3625,1.65625],"name":"LEFT_ARM","children":[4]},{"name":"root","children":[5]},{"name":"root","mesh":0,"children":[6],"skin":0}],"bufferViews":[{"buffer":0,"byteOffset":0,"byteLength":30240,"target":34962,"byteStride":12},{"buffer":0,"byteOffset":30240,"byteLength":30240,"target":34962,"byteStride":12},{"buffer":0,"byteOffset":60480,"byteLength":20160,"target":34962,"byteStride":8},{"buffer":0,"byteOffset":80640,"byteLength":20160,"target":34962,"byteStride":8},{"buffer":0,"byteOffset":100800,"byteLength":40320,"target":34962,"byteStride":16},{"buffer":0,"byteOffset":141120,"byteLength":5088,"target":34963},{"buffer":0,"byteOffset":146208,"byteLength":448}],"buffers":[{"byteLength":146656,"uri":"data:application/octet-stream;base64,"}],"accessors":[{"bufferView":0,"componentType":5126,"count":2520,"max":[0.20450125634670258,0.11831937730312347,0.953751266002655],"min":[-0.20450125634670258,-0.3491950035095215,-0.6236369013786316],"type":"VEC3"},{"bufferView":1,"componentType":5126,"count":2520,"max":[1,1,1],"min":[-1,-1,-1],"type":"VEC3"},{"bufferView":2,"componentType":5126,"count":2520,"max":[0.8550070524215698,0.8318468928337097],"min":[0,0],"type":"VEC2"},{"bufferView":3,"componentType":5123,"count":2520,"max":[0,0,0,0],"min":[0,0,0,0],"type":"VEC4"},{"bufferView":4,"componentType":5126,"count":2520,"max":[0,1,0,0],"min":[0,1,0,0],"type":"VEC4"},{"bufferView":5,"componentType":5123,"count":2544,"max":[2519],"min":[0],"type":"SCALAR"},{"bufferView":6,"componentType":5126,"count":7,"max":[1,0,0.8011083006858826,0,0.3316548466682434,1,0,0,0.8611685037612915,0.4904288649559021,1,0,0.06727583706378937,0,0.059792324900627136,1],"min":[0.38521918654441833,-0.45807382464408875,0,0,0,-0.7413824200630188,-0.5834013819694519,0,0,0,-0.1336723268032074,0,-0.05772416666150093,-3.259488344192505,0,1],"type":"MAT4"}],"materials":[{"pbrMetallicRoughness":{"metallicFactor":0,"roughnessFactor":1,"baseColorTexture":{"index":0}},"alphaMode":"MASK","alphaCutoff":0.05,"doubleSided":true}],"textures":[{"sampler":0,"source":0,"name":"lower_new.png"}],"samplers":[{"magFilter":9728,"minFilter":9728,"wrapS":33071,"wrapT":33071}],"images":[{"mimeType":"image/png","name":"lower_new.png","uri":"lower_new.png"}],"meshes":[{"primitives":[{"mode":4,"attributes":{"POSITION":0,"NORMAL":1,"TEXCOORD_0":2,"JOINTS_0":3,"WEIGHTS_0":4},"indices":5,"material":0}]}],"skins":[{"inverseBindMatrices":6,"joints":[6,5,4,1,0,3,2],"skeleton":6}]}