{"asset":{"version":"2.0","generator":"Blockbench 5.1.5 glTF exporter"},"scenes":[{"nodes":[1],"name":"blockbench_export"}],"scene":0,"nodes":[{"name":"root"},{"name":"root","mesh":0,"children":[0],"skin":0}],"bufferViews":[{"buffer":0,"byteOffset":0,"byteLength":16272,"target":34962,"byteStride":12},{"buffer":0,"byteOffset":16272,"byteLength":16272,"target":34962,"byteStride":12},{"buffer":0,"byteOffset":32544,"byteLength":10848,"target":34962,"byteStride":8},{"buffer":0,"byteOffset":43392,"byteLength":10848,"target":34962,"byteStride":8},{"buffer":0,"byteOffset":54240,"byteLength":21696,"target":34962,"byteStride":16},{"buffer":0,"byteOffset":75936,"byteLength":2712,"target":34963},{"buffer":0,"byteOffset":78648,"byteLength":64}],"buffers":[{"byteLength":78712,"uri":"data:application/octet-stream;base64,"}],"accessors":[{"bufferView":0,"componentType":5126,"count":1356,"max":[0.14993000030517578,0.220741868019104,0.3975450098514557],"min":[-0.14993000030517578,-0.8325381278991699,-0.2934562563896179],"type":"VEC3"},{"bufferView":1,"componentType":5126,"count":1356,"max":[1,1,1],"min":[-1,-0.9984169602394104,-0.9995379447937012],"type":"VEC3"},{"bufferView":2,"componentType":5126,"count":1356,"max":[0.640625,0.734375],"min":[0,0],"type":"VEC2"},{"bufferView":3,"componentType":5123,"count":1356,"max":[0,0,0,0],"min":[0,0,0,0],"type":"VEC4"},{"bufferView":4,"componentType":5126,"count":1356,"max":[0,1,0,0],"min":[0,1,0,0],"type":"VEC4"},{"bufferView":5,"componentType":5123,"count":1356,"max":[1355],"min":[0],"type":"SCALAR"},{"bufferView":6,"componentType":5126,"count":1,"max":[1,0,0,0,0,1,0,0,0,0,1,0,0,0,0,1],"min":[1,0,0,0,0,1,0,0,0,0,1,0,0,0,0,1],"type":"MAT4"}],"materials":[{"pbrMetallicRoughness":{"metallicFactor":0,"roughnessFactor":1,"baseColorTexture":{"index":0}},"alphaMode":"MASK","alphaCutoff":0.05,"doubleSided":true}],"textures":[{"sampler":0,"source":0,"name":"ak_polyer_grip.png"}],"samplers":[{"magFilter":9728,"minFilter":9728,"wrapS":33071,"wrapT":33071}],"images":[{"mimeType":"image/png","name":"ak_polyer_grip.png","uri":"ak_polyer_grip.png"}],"meshes":[{"primitives":[{"mode":4,"attributes":{"POSITION":0,"NORMAL":1,"TEXCOORD_0":2,"JOINTS_0":3,"WEIGHTS_0":4},"indices":5,"material":0}]}],"skins":[{"inverseBindMatrices":6,"joints":[0],"skeleton":0}]}