{"asset":{"version":"2.0","generator":"Blockbench 5.1.4 glTF exporter"},"scenes":[{"nodes":[2],"name":"blockbench_export"}],"scene":0,"nodes":[{"translation":[0,0,-0.54375],"name":"MUZZLE_FLASH"},{"name":"root","children":[0]},{"name":"root","mesh":0,"children":[1],"skin":0}],"bufferViews":[{"buffer":0,"byteOffset":0,"byteLength":16416,"target":34962,"byteStride":12},{"buffer":0,"byteOffset":16416,"byteLength":16416,"target":34962,"byteStride":12},{"buffer":0,"byteOffset":32832,"byteLength":10944,"target":34962,"byteStride":8},{"buffer":0,"byteOffset":43776,"byteLength":10944,"target":34962,"byteStride":8},{"buffer":0,"byteOffset":54720,"byteLength":21888,"target":34962,"byteStride":16},{"buffer":0,"byteOffset":76608,"byteLength":2736,"target":34963},{"buffer":0,"byteOffset":79344,"byteLength":128}],"buffers":[{"byteLength":79472,"uri":"data:application/octet-stream;base64,"}],"accessors":[{"bufferView":0,"componentType":5126,"count":1368,"max":[0.13176800310611725,0.13176800310611725,0.04124999791383743],"min":[-0.13176800310611725,-0.13176800310611725,-0.6787500381469727],"type":"VEC3"},{"bufferView":1,"componentType":5126,"count":1368,"max":[0.923879861831665,0.9238793253898621,1],"min":[-0.9238793253898621,-0.9238812923431396,-1],"type":"VEC3"},{"bufferView":2,"componentType":5126,"count":1368,"max":[0.6824203133583069,0.71875],"min":[0.001941406400874257,0],"type":"VEC2"},{"bufferView":3,"componentType":5123,"count":1368,"max":[0,0,0,0],"min":[0,0,0,0],"type":"VEC4"},{"bufferView":4,"componentType":5126,"count":1368,"max":[0,1,0,0],"min":[0,1,0,0],"type":"VEC4"},{"bufferView":5,"componentType":5123,"count":1368,"max":[1367],"min":[0],"type":"SCALAR"},{"bufferView":6,"componentType":5126,"count":2,"max":[1,0,0,0,0,1,0,0,0,0,1,0,0,0,0.543749988079071,1],"min":[1,0,0,0,0,1,0,0,0,0,1,0,0,0,0,1],"type":"MAT4"}],"materials":[{"pbrMetallicRoughness":{"metallicFactor":0,"roughnessFactor":1,"baseColorTexture":{"index":0}},"alphaMode":"MASK","alphaCutoff":0.05,"doubleSided":true}],"textures":[{"sampler":0,"source":0,"name":"ar15_muzzle_brake"}],"samplers":[{"magFilter":9728,"minFilter":9728,"wrapS":33071,"wrapT":33071}],"images":[{"mimeType":"image/png","name":"ar15_muzzle_brake.png","uri":"ar15_muzzle_brake.png"}],"meshes":[{"primitives":[{"mode":4,"attributes":{"POSITION":0,"NORMAL":1,"TEXCOORD_0":2,"JOINTS_0":3,"WEIGHTS_0":4},"indices":5,"material":0}]}],"skins":[{"inverseBindMatrices":6,"joints":[1,0],"skeleton":1}]}