{"asset":{"version":"2.0","generator":"Blockbench 5.0.7 glTF exporter"},"scenes":[{"nodes":[1],"name":"blockbench_export"}],"scene":0,"nodes":[{"name":"root"},{"name":"root","mesh":0,"children":[0],"skin":0}],"bufferViews":[{"buffer":0,"byteOffset":0,"byteLength":77688,"target":34962,"byteStride":12},{"buffer":0,"byteOffset":77688,"byteLength":77688,"target":34962,"byteStride":12},{"buffer":0,"byteOffset":155376,"byteLength":51792,"target":34962,"byteStride":8},{"buffer":0,"byteOffset":207168,"byteLength":51792,"target":34962,"byteStride":8},{"buffer":0,"byteOffset":258960,"byteLength":103584,"target":34962,"byteStride":16},{"buffer":0,"byteOffset":362544,"byteLength":12948,"target":34963},{"buffer":0,"byteOffset":375492,"byteLength":64}],"buffers":[{"byteLength":375556,"uri":"data:application/octet-stream;base64,"}],"accessors":[{"bufferView":0,"componentType":5126,"count":6474,"max":[0.18780624866485596,0.19264687597751617,1.3929237127304077],"min":[-0.18780624866485596,-1.1763349771499634,-0.3213512599468231],"type":"VEC3"},{"bufferView":1,"componentType":5126,"count":6474,"max":[1,1,1],"min":[-1,-1,-1],"type":"VEC3"},{"bufferView":2,"componentType":5126,"count":6474,"max":[0.6302597522735596,0.6328125],"min":[0,0],"type":"VEC2"},{"bufferView":3,"componentType":5123,"count":6474,"max":[0,0,0,0],"min":[0,0,0,0],"type":"VEC4"},{"bufferView":4,"componentType":5126,"count":6474,"max":[0,1,0,0],"min":[0,1,0,0],"type":"VEC4"},{"bufferView":5,"componentType":5123,"count":6474,"max":[6473],"min":[0],"type":"SCALAR"},{"bufferView":6,"componentType":5126,"count":1,"max":[1,0,0,0,0,1,0,0,0,0,1,0,0,0,0,1],"min":[1,0,0,0,0,1,0,0,0,0,1,0,0,0,0,1],"type":"MAT4"}],"materials":[{"pbrMetallicRoughness":{"metallicFactor":0,"roughnessFactor":1,"baseColorTexture":{"index":0}},"alphaMode":"MASK","alphaCutoff":0.05,"doubleSided":true}],"textures":[{"sampler":0,"source":0,"name":"ar_marine_stock.png"}],"samplers":[{"magFilter":9728,"minFilter":9728,"wrapS":33071,"wrapT":33071}],"images":[{"mimeType":"image/png","name":"ar_marine_stock.png","uri":"ar_marine_stock.png"}],"meshes":[{"primitives":[{"mode":4,"attributes":{"POSITION":0,"NORMAL":1,"TEXCOORD_0":2,"JOINTS_0":3,"WEIGHTS_0":4},"indices":5,"material":0}]}],"skins":[{"inverseBindMatrices":6,"joints":[0],"skeleton":0}]}