{"asset":{"version":"2.0","generator":"Blockbench 5.2.0 glTF exporter"},"scenes":[{"nodes":[2],"name":"blockbench_export"}],"scene":0,"nodes":[{"translation":[0,0.0550875,0.78125],"name":"STOCK"},{"name":"root","children":[0]},{"name":"root","mesh":0,"children":[1],"skin":0}],"bufferViews":[{"buffer":0,"byteOffset":0,"byteLength":33480,"target":34962,"byteStride":12},{"buffer":0,"byteOffset":33480,"byteLength":33480,"target":34962,"byteStride":12},{"buffer":0,"byteOffset":66960,"byteLength":22320,"target":34962,"byteStride":8},{"buffer":0,"byteOffset":89280,"byteLength":22320,"target":34962,"byteStride":8},{"buffer":0,"byteOffset":111600,"byteLength":44640,"target":34962,"byteStride":16},{"buffer":0,"byteOffset":156240,"byteLength":5700,"target":34963},{"buffer":0,"byteOffset":161940,"byteLength":128}],"buffers":[{"byteLength":162068,"uri":"data:application/octet-stream;base64,"}],"accessors":[{"bufferView":0,"componentType":5126,"count":2790,"max":[0.17869624495506287,0.23377999663352966,1.6656299829483032],"min":[-0.19030188024044037,-0.28274813294410706,-0.3672981262207031],"type":"VEC3"},{"bufferView":1,"componentType":5126,"count":2790,"max":[1,1,1],"min":[-1,-1,-1],"type":"VEC3"},{"bufferView":2,"componentType":5126,"count":2790,"max":[0.701464056968689,0.65625],"min":[0,0],"type":"VEC2"},{"bufferView":3,"componentType":5123,"count":2790,"max":[0,0,0,0],"min":[0,0,0,0],"type":"VEC4"},{"bufferView":4,"componentType":5126,"count":2790,"max":[0,1,0,0],"min":[0,1,0,0],"type":"VEC4"},{"bufferView":5,"componentType":5123,"count":2850,"max":[2789],"min":[0],"type":"SCALAR"},{"bufferView":6,"componentType":5126,"count":2,"max":[1,0,0,0,0,1,0,0,0,0,1,0,0,0,0,1],"min":[1,0,0,0,0,1,0,0,0,0,1,0,0,-0.05508749932050705,-0.78125,1],"type":"MAT4"}],"materials":[{"pbrMetallicRoughness":{"metallicFactor":0,"roughnessFactor":1,"baseColorTexture":{"index":0}},"alphaMode":"MASK","alphaCutoff":0.05,"doubleSided":true}],"textures":[{"sampler":0,"source":0,"name":"ar_stock_adapter_ak74m.png"}],"samplers":[{"magFilter":9728,"minFilter":9728,"wrapS":33071,"wrapT":33071}],"images":[{"mimeType":"image/png","name":"ar_stock_adapter_ak74m.png","uri":"ar_stock_adapter_ak74m.png"}],"meshes":[{"primitives":[{"mode":4,"attributes":{"POSITION":0,"NORMAL":1,"TEXCOORD_0":2,"JOINTS_0":3,"WEIGHTS_0":4},"indices":5,"material":0}]}],"skins":[{"inverseBindMatrices":6,"joints":[1,0],"skeleton":1}]}