{"asset":{"version":"2.0","generator":"Blockbench 5.1.5 glTF exporter"},"scenes":[{"nodes":[13],"name":"blockbench_export"}],"scene":0,"nodes":[{"translation":[0,3,0],"name":"L_MALE_PIVOT"},{"translation":[-0.125,0,0],"name":"L_MALE","children":[0]},{"translation":[0,3,0],"name":"L_SLIM_PIVOT"},{"name":"L_SLIM","children":[2]},{"translation":[0,-3,0],"name":"INNER_L","children":[1,3]},{"name":"LEFT_ARM","children":[4]},{"translation":[0,3,0],"name":"R_MALE_PIVOT"},{"translation":[0.125,0,0],"name":"R_MALE","children":[6]},{"translation":[0,3,0],"name":"R_SLIM_PIVOT"},{"name":"R_SLIM","children":[8]},{"translation":[0,-3,0],"name":"INNER_R","children":[7,9]},{"name":"RIGHT_ARM","children":[10]},{"name":"root","children":[5,11]},{"name":"root","mesh":0,"children":[12],"skin":0}],"bufferViews":[{"buffer":0,"byteOffset":0,"byteLength":2304,"target":34962,"byteStride":12},{"buffer":0,"byteOffset":2304,"byteLength":2304,"target":34962,"byteStride":12},{"buffer":0,"byteOffset":4608,"byteLength":1536,"target":34962,"byteStride":8},{"buffer":0,"byteOffset":6144,"byteLength":1536,"target":34962,"byteStride":8},{"buffer":0,"byteOffset":7680,"byteLength":3072,"target":34962,"byteStride":16},{"buffer":0,"byteOffset":10752,"byteLength":576,"target":34963},{"buffer":0,"byteOffset":11328,"byteLength":832}],"buffers":[{"byteLength":12160,"uri":"data:application/octet-stream;base64,"}],"accessors":[{"bufferView":0,"componentType":5126,"count":192,"max":[0.7250000238418579,0,0.606249988079071],"min":[-0.7250000238418579,-3,-0.59375],"type":"VEC3"},{"bufferView":1,"componentType":5126,"count":192,"max":[1,1,1],"min":[-1,-1,-1],"type":"VEC3"},{"bufferView":2,"componentType":5126,"count":192,"max":[1,1],"min":[0.5,0.25],"type":"VEC2"},{"bufferView":3,"componentType":5123,"count":192,"max":[0,11,0,0],"min":[0,3,0,0],"type":"VEC4"},{"bufferView":4,"componentType":5126,"count":192,"max":[0,1,0,0],"min":[0,1,0,0],"type":"VEC4"},{"bufferView":5,"componentType":5123,"count":288,"max":[191],"min":[0],"type":"SCALAR"},{"bufferView":6,"componentType":5126,"count":13,"max":[1,0,0,0,0,1,0,0,0,0,1,0,0.125,3,0,1],"min":[1,0,0,0,0,1,0,0,0,0,1,0,-0.125,0,0,1],"type":"MAT4"}],"materials":[{"pbrMetallicRoughness":{"metallicFactor":0,"roughnessFactor":1,"baseColorTexture":{"index":0}},"alphaMode":"MASK","alphaCutoff":0.05,"doubleSided":true}],"textures":[{"sampler":0,"source":0,"name":"steve.png"}],"samplers":[{"magFilter":9728,"minFilter":9728,"wrapS":33071,"wrapT":33071}],"images":[{"mimeType":"image/png","name":"steve.png","uri":"steve.png"}],"meshes":[{"primitives":[{"mode":4,"attributes":{"POSITION":0,"NORMAL":1,"TEXCOORD_0":2,"JOINTS_0":3,"WEIGHTS_0":4},"indices":5,"material":0}]}],"skins":[{"inverseBindMatrices":6,"joints":[12,5,4,1,0,3,2,11,10,7,6,9,8],"skeleton":12}]}