{"asset":{"version":"2.0","generator":"Blockbench 5.1.6 glTF exporter"},"scenes":[{"nodes":[2],"name":"blockbench_export"}],"scene":0,"nodes":[{"translation":[0,-0.106325,0],"name":"RAIL"},{"name":"root","children":[0]},{"name":"root","mesh":0,"children":[1],"skin":0}],"bufferViews":[{"buffer":0,"byteOffset":0,"byteLength":18420,"target":34962,"byteStride":12},{"buffer":0,"byteOffset":18420,"byteLength":18420,"target":34962,"byteStride":12},{"buffer":0,"byteOffset":36840,"byteLength":12280,"target":34962,"byteStride":8},{"buffer":0,"byteOffset":49120,"byteLength":12280,"target":34962,"byteStride":8},{"buffer":0,"byteOffset":61400,"byteLength":24560,"target":34962,"byteStride":16},{"buffer":0,"byteOffset":85960,"byteLength":3116,"target":34963},{"buffer":0,"byteOffset":89076,"byteLength":128}],"buffers":[{"byteLength":89204,"uri":"data:application/octet-stream;base64,"}],"accessors":[{"bufferView":0,"componentType":5126,"count":1535,"max":[0.10894375294446945,0,0.7527787685394287],"min":[-0.10105624794960022,-0.10632625222206116,-0.7456287741661072],"type":"VEC3"},{"bufferView":1,"componentType":5126,"count":1535,"max":[1,1,1],"min":[-1,-1,-1],"type":"VEC3"},{"bufferView":2,"componentType":5126,"count":1535,"max":[0.96875,0.7492062449455261],"min":[0.00937500037252903,0],"type":"VEC2"},{"bufferView":3,"componentType":5123,"count":1535,"max":[0,0,0,0],"min":[0,0,0,0],"type":"VEC4"},{"bufferView":4,"componentType":5126,"count":1535,"max":[0,1,0,0],"min":[0,1,0,0],"type":"VEC4"},{"bufferView":5,"componentType":5123,"count":1557,"max":[1534],"min":[0],"type":"SCALAR"},{"bufferView":6,"componentType":5126,"count":2,"max":[1,0,0,0,0,1,0,0,0,0,1,0,0,0.10632500052452087,0,1],"min":[1,0,0,0,0,1,0,0,0,0,1,0,0,0,0,1],"type":"MAT4"}],"materials":[{"pbrMetallicRoughness":{"metallicFactor":0,"roughnessFactor":1,"baseColorTexture":{"index":0}},"alphaMode":"MASK","alphaCutoff":0.05,"doubleSided":true}],"textures":[{"sampler":0,"source":0,"name":"texture.png"}],"samplers":[{"magFilter":9728,"minFilter":9728,"wrapS":33071,"wrapT":33071}],"images":[{"mimeType":"image/png","name":"texture.png","uri":"texture.png"}],"meshes":[{"primitives":[{"mode":4,"attributes":{"POSITION":0,"NORMAL":1,"TEXCOORD_0":2,"JOINTS_0":3,"WEIGHTS_0":4},"indices":5,"material":0}]}],"skins":[{"inverseBindMatrices":6,"joints":[1,0],"skeleton":1}]}