{"asset":{"version":"2.0","generator":"Blockbench 5.1.6 glTF exporter"},"scenes":[{"nodes":[10],"name":"blockbench_export"}],"scene":0,"nodes":[{"translation":[0,3,0],"name":"L_MALE_PIVOT"},{"translation":[-0.125,0,0],"name":"L_MALE","children":[0]},{"translation":[0,3,0],"name":"L_SLIM_PIVOT"},{"name":"L_SLIM","children":[2]},{"translation":[0,-3,0],"name":"INNER_L","children":[1,3]},{"rotation":[0.7517103709453943,-0.04204377698302866,0.552831557977127,0.35712897885038924],"translation":[-1.51875,-2.3625,1.65625],"name":"LEFT_ARM","children":[4]},{"translation":[0,-0.2535625,0.101296875],"name":"RAIL_LOWER"},{"rotation":[0,0,-0.7071067811865475,0.7071067811865476],"translation":[-0.172025,0,0.18818125],"name":"RAIL_MOUNT_LEFT"},{"rotation":[0,0,0.7071067811865475,0.7071067811865476],"translation":[0.172025,0,0.18818125],"name":"RAIL_MOUNT_RIGHT"},{"name":"root","children":[5,6,7,8]},{"name":"root","mesh":0,"children":[9],"skin":0}],"bufferViews":[{"buffer":0,"byteOffset":0,"byteLength":129024,"target":34962,"byteStride":12},{"buffer":0,"byteOffset":129024,"byteLength":129024,"target":34962,"byteStride":12},{"buffer":0,"byteOffset":258048,"byteLength":86016,"target":34962,"byteStride":8},{"buffer":0,"byteOffset":344064,"byteLength":86016,"target":34962,"byteStride":8},{"buffer":0,"byteOffset":430080,"byteLength":172032,"target":34962,"byteStride":16},{"buffer":0,"byteOffset":602112,"byteLength":21504,"target":34963},{"buffer":0,"byteOffset":623616,"byteLength":640}],"buffers":[{"byteLength":624256,"uri":"data:application/octet-stream;base64,"}],"accessors":[{"bufferView":0,"componentType":5126,"count":10752,"max":[0.18617874383926392,0.1125468760728836,1.009878158569336],"min":[-0.18617874383926392,-0.2674168646335602,-0.621931254863739],"type":"VEC3"},{"bufferView":1,"componentType":5126,"count":10752,"max":[1,1,1],"min":[-1,-1,-1],"type":"VEC3"},{"bufferView":2,"componentType":5126,"count":10752,"max":[0.8674781322479248,0.875],"min":[0,0],"type":"VEC2"},{"bufferView":3,"componentType":5123,"count":10752,"max":[0,0,0,0],"min":[0,0,0,0],"type":"VEC4"},{"bufferView":4,"componentType":5126,"count":10752,"max":[0,1,0,0],"min":[0,1,0,0],"type":"VEC4"},{"bufferView":5,"componentType":5123,"count":10752,"max":[10751],"min":[0],"type":"SCALAR"},{"bufferView":6,"componentType":5126,"count":10,"max":[1,1,0.8011083006858826,0,1,1,0,0,0.8611685037612915,0.4904288649559021,1,0,0.06727583706378937,0.2535625100135803,0.059792324900627136,1],"min":[2.220446049250313e-16,-1,0,0,-1,-0.7413824200630188,-0.5834013819694519,0,0,0,-0.1336723268032074,0,-0.05772416666150093,-3.259488344192505,-0.18818125128746033,1],"type":"MAT4"}],"materials":[{"pbrMetallicRoughness":{"metallicFactor":0,"roughnessFactor":1,"baseColorTexture":{"index":0}},"alphaMode":"MASK","alphaCutoff":0.05,"doubleSided":true}],"textures":[{"sampler":0,"source":0,"name":"texture.png"}],"samplers":[{"magFilter":9728,"minFilter":9728,"wrapS":33071,"wrapT":33071}],"images":[{"mimeType":"image/png","name":"texture.png","uri":"texture.png"}],"meshes":[{"primitives":[{"mode":4,"attributes":{"POSITION":0,"NORMAL":1,"TEXCOORD_0":2,"JOINTS_0":3,"WEIGHTS_0":4},"indices":5,"material":0}]}],"skins":[{"inverseBindMatrices":6,"joints":[9,5,4,1,0,3,2,6,7,8],"skeleton":9}]}