{"asset":{"version":"2.0","generator":"Blockbench 5.1.6 glTF exporter"},"scenes":[{"nodes":[2],"name":"blockbench_export"}],"scene":0,"nodes":[{"translation":[0.23924375,0.75163125,-0.2144625],"name":"RAIL"},{"name":"root","children":[0]},{"name":"root","mesh":0,"children":[1],"skin":0}],"bufferViews":[{"buffer":0,"byteOffset":0,"byteLength":105660,"target":34962,"byteStride":12},{"buffer":0,"byteOffset":105660,"byteLength":105660,"target":34962,"byteStride":12},{"buffer":0,"byteOffset":211320,"byteLength":70440,"target":34962,"byteStride":8},{"buffer":0,"byteOffset":281760,"byteLength":70440,"target":34962,"byteStride":8},{"buffer":0,"byteOffset":352200,"byteLength":140880,"target":34962,"byteStride":16},{"buffer":0,"byteOffset":493080,"byteLength":17612,"target":34963},{"buffer":0,"byteOffset":510692,"byteLength":128}],"buffers":[{"byteLength":510820,"uri":"data:application/octet-stream;base64,"}],"accessors":[{"bufferView":0,"componentType":5126,"count":8805,"max":[0.34424376487731934,0.7516318559646606,0.7855343818664551],"min":[-0.12057249993085861,-0.15782125294208527,-1.214465618133545],"type":"VEC3"},{"bufferView":1,"componentType":5126,"count":8805,"max":[1,1,1],"min":[-1,-1,-1],"type":"VEC3"},{"bufferView":2,"componentType":5126,"count":8805,"max":[0.90625,0.8397062420845032],"min":[0,0],"type":"VEC2"},{"bufferView":3,"componentType":5123,"count":8805,"max":[0,0,0,0],"min":[0,0,0,0],"type":"VEC4"},{"bufferView":4,"componentType":5126,"count":8805,"max":[0,1,0,0],"min":[0,1,0,0],"type":"VEC4"},{"bufferView":5,"componentType":5123,"count":8805,"max":[8804],"min":[0],"type":"SCALAR"},{"bufferView":6,"componentType":5126,"count":2,"max":[1,0,0,0,0,1,0,0,0,0,1,0,0,0,0.2144625037908554,1],"min":[1,0,0,0,0,1,0,0,0,0,1,0,-0.239243745803833,-0.7516312599182129,0,1],"type":"MAT4"}],"materials":[{"pbrMetallicRoughness":{"metallicFactor":0,"roughnessFactor":1,"baseColorTexture":{"index":0}},"alphaMode":"MASK","alphaCutoff":0.05,"doubleSided":true}],"textures":[{"sampler":0,"source":0,"name":"b13_braket.png"}],"samplers":[{"magFilter":9728,"minFilter":9728,"wrapS":33071,"wrapT":33071}],"images":[{"mimeType":"image/png","name":"b13_bracket.png","uri":"b13_bracket.png"}],"meshes":[{"primitives":[{"mode":4,"attributes":{"POSITION":0,"NORMAL":1,"TEXCOORD_0":2,"JOINTS_0":3,"WEIGHTS_0":4},"indices":5,"material":0}]}],"skins":[{"inverseBindMatrices":6,"joints":[1,0],"skeleton":1}]}