{"asset":{"version":"2.0","generator":"Blockbench 5.1.6 glTF exporter"},"scenes":[{"nodes":[2],"name":"blockbench_export"}],"scene":0,"nodes":[{"translation":[0,0.10740625,-0.0971375],"name":"RAIL_UPPER"},{"name":"root","children":[0]},{"name":"root","mesh":0,"children":[1],"skin":0}],"bufferViews":[{"buffer":0,"byteOffset":0,"byteLength":101376,"target":34962,"byteStride":12},{"buffer":0,"byteOffset":101376,"byteLength":101376,"target":34962,"byteStride":12},{"buffer":0,"byteOffset":202752,"byteLength":67584,"target":34962,"byteStride":8},{"buffer":0,"byteOffset":270336,"byteLength":67584,"target":34962,"byteStride":8},{"buffer":0,"byteOffset":337920,"byteLength":135168,"target":34962,"byteStride":16},{"buffer":0,"byteOffset":473088,"byteLength":16896,"target":34963},{"buffer":0,"byteOffset":489984,"byteLength":128}],"buffers":[{"byteLength":490112,"uri":"data:application/octet-stream;base64,"}],"accessors":[{"bufferView":0,"componentType":5126,"count":8448,"max":[0.18590812385082245,0.10740625113248825,0.38286375999450684],"min":[-0.18590812385082245,-0.37919187545776367,-0.5771362781524658],"type":"VEC3"},{"bufferView":1,"componentType":5126,"count":8448,"max":[1,1,1],"min":[-1,-1,-1],"type":"VEC3"},{"bufferView":2,"componentType":5126,"count":8448,"max":[0.5894101858139038,0.609375],"min":[0,0],"type":"VEC2"},{"bufferView":3,"componentType":5123,"count":8448,"max":[0,0,0,0],"min":[0,0,0,0],"type":"VEC4"},{"bufferView":4,"componentType":5126,"count":8448,"max":[0,1,0,0],"min":[0,1,0,0],"type":"VEC4"},{"bufferView":5,"componentType":5123,"count":8448,"max":[8447],"min":[0],"type":"SCALAR"},{"bufferView":6,"componentType":5126,"count":2,"max":[1,0,0,0,0,1,0,0,0,0,1,0,0,0,0.09713750332593918,1],"min":[1,0,0,0,0,1,0,0,0,0,1,0,0,-0.10740625113248825,0,1],"type":"MAT4"}],"materials":[{"pbrMetallicRoughness":{"metallicFactor":0,"roughnessFactor":1,"baseColorTexture":{"index":0}},"alphaMode":"MASK","alphaCutoff":0.05,"doubleSided":true}],"textures":[{"sampler":0,"source":0,"name":"texture.png"}],"samplers":[{"magFilter":9728,"minFilter":9728,"wrapS":33071,"wrapT":33071}],"images":[{"mimeType":"image/png","name":"texture.png","uri":"texture.png"}],"meshes":[{"primitives":[{"mode":4,"attributes":{"POSITION":0,"NORMAL":1,"TEXCOORD_0":2,"JOINTS_0":3,"WEIGHTS_0":4},"indices":5,"material":0}]}],"skins":[{"inverseBindMatrices":6,"joints":[1,0],"skeleton":1}]}