{"asset":{"version":"2.0","generator":"Blockbench 4.12.6 glTF exporter"},"scenes":[{"nodes":[2],"name":"blockbench_export"}],"scene":0,"nodes":[{"rotation":[0,0,-0.3826834323650898,0.9238795325112867],"translation":[0.34241875,0.0859,-0.00654375],"name":"SIGHT"},{"name":"root","children":[0]},{"name":"root","mesh":0,"children":[1],"skin":0}],"bufferViews":[{"buffer":0,"byteOffset":0,"byteLength":9384,"target":34962,"byteStride":12},{"buffer":0,"byteOffset":9384,"byteLength":9384,"target":34962,"byteStride":12},{"buffer":0,"byteOffset":18768,"byteLength":6256,"target":34962,"byteStride":8},{"buffer":0,"byteOffset":25024,"byteLength":6256,"target":34962,"byteStride":8},{"buffer":0,"byteOffset":31280,"byteLength":12512,"target":34962,"byteStride":16},{"buffer":0,"byteOffset":43792,"byteLength":1632,"target":34963},{"buffer":0,"byteOffset":45424,"byteLength":128}],"buffers":[{"byteLength":45552,"uri":"data:application/octet-stream;base64,"}],"accessors":[{"bufferView":0,"componentType":5126,"count":782,"max":[0.39722999930381775,0.14068937301635742,0.26845812797546387],"min":[-0.18450000882148743,-0.06062499061226845,-0.2815418839454651],"type":"VEC3"},{"bufferView":1,"componentType":5126,"count":782,"max":[1,1,1],"min":[-1,-1,-1],"type":"VEC3"},{"bufferView":2,"componentType":5126,"count":782,"max":[0.557869553565979,0.546875],"min":[0,0],"type":"VEC2"},{"bufferView":3,"componentType":5123,"count":782,"max":[0,0,0,0],"min":[0,0,0,0],"type":"VEC4"},{"bufferView":4,"componentType":5126,"count":782,"max":[0,1,0,0],"min":[0,1,0,0],"type":"VEC4"},{"bufferView":5,"componentType":5123,"count":816,"max":[781],"min":[0],"type":"SCALAR"},{"bufferView":6,"componentType":5126,"count":2,"max":[1,0.7071067690849304,0,0,0,1,0,0,0,0,1,0,0,0,0.0065437499433755875,1],"min":[0.7071067690849304,0,0,0,-0.7071067690849304,0.7071067690849304,0,0,0,0,1,0,-0.18138614296913147,-0.3028670847415924,0,1],"type":"MAT4"}],"materials":[{"pbrMetallicRoughness":{"metallicFactor":0,"roughnessFactor":1,"baseColorTexture":{"index":0}},"alphaMode":"MASK","alphaCutoff":0.05,"doubleSided":true}],"textures":[{"sampler":0,"source":0,"name":"canted_rail.png"}],"samplers":[{"magFilter":9728,"minFilter":9728,"wrapS":33071,"wrapT":33071}],"images":[{"mimeType":"image/png","name":"canted_rail.png","uri":"canted_rail.png"}],"meshes":[{"primitives":[{"mode":4,"attributes":{"POSITION":0,"NORMAL":1,"TEXCOORD_0":2,"JOINTS_0":3,"WEIGHTS_0":4},"indices":5,"material":0}]}],"skins":[{"inverseBindMatrices":6,"joints":[1,0],"skeleton":1}]}