{"asset":{"version":"2.0","generator":"Blockbench 5.1.4 glTF exporter"},"scenes":[{"nodes":[7],"name":"blockbench_export"}],"scene":0,"nodes":[{"translation":[0,0,1.0625],"name":"main"},{"translation":[0,0,1.0625],"name":"lower"},{"translation":[-0.125,0,0],"name":"L_MALE"},{"name":"L_SLIM"},{"translation":[0,-3.0000000000000004,0],"name":"INNER_L","children":[2,3]},{"rotation":[0.7547849471432071,-0.04064969754462894,0.5486226543821733,0.35729605197121156],"translation":[-1.469864375,-2.3558925,1.405295625],"name":"LEFT_ARM","children":[4]},{"name":"root","children":[0,1,5]},{"name":"root","mesh":0,"children":[6],"skin":0}],"bufferViews":[{"buffer":0,"byteOffset":0,"byteLength":83760,"target":34962,"byteStride":12},{"buffer":0,"byteOffset":83760,"byteLength":83760,"target":34962,"byteStride":12},{"buffer":0,"byteOffset":167520,"byteLength":55840,"target":34962,"byteStride":8},{"buffer":0,"byteOffset":223360,"byteLength":55840,"target":34962,"byteStride":8},{"buffer":0,"byteOffset":279200,"byteLength":111680,"target":34962,"byteStride":16},{"buffer":0,"byteOffset":390880,"byteLength":13992,"target":34963},{"buffer":0,"byteOffset":404872,"byteLength":448}],"buffers":[{"byteLength":405320,"uri":"data:application/octet-stream;base64,"}],"accessors":[{"bufferView":0,"componentType":5126,"count":6980,"max":[0.3133237361907959,0.3388218879699707,1.0722962617874146],"min":[-0.3133237361907959,-0.3388218879699707,-0.8104950189590454],"type":"VEC3"},{"bufferView":1,"componentType":5126,"count":6980,"max":[1,1,1],"min":[-1,-1,-1],"type":"VEC3"},{"bufferView":2,"componentType":5126,"count":6980,"max":[0.9262090921401978,0.9634106159210205],"min":[0,0],"type":"VEC2"},{"bufferView":3,"componentType":5123,"count":6980,"max":[0,2,0,0],"min":[0,1,0,0],"type":"VEC4"},{"bufferView":4,"componentType":5126,"count":6980,"max":[0,1,0,0],"min":[0,1,0,0],"type":"VEC4"},{"bufferView":5,"componentType":5123,"count":6996,"max":[6979],"min":[0],"type":"SCALAR"},{"bufferView":6,"componentType":5126,"count":7,"max":[1,0,0.7991362810134888,0,0.33067786693573,1,0,0,0.8572322130203247,0.494760662317276,1,0,0.2795639932155609,0,0,1],"min":[0.3947215676307678,-0.45340496301651,0,0,0,-0.7413742542266846,-0.583966076374054,0,0,0,-0.14270542562007904,0,0,-3.1083269119262695,-1.0625,1],"type":"MAT4"}],"materials":[{"pbrMetallicRoughness":{"metallicFactor":0,"roughnessFactor":1,"baseColorTexture":{"index":0}},"alphaMode":"MASK","alphaCutoff":0.05,"doubleSided":true}],"textures":[{"sampler":0,"source":0,"name":"m4a1_handguard.png"}],"samplers":[{"magFilter":9728,"minFilter":9728,"wrapS":33071,"wrapT":33071}],"images":[{"mimeType":"image/png","name":"m4a1_handguard.png","uri":"m4a1_handguard.png"}],"meshes":[{"primitives":[{"mode":4,"attributes":{"POSITION":0,"NORMAL":1,"TEXCOORD_0":2,"JOINTS_0":3,"WEIGHTS_0":4},"indices":5,"material":0}]}],"skins":[{"inverseBindMatrices":6,"joints":[6,0,1,5,4,2,3],"skeleton":6}]}