{"asset":{"version":"2.0","generator":"Blockbench 5.1.4 glTF exporter"},"scenes":[{"nodes":[7],"name":"blockbench_export"}],"scene":0,"nodes":[{"translation":[0,0,1.0625],"name":"main"},{"translation":[0,0,1.0625],"name":"lower"},{"translation":[-0.125,0,0],"name":"L_MALE"},{"name":"L_SLIM"},{"translation":[0,-3,0],"name":"INNER_L","children":[2,3]},{"rotation":[0.7547849471432071,-0.04064969754462894,0.5486226543821733,0.35729605197121156],"translation":[-1.482364375,-2.3183925,1.411545625],"name":"LEFT_ARM","children":[4]},{"name":"root","children":[0,1,5]},{"name":"root","mesh":0,"children":[6],"skin":0}],"bufferViews":[{"buffer":0,"byteOffset":0,"byteLength":84480,"target":34962,"byteStride":12},{"buffer":0,"byteOffset":84480,"byteLength":84480,"target":34962,"byteStride":12},{"buffer":0,"byteOffset":168960,"byteLength":56320,"target":34962,"byteStride":8},{"buffer":0,"byteOffset":225280,"byteLength":56320,"target":34962,"byteStride":8},{"buffer":0,"byteOffset":281600,"byteLength":112640,"target":34962,"byteStride":16},{"buffer":0,"byteOffset":394240,"byteLength":14112,"target":34963},{"buffer":0,"byteOffset":408352,"byteLength":448}],"buffers":[{"byteLength":408800,"uri":"data:application/octet-stream;base64,"}],"accessors":[{"bufferView":0,"componentType":5126,"count":7040,"max":[0.3070737421512604,0.3388218879699707,1.0722962617874146],"min":[-0.3070737421512604,-0.3388218879699707,-0.8104950189590454],"type":"VEC3"},{"bufferView":1,"componentType":5126,"count":7040,"max":[1,1,1],"min":[-1,-1,-1],"type":"VEC3"},{"bufferView":2,"componentType":5126,"count":7040,"max":[0.9262090921401978,0.9634106159210205],"min":[0,0],"type":"VEC2"},{"bufferView":3,"componentType":5123,"count":7040,"max":[0,2,0,0],"min":[0,1,0,0],"type":"VEC4"},{"bufferView":4,"componentType":5126,"count":7040,"max":[0,1,0,0],"min":[0,1,0,0],"type":"VEC4"},{"bufferView":5,"componentType":5123,"count":7056,"max":[7039],"min":[0],"type":"SCALAR"},{"bufferView":6,"componentType":5126,"count":7,"max":[1,0,0.7991362810134888,0,0.33067786693573,1,0,0,0.8572322130203247,0.494760662317276,1,0,0.2667399048805237,0,0.032183870673179626,1],"min":[0.3947215676307678,-0.45340496301651,0,0,0,-0.7413742542266846,-0.583966076374054,0,0,0,-0.14270542562007904,0,0,-3.089285135269165,-1.0625,1],"type":"MAT4"}],"materials":[{"pbrMetallicRoughness":{"metallicFactor":0,"roughnessFactor":1,"baseColorTexture":{"index":0}},"alphaMode":"MASK","alphaCutoff":0.05,"doubleSided":true}],"textures":[{"sampler":0,"source":0,"name":"m4a1_handguard.png"}],"samplers":[{"magFilter":9728,"minFilter":9728,"wrapS":33071,"wrapT":33071}],"images":[{"mimeType":"image/png","name":"m4a1_handguard.png","uri":"m4a1_handguard.png"}],"meshes":[{"primitives":[{"mode":4,"attributes":{"POSITION":0,"NORMAL":1,"TEXCOORD_0":2,"JOINTS_0":3,"WEIGHTS_0":4},"indices":5,"material":0}]}],"skins":[{"inverseBindMatrices":6,"joints":[6,0,1,5,4,2,3],"skeleton":6}]}