{"asset":{"version":"2.0","generator":"Blockbench 5.2.1 glTF exporter"},"scenes":[{"nodes":[2],"name":"blockbench_export"}],"scene":0,"nodes":[{"translation":[0,0,-0.40625],"name":"MUZZLE_FLASH"},{"name":"root","children":[0]},{"name":"root","mesh":0,"children":[1],"skin":0}],"bufferViews":[{"buffer":0,"byteOffset":0,"byteLength":12672,"target":34962,"byteStride":12},{"buffer":0,"byteOffset":12672,"byteLength":12672,"target":34962,"byteStride":12},{"buffer":0,"byteOffset":25344,"byteLength":8448,"target":34962,"byteStride":8},{"buffer":0,"byteOffset":33792,"byteLength":8448,"target":34962,"byteStride":8},{"buffer":0,"byteOffset":42240,"byteLength":16896,"target":34962,"byteStride":16},{"buffer":0,"byteOffset":59136,"byteLength":2112,"target":34963},{"buffer":0,"byteOffset":61248,"byteLength":128}],"buffers":[{"byteLength":61376,"uri":"data:application/octet-stream;base64,"}],"accessors":[{"bufferView":0,"componentType":5126,"count":1056,"max":[0.12899187207221985,0.12898999452590942,0.0343099981546402],"min":[-0.12899187207221985,-0.12899437546730042,-0.4925437569618225],"type":"VEC3"},{"bufferView":1,"componentType":5126,"count":1056,"max":[1,0.9969117045402527,1],"min":[-1,-0.9260950088500977,-1],"type":"VEC3"},{"bufferView":2,"componentType":5126,"count":1056,"max":[0.7472106218338013,0.75],"min":[0,0],"type":"VEC2"},{"bufferView":3,"componentType":5123,"count":1056,"max":[0,0,0,0],"min":[0,0,0,0],"type":"VEC4"},{"bufferView":4,"componentType":5126,"count":1056,"max":[0,1,0,0],"min":[0,1,0,0],"type":"VEC4"},{"bufferView":5,"componentType":5123,"count":1056,"max":[1055],"min":[0],"type":"SCALAR"},{"bufferView":6,"componentType":5126,"count":2,"max":[1,0,0,0,0,1,0,0,0,0,1,0,0,0,0.40625,1],"min":[1,0,0,0,0,1,0,0,0,0,1,0,0,0,0,1],"type":"MAT4"}],"materials":[{"pbrMetallicRoughness":{"metallicFactor":0,"roughnessFactor":1,"baseColorTexture":{"index":0}},"alphaMode":"MASK","alphaCutoff":0.05,"doubleSided":true}],"textures":[{"sampler":0,"source":0,"name":"clutch_lok_qd_flash_hider.png"}],"samplers":[{"magFilter":9728,"minFilter":9728,"wrapS":33071,"wrapT":33071}],"images":[{"mimeType":"image/png","name":"clutch_lok_qd_flash_hider.png","uri":"clutch_lok_qd_flash_hider.png"}],"meshes":[{"primitives":[{"mode":4,"attributes":{"POSITION":0,"NORMAL":1,"TEXCOORD_0":2,"JOINTS_0":3,"WEIGHTS_0":4},"indices":5,"material":0}]}],"skins":[{"inverseBindMatrices":6,"joints":[1,0],"skeleton":1}]}