{"asset":{"version":"2.0","generator":"Blockbench 5.1.4 glTF exporter"},"scenes":[{"nodes":[1],"name":"blockbench_export"}],"scene":0,"nodes":[{"name":"root"},{"name":"root","mesh":0,"children":[0],"skin":0}],"bufferViews":[{"buffer":0,"byteOffset":0,"byteLength":59544,"target":34962,"byteStride":12},{"buffer":0,"byteOffset":59544,"byteLength":59544,"target":34962,"byteStride":12},{"buffer":0,"byteOffset":119088,"byteLength":39696,"target":34962,"byteStride":8},{"buffer":0,"byteOffset":158784,"byteLength":39696,"target":34962,"byteStride":8},{"buffer":0,"byteOffset":198480,"byteLength":79392,"target":34962,"byteStride":16},{"buffer":0,"byteOffset":277872,"byteLength":9924,"target":34963},{"buffer":0,"byteOffset":287796,"byteLength":64}],"buffers":[{"byteLength":287860,"uri":"data:application/octet-stream;base64,"}],"accessors":[{"bufferView":0,"componentType":5126,"count":4962,"max":[0.22494187951087952,0.1999293714761734,1.5750737190246582],"min":[-0.22494187951087952,-1.2562437057495117,-0.4463512599468231],"type":"VEC3"},{"bufferView":1,"componentType":5126,"count":4962,"max":[1,1,1],"min":[-1,-1,-1],"type":"VEC3"},{"bufferView":2,"componentType":5126,"count":4962,"max":[0.7109375,0.8068179488182068],"min":[0,0],"type":"VEC2"},{"bufferView":3,"componentType":5123,"count":4962,"max":[0,0,0,0],"min":[0,0,0,0],"type":"VEC4"},{"bufferView":4,"componentType":5126,"count":4962,"max":[0,1,0,0],"min":[0,1,0,0],"type":"VEC4"},{"bufferView":5,"componentType":5123,"count":4962,"max":[4961],"min":[0],"type":"SCALAR"},{"bufferView":6,"componentType":5126,"count":1,"max":[1,0,0,0,0,1,0,0,0,0,1,0,0,0,0,1],"min":[1,0,0,0,0,1,0,0,0,0,1,0,0,0,0,1],"type":"MAT4"}],"materials":[{"pbrMetallicRoughness":{"metallicFactor":0,"roughnessFactor":1,"baseColorTexture":{"index":0}},"alphaMode":"MASK","alphaCutoff":0.05,"doubleSided":true}],"textures":[{"sampler":0,"source":0,"name":"ctr_stock.png"}],"samplers":[{"magFilter":9728,"minFilter":9728,"wrapS":33071,"wrapT":33071}],"images":[{"mimeType":"image/png","name":"ctr_stock.png","uri":"ctr_stock.png"}],"meshes":[{"primitives":[{"mode":4,"attributes":{"POSITION":0,"NORMAL":1,"TEXCOORD_0":2,"JOINTS_0":3,"WEIGHTS_0":4},"indices":5,"material":0}]}],"skins":[{"inverseBindMatrices":6,"joints":[0],"skeleton":0}]}