{"asset":{"version":"2.0","generator":"Blockbench 5.1.6 glTF exporter"},"scenes":[{"nodes":[2],"name":"blockbench_export"}],"scene":0,"nodes":[{"translation":[0,0,-0.625],"name":"MUZZLE_FLASH"},{"name":"root","children":[0]},{"name":"root","mesh":0,"children":[1],"skin":0}],"bufferViews":[{"buffer":0,"byteOffset":0,"byteLength":25416,"target":34962,"byteStride":12},{"buffer":0,"byteOffset":25416,"byteLength":25416,"target":34962,"byteStride":12},{"buffer":0,"byteOffset":50832,"byteLength":16944,"target":34962,"byteStride":8},{"buffer":0,"byteOffset":67776,"byteLength":16944,"target":34962,"byteStride":8},{"buffer":0,"byteOffset":84720,"byteLength":33888,"target":34962,"byteStride":16},{"buffer":0,"byteOffset":118608,"byteLength":4236,"target":34963},{"buffer":0,"byteOffset":122844,"byteLength":128}],"buffers":[{"byteLength":122972,"uri":"data:application/octet-stream;base64,"}],"accessors":[{"bufferView":0,"componentType":5126,"count":2118,"max":[0.1599999964237213,0.13856099545955658,0.003982999827712774],"min":[-0.1599999964237213,-0.1385670006275177,-0.8460180163383484],"type":"VEC3"},{"bufferView":1,"componentType":5126,"count":2118,"max":[1,1,1],"min":[-1,-1,-1],"type":"VEC3"},{"bufferView":2,"componentType":5126,"count":2118,"max":[0.8125,0.8125],"min":[0,0],"type":"VEC2"},{"bufferView":3,"componentType":5123,"count":2118,"max":[0,0,0,0],"min":[0,0,0,0],"type":"VEC4"},{"bufferView":4,"componentType":5126,"count":2118,"max":[0,1,0,0],"min":[0,1,0,0],"type":"VEC4"},{"bufferView":5,"componentType":5123,"count":2118,"max":[2117],"min":[0],"type":"SCALAR"},{"bufferView":6,"componentType":5126,"count":2,"max":[1,0,0,0,0,1,0,0,0,0,1,0,0,0,0.625,1],"min":[1,0,0,0,0,1,0,0,0,0,1,0,0,0,0,1],"type":"MAT4"}],"materials":[{"pbrMetallicRoughness":{"metallicFactor":0,"roughnessFactor":1,"baseColorTexture":{"index":0}},"alphaMode":"MASK","alphaCutoff":0.05,"doubleSided":true}],"textures":[{"sampler":0,"source":0,"name":"heat"}],"samplers":[{"magFilter":9728,"minFilter":9728,"wrapS":33071,"wrapT":33071}],"images":[{"mimeType":"image/png","name":"heat.png","uri":"heat.png"}],"meshes":[{"primitives":[{"mode":4,"attributes":{"POSITION":0,"NORMAL":1,"TEXCOORD_0":2,"JOINTS_0":3,"WEIGHTS_0":4},"indices":5,"material":0}]}],"skins":[{"inverseBindMatrices":6,"joints":[1,0],"skeleton":1}]}