{"asset":{"version":"2.0","generator":"Blockbench 5.2.0 glTF exporter"},"scenes":[{"nodes":[6],"name":"blockbench_export"}],"scene":0,"nodes":[{"translation":[0,0.3828,1.28125],"name":"SIGHT_POSE"},{"translation":[0,0.3828,-25.25],"name":"CROSS_HAIR"},{"translation":[0,0.3953125,0.85625],"name":"REAR_LENS"},{"translation":[0,0,-0.03125],"name":"body"},{"translation":[0,0.3828,-0.25],"name":"CROSS_HAIR_Z"},{"name":"root","children":[0,1,2,3,4]},{"name":"root","mesh":0,"children":[5],"skin":0}],"bufferViews":[{"buffer":0,"byteOffset":0,"byteLength":96300,"target":34962,"byteStride":12},{"buffer":0,"byteOffset":96300,"byteLength":96300,"target":34962,"byteStride":12},{"buffer":0,"byteOffset":192600,"byteLength":64200,"target":34962,"byteStride":8},{"buffer":0,"byteOffset":256800,"byteLength":64200,"target":34962,"byteStride":8},{"buffer":0,"byteOffset":321000,"byteLength":128400,"target":34962,"byteStride":16},{"buffer":0,"byteOffset":449400,"byteLength":16208,"target":34963},{"buffer":0,"byteOffset":465608,"byteLength":384}],"buffers":[{"byteLength":465992,"uri":"data:application/octet-stream;base64,"}],"accessors":[{"bufferView":0,"componentType":5126,"count":8025,"max":[0.2683091163635254,0.7136254906654358,0.8951817750930786],"min":[-0.2879008650779724,-0.06199049949645996,-0.6354812383651733],"type":"VEC3"},{"bufferView":1,"componentType":5126,"count":8025,"max":[1,1,1],"min":[-1,-1,-1],"type":"VEC3"},{"bufferView":2,"componentType":5126,"count":8025,"max":[0.90625,0.90625],"min":[0,0],"type":"VEC2"},{"bufferView":3,"componentType":5123,"count":8025,"max":[0,4,0,0],"min":[0,3,0,0],"type":"VEC4"},{"bufferView":4,"componentType":5126,"count":8025,"max":[0,1,0,0],"min":[0,1,0,0],"type":"VEC4"},{"bufferView":5,"componentType":5123,"count":8103,"max":[8024],"min":[0],"type":"SCALAR"},{"bufferView":6,"componentType":5126,"count":6,"max":[1,0,0,0,0,1,0,0,0,0,1,0,0,0,25.25,1],"min":[1,0,0,0,0,1,0,0,0,0,1,0,0,-0.39531248807907104,-1.28125,1],"type":"MAT4"}],"materials":[{"pbrMetallicRoughness":{"metallicFactor":0,"roughnessFactor":1,"baseColorTexture":{"index":0}},"alphaMode":"MASK","alphaCutoff":0.05,"doubleSided":true}],"textures":[{"sampler":0,"source":0,"name":"texture"}],"samplers":[{"magFilter":9728,"minFilter":9728,"wrapS":33071,"wrapT":33071}],"images":[{"mimeType":"image/png","name":"elcan.png","uri":"elcan.png"}],"meshes":[{"primitives":[{"mode":4,"attributes":{"POSITION":0,"NORMAL":1,"TEXCOORD_0":2,"JOINTS_0":3,"WEIGHTS_0":4},"indices":5,"material":0}]}],"skins":[{"inverseBindMatrices":6,"joints":[5,0,1,2,3,4],"skeleton":5}]}