{"asset":{"version":"2.0","generator":"Blockbench 5.1.4 glTF exporter"},"scenes":[{"nodes":[5],"name":"blockbench_export"}],"scene":0,"nodes":[{"name":"REAR_LENS"},{"translation":[0,0.45818125,-25],"name":"CROSS_HAIR"},{"translation":[0,0.45818125,0.13125],"name":"CROSS_HAIR_Z"},{"translation":[0,0.45818125,1.09375],"name":"SIGHT_POSE"},{"name":"root","children":[0,1,2,3]},{"name":"root","mesh":0,"children":[4],"skin":0}],"bufferViews":[{"buffer":0,"byteOffset":0,"byteLength":66096,"target":34962,"byteStride":12},{"buffer":0,"byteOffset":66096,"byteLength":66096,"target":34962,"byteStride":12},{"buffer":0,"byteOffset":132192,"byteLength":44064,"target":34962,"byteStride":8},{"buffer":0,"byteOffset":176256,"byteLength":44064,"target":34962,"byteStride":8},{"buffer":0,"byteOffset":220320,"byteLength":88128,"target":34962,"byteStride":16},{"buffer":0,"byteOffset":308448,"byteLength":11016,"target":34963},{"buffer":0,"byteOffset":319464,"byteLength":320}],"buffers":[{"byteLength":319784,"uri":"data:application/octet-stream;base64,"}],"accessors":[{"bufferView":0,"componentType":5126,"count":5508,"max":[0.28781625628471375,0.6578812599182129,0.37831437587738037],"min":[-0.3075862526893616,-0.08918499946594238,-0.5898950099945068],"type":"VEC3"},{"bufferView":1,"componentType":5126,"count":5508,"max":[1,1,1],"min":[-1,-1,-1],"type":"VEC3"},{"bufferView":2,"componentType":5126,"count":5508,"max":[0.9948609471321106,0.78125],"min":[0,0],"type":"VEC2"},{"bufferView":3,"componentType":5123,"count":5508,"max":[0,1,0,0],"min":[0,0,0,0],"type":"VEC4"},{"bufferView":4,"componentType":5126,"count":5508,"max":[0,1,0,0],"min":[0,1,0,0],"type":"VEC4"},{"bufferView":5,"componentType":5123,"count":5508,"max":[5507],"min":[0],"type":"SCALAR"},{"bufferView":6,"componentType":5126,"count":5,"max":[1,0,0,0,0,1,0,0,0,0,1,0,0,0,25,1],"min":[1,0,0,0,0,1,0,0,0,0,1,0,0,-0.4581812620162964,-1.09375,1],"type":"MAT4"}],"materials":[{"pbrMetallicRoughness":{"metallicFactor":0,"roughnessFactor":1,"baseColorTexture":{"index":0}},"alphaMode":"MASK","alphaCutoff":0.05,"doubleSided":true}],"textures":[{"sampler":0,"source":0,"name":"eotech_exps3.png"}],"samplers":[{"magFilter":9728,"minFilter":9728,"wrapS":33071,"wrapT":33071}],"images":[{"mimeType":"image/png","name":"eotech_exps3.png","uri":"eotech_exps3.png"}],"meshes":[{"primitives":[{"mode":4,"attributes":{"POSITION":0,"NORMAL":1,"TEXCOORD_0":2,"JOINTS_0":3,"WEIGHTS_0":4},"indices":5,"material":0}]}],"skins":[{"inverseBindMatrices":6,"joints":[4,0,1,2,3],"skeleton":4}]}