{"asset":{"version":"2.0","generator":"Blockbench 5.1.4 glTF exporter"},"scenes":[{"nodes":[3],"name":"blockbench_export"}],"scene":0,"nodes":[{"translation":[0,0.0365,-0.0625],"name":"FOLD"},{"translation":[0,0.37114375,0.9687499999999999],"name":"SIGHT_POSE"},{"name":"root","children":[0,1]},{"name":"root","mesh":0,"children":[2],"skin":0}],"bufferViews":[{"buffer":0,"byteOffset":0,"byteLength":23760,"target":34962,"byteStride":12},{"buffer":0,"byteOffset":23760,"byteLength":23760,"target":34962,"byteStride":12},{"buffer":0,"byteOffset":47520,"byteLength":15840,"target":34962,"byteStride":8},{"buffer":0,"byteOffset":63360,"byteLength":15840,"target":34962,"byteStride":8},{"buffer":0,"byteOffset":79200,"byteLength":31680,"target":34962,"byteStride":16},{"buffer":0,"byteOffset":110880,"byteLength":3960,"target":34963},{"buffer":0,"byteOffset":114840,"byteLength":192}],"buffers":[{"byteLength":115032,"uri":"data:application/octet-stream;base64,"}],"accessors":[{"bufferView":0,"componentType":5126,"count":1980,"max":[0.3004100024700165,0.4237250089645386,0.038693126291036606],"min":[-0.18844875693321228,-0.07041812688112259,-0.27395686507225037],"type":"VEC3"},{"bufferView":1,"componentType":5126,"count":1980,"max":[1,1,1],"min":[-1,-1,-1],"type":"VEC3"},{"bufferView":2,"componentType":5126,"count":1980,"max":[0.6772603392601013,0.6875],"min":[0.000009375000445288606,0],"type":"VEC2"},{"bufferView":3,"componentType":5123,"count":1980,"max":[0,1,0,0],"min":[0,0,0,0],"type":"VEC4"},{"bufferView":4,"componentType":5126,"count":1980,"max":[0,1,0,0],"min":[0,1,0,0],"type":"VEC4"},{"bufferView":5,"componentType":5123,"count":1980,"max":[1979],"min":[0],"type":"SCALAR"},{"bufferView":6,"componentType":5126,"count":3,"max":[1,0,0,0,0,1,0,0,0,0,1,0,0,0,0.0625,1],"min":[1,0,0,0,0,1,0,0,0,0,1,0,0,-0.37114375829696655,-0.96875,1],"type":"MAT4"}],"materials":[{"pbrMetallicRoughness":{"metallicFactor":0,"roughnessFactor":1,"baseColorTexture":{"index":0}},"alphaMode":"MASK","alphaCutoff":0.05,"doubleSided":true}],"textures":[{"sampler":0,"source":0,"name":"rear.png"}],"samplers":[{"magFilter":9728,"minFilter":9728,"wrapS":33071,"wrapT":33071}],"images":[{"mimeType":"image/png","name":"rear.png","uri":"rear.png"}],"meshes":[{"primitives":[{"mode":4,"attributes":{"POSITION":0,"NORMAL":1,"TEXCOORD_0":2,"JOINTS_0":3,"WEIGHTS_0":4},"indices":5,"material":0}]}],"skins":[{"inverseBindMatrices":6,"joints":[2,0,1],"skeleton":2}]}