{"asset":{"version":"2.0","generator":"Blockbench 5.1.4 glTF exporter"},"scenes":[{"nodes":[8],"name":"blockbench_export"}],"scene":0,"nodes":[{"translation":[-0.125,0,0],"name":"L_MALE"},{"name":"L_SLIM"},{"translation":[0,-3,0],"name":"INNER_L","children":[0,1]},{"rotation":[0.836001296059313,-0.11156639928080198,0.2725032290173761,0.46302997928187034],"translation":[-1.057364375,-1.9933925,1.786545625],"name":"LEFT_ARM","children":[2]},{"translation":[0,0.0796875,0],"name":"M_LOK"},{"name":"picatinny"},{"name":"MAIN","children":[4,5]},{"name":"root","children":[3,6]},{"name":"root","mesh":0,"children":[7],"skin":0}],"bufferViews":[{"buffer":0,"byteOffset":0,"byteLength":29592,"target":34962,"byteStride":12},{"buffer":0,"byteOffset":29592,"byteLength":29592,"target":34962,"byteStride":12},{"buffer":0,"byteOffset":59184,"byteLength":19728,"target":34962,"byteStride":8},{"buffer":0,"byteOffset":78912,"byteLength":19728,"target":34962,"byteStride":8},{"buffer":0,"byteOffset":98640,"byteLength":39456,"target":34962,"byteStride":16},{"buffer":0,"byteOffset":138096,"byteLength":5100,"target":34963},{"buffer":0,"byteOffset":143196,"byteLength":512}],"buffers":[{"byteLength":143708,"uri":"data:application/octet-stream;base64,"}],"accessors":[{"bufferView":0,"componentType":5126,"count":2466,"max":[0.16782499849796295,0.13459999859333038,0.23798124492168427],"min":[-0.16782499849796295,-0.9583806395530701,-0.2367006242275238],"type":"VEC3"},{"bufferView":1,"componentType":5126,"count":2466,"max":[1,1,1],"min":[-1,-1,-1],"type":"VEC3"},{"bufferView":2,"componentType":5126,"count":2466,"max":[0.5236710906028748,0.484375],"min":[0,0],"type":"VEC2"},{"bufferView":3,"componentType":5123,"count":2466,"max":[0,7,0,0],"min":[0,6,0,0],"type":"VEC4"},{"bufferView":4,"componentType":5126,"count":2466,"max":[0,1,0,0],"min":[0,1,0,0],"type":"VEC4"},{"bufferView":5,"componentType":5123,"count":2550,"max":[2465],"min":[0],"type":"SCALAR"},{"bufferView":6,"componentType":5126,"count":8,"max":[1,0,0.3523089289665222,0,0.0658150166273117,1,0,0,0.5589432716369629,0.7133828997612,1,0,0.13162416219711304,0.17242342233657837,0,1],"min":[0.8265898823738098,-0.4388936460018158,0,0,0,-0.5463123321533203,-0.8349917531013489,0,0,0,-0.4226904511451721,0,0,-2.8275766372680664,-0.5367915630340576,1],"type":"MAT4"}],"materials":[{"pbrMetallicRoughness":{"metallicFactor":0,"roughnessFactor":1,"baseColorTexture":{"index":0}},"alphaMode":"MASK","alphaCutoff":0.05,"doubleSided":true}],"textures":[{"sampler":0,"source":0,"name":"kac_forward_grip.png"}],"samplers":[{"magFilter":9728,"minFilter":9728,"wrapS":33071,"wrapT":33071}],"images":[{"mimeType":"image/png","name":"kac_forward_grip.png","uri":"kac_forward_grip.png"}],"meshes":[{"primitives":[{"mode":4,"attributes":{"POSITION":0,"NORMAL":1,"TEXCOORD_0":2,"JOINTS_0":3,"WEIGHTS_0":4},"indices":5,"material":0}]}],"skins":[{"inverseBindMatrices":6,"joints":[7,3,2,0,1,6,4,5],"skeleton":7}]}