{"asset":{"version":"2.0","generator":"Blockbench 5.1.4 glTF exporter"},"scenes":[{"nodes":[2],"name":"blockbench_export"}],"scene":0,"nodes":[{"translation":[0,0.055175,0.0015],"name":"FOLD"},{"name":"root","children":[0]},{"name":"root","mesh":0,"children":[1],"skin":0}],"bufferViews":[{"buffer":0,"byteOffset":0,"byteLength":35568,"target":34962,"byteStride":12},{"buffer":0,"byteOffset":35568,"byteLength":35568,"target":34962,"byteStride":12},{"buffer":0,"byteOffset":71136,"byteLength":23712,"target":34962,"byteStride":8},{"buffer":0,"byteOffset":94848,"byteLength":23712,"target":34962,"byteStride":8},{"buffer":0,"byteOffset":118560,"byteLength":47424,"target":34962,"byteStride":16},{"buffer":0,"byteOffset":165984,"byteLength":5928,"target":34963},{"buffer":0,"byteOffset":171912,"byteLength":128}],"buffers":[{"byteLength":172040,"uri":"data:application/octet-stream;base64,"}],"accessors":[{"bufferView":0,"componentType":5126,"count":2964,"max":[0.1784181296825409,0.3779318630695343,0.3101762533187866],"min":[-0.1904318779706955,-0.06363687664270401,-0.20488624274730682],"type":"VEC3"},{"bufferView":1,"componentType":5126,"count":2964,"max":[1,1,1],"min":[-1,-1,-1],"type":"VEC3"},{"bufferView":2,"componentType":5126,"count":2964,"max":[0.75,0.75],"min":[0,0],"type":"VEC2"},{"bufferView":3,"componentType":5123,"count":2964,"max":[0,1,0,0],"min":[0,0,0,0],"type":"VEC4"},{"bufferView":4,"componentType":5126,"count":2964,"max":[0,1,0,0],"min":[0,1,0,0],"type":"VEC4"},{"bufferView":5,"componentType":5123,"count":2964,"max":[2963],"min":[0],"type":"SCALAR"},{"bufferView":6,"componentType":5126,"count":2,"max":[1,0,0,0,0,1,0,0,0,0,1,0,0,0,0,1],"min":[1,0,0,0,0,1,0,0,0,0,1,0,0,-0.05517499893903732,-0.001500000013038516,1],"type":"MAT4"}],"materials":[{"pbrMetallicRoughness":{"metallicFactor":0,"roughnessFactor":1,"baseColorTexture":{"index":0}},"alphaMode":"MASK","alphaCutoff":0.05,"doubleSided":true}],"textures":[{"sampler":0,"source":0,"name":"far.png"}],"samplers":[{"magFilter":9728,"minFilter":9728,"wrapS":33071,"wrapT":33071}],"images":[{"mimeType":"image/png","name":"far.png","uri":"far.png"}],"meshes":[{"primitives":[{"mode":4,"attributes":{"POSITION":0,"NORMAL":1,"TEXCOORD_0":2,"JOINTS_0":3,"WEIGHTS_0":4},"indices":5,"material":0}]}],"skins":[{"inverseBindMatrices":6,"joints":[1,0],"skeleton":1}]}