{"asset":{"version":"2.0","generator":"Blockbench 5.1.4 glTF exporter"},"scenes":[{"nodes":[4],"name":"blockbench_export"}],"scene":0,"nodes":[{"translation":[0,0,-3.5],"name":"MUZZLE"},{"translation":[0,0,-0.28125],"name":"UNDER_BARREL"},{"translation":[0,0,-3.6125],"name":"MUZZLE_FLASH"},{"name":"root","children":[0,1,2]},{"name":"root","mesh":0,"children":[3],"skin":0}],"bufferViews":[{"buffer":0,"byteOffset":0,"byteLength":50328,"target":34962,"byteStride":12},{"buffer":0,"byteOffset":50328,"byteLength":50328,"target":34962,"byteStride":12},{"buffer":0,"byteOffset":100656,"byteLength":33552,"target":34962,"byteStride":8},{"buffer":0,"byteOffset":134208,"byteLength":33552,"target":34962,"byteStride":8},{"buffer":0,"byteOffset":167760,"byteLength":67104,"target":34962,"byteStride":16},{"buffer":0,"byteOffset":234864,"byteLength":8388,"target":34963},{"buffer":0,"byteOffset":243252,"byteLength":256}],"buffers":[{"byteLength":243508,"uri":"data:application/octet-stream;base64,"}],"accessors":[{"bufferView":0,"componentType":5126,"count":4194,"max":[0.1281687468290329,0.6670650243759155,0.23865187168121338],"min":[-0.1281687468290329,-0.22229813039302826,-3.613011360168457],"type":"VEC3"},{"bufferView":1,"componentType":5126,"count":4194,"max":[1,1,1],"min":[-1,-1,-1],"type":"VEC3"},{"bufferView":2,"componentType":5126,"count":4194,"max":[0.6837398409843445,0.5540734529495239],"min":[0.00008359375351574272,0],"type":"VEC2"},{"bufferView":3,"componentType":5123,"count":4194,"max":[0,0,0,0],"min":[0,0,0,0],"type":"VEC4"},{"bufferView":4,"componentType":5126,"count":4194,"max":[0,1,0,0],"min":[0,1,0,0],"type":"VEC4"},{"bufferView":5,"componentType":5123,"count":4194,"max":[4193],"min":[0],"type":"SCALAR"},{"bufferView":6,"componentType":5126,"count":4,"max":[1,0,0,0,0,1,0,0,0,0,1,0,0,0,3.612499952316284,1],"min":[1,0,0,0,0,1,0,0,0,0,1,0,0,0,0,1],"type":"MAT4"}],"materials":[{"pbrMetallicRoughness":{"metallicFactor":0,"roughnessFactor":1,"baseColorTexture":{"index":0}},"alphaMode":"MASK","alphaCutoff":0.05,"doubleSided":true}],"textures":[{"sampler":0,"source":0,"name":"AR_barrel_14.5_with_sight.png"}],"samplers":[{"magFilter":9728,"minFilter":9728,"wrapS":33071,"wrapT":33071}],"images":[{"mimeType":"image/png","name":"AR_barrel_14.5_with_sight.png","uri":"AR_barrel_14.5_with_sight.png"}],"meshes":[{"primitives":[{"mode":4,"attributes":{"POSITION":0,"NORMAL":1,"TEXCOORD_0":2,"JOINTS_0":3,"WEIGHTS_0":4},"indices":5,"material":0}]}],"skins":[{"inverseBindMatrices":6,"joints":[3,0,1,2],"skeleton":3}]}