{"asset":{"version":"2.0","generator":"Blockbench 5.1.4 glTF exporter"},"scenes":[{"nodes":[34],"name":"blockbench_export"}],"scene":0,"nodes":[{"translation":[0,-0.9375,-0.5],"name":"MAG"},{"translation":[-0.125,0,0],"name":"L_MALE"},{"name":"L_SLIM"},{"translation":[0,-3.0000000000000004,0],"name":"INNER_L","children":[1,2]},{"rotation":[0.774339980242203,-0.10335691946161296,0.4901948870713463,0.3865538964840739],"translation":[-1.719864375,-2.5433925,0.467795625],"name":"LEFT_ARM","children":[3]},{"name":"reloading","children":[0,4]},{"translation":[-0.156493125,-0.2186475,-0.00498375],"name":"bolt_release"},{"name":"mag_release"},{"translation":[-0.112168125,-0.353255,0.564768125],"name":"safety"},{"translation":[-0.09375,0.225,0.9375],"name":"locker"},{"name":"charge","children":[9]},{"translation":[0,0,-1.08125],"name":"ammo"},{"name":"bolt"},{"translation":[0,0.8125,1.9375],"name":"SIGHT_POSE"},{"translation":[0,0.8125,1.3125],"name":"FARTHEST_SIGHT_Z"},{"translation":[0,-0.000825,-1.093875],"name":"shell"},{"name":"main","children":[6,7,8,10,11,12,13,14,15]},{"translation":[0,0,-0.9375],"name":"BARREL"},{"translation":[0,0,2],"name":"STOCK"},{"translation":[0,-0.6875,0.625],"name":"REAR_GRIP"},{"translation":[0,0.310425,-0.112625],"name":"SCOPE"},{"translation":[0.1125,0.0375,-0.375],"name":"SHELL_THROW"},{"translation":[0,0,-2],"name":"HANDGUARD"},{"translation":[0.125,0,0],"name":"R_MALE"},{"name":"R_SLIM"},{"translation":[0,-3,0],"name":"INNER_R","children":[23,24]},{"translation":[-0.25,-2.875,-0.5],"name":"ammo_reloading"},{"rotation":[0.7492563299736401,0.1084690507278678,-0.008217238129474697,0.6532854613613795],"translation":[0.625,-1.375,3],"name":"RIGHT_ARM","children":[25,26]},{"name":"body","children":[16,17,18,19,20,21,22,27]},{"translation":[0.11875,0.025,-0.1875],"name":"BULLET_SHELL"},{"name":"global","children":[5,28,29]},{"translation":[0,0,0.875],"name":"HAND_ROT_PIVOT"},{"translation":[-0.9375,0.78125,2.3125],"name":"camera"},{"name":"root","children":[30,31,32]},{"name":"root","mesh":0,"children":[33],"skin":0}],"bufferViews":[{"buffer":0,"byteOffset":0,"byteLength":283164,"target":34962,"byteStride":12},{"buffer":0,"byteOffset":283164,"byteLength":283164,"target":34962,"byteStride":12},{"buffer":0,"byteOffset":566328,"byteLength":188776,"target":34962,"byteStride":8},{"buffer":0,"byteOffset":755104,"byteLength":188776,"target":34962,"byteStride":8},{"buffer":0,"byteOffset":943880,"byteLength":377552,"target":34962,"byteStride":16},{"buffer":0,"byteOffset":1321432,"byteLength":47420,"target":34963},{"buffer":0,"byteOffset":1368852,"byteLength":2176}],"buffers":[{"byteLength":1371028,"uri":"data:application/octet-stream;base64,"}],"accessors":[{"bufferView":0,"componentType":5126,"count":23597,"max":[0.3724287450313568,0.3104231357574463,2.7914137840270996],"min":[-0.2953881323337555,-0.8338687419891357,-1.5143612623214722],"type":"VEC3"},{"bufferView":1,"componentType":5126,"count":23597,"max":[1,1,1],"min":[-1,-1,-1],"type":"VEC3"},{"bufferView":2,"componentType":5126,"count":23597,"max":[0.5569854378700256,0.6920828223228455],"min":[0,0],"type":"VEC2"},{"bufferView":3,"componentType":5123,"count":23597,"max":[0,30,0,0],"min":[0,9,0,0],"type":"VEC4"},{"bufferView":4,"componentType":5126,"count":23597,"max":[0,1,0,0],"min":[0,1,0,0],"type":"VEC4"},{"bufferView":5,"componentType":5123,"count":23709,"max":[23596],"min":[0],"type":"SCALAR"},{"bufferView":6,"componentType":5126,"count":34,"max":[1,0.17327864468097687,0.6792489290237427,0,0.2189067006111145,1,0,0,0.8390610218048096,0.977173924446106,1,0,1.1458395719528198,0.9375,2,1],"min":[0.4980526268482208,-0.5390402674674988,0,0,0,-0.6797868609428406,-0.980739176273346,0,-0.15403614938259125,0,-0.22057011723518372,0,-0.11874999850988388,-3.208815336227417,-2.3125,1],"type":"MAT4"}],"materials":[{"pbrMetallicRoughness":{"metallicFactor":0,"roughnessFactor":1,"baseColorTexture":{"index":0}},"alphaMode":"MASK","alphaCutoff":0.05,"doubleSided":true}],"textures":[{"sampler":0,"source":0,"name":"m4a1_main.png"}],"samplers":[{"magFilter":9728,"minFilter":9728,"wrapS":33071,"wrapT":33071}],"images":[{"mimeType":"image/png","name":"m4a1_main.png","uri":"m4a1_main.png"}],"meshes":[{"primitives":[{"mode":4,"attributes":{"POSITION":0,"NORMAL":1,"TEXCOORD_0":2,"JOINTS_0":3,"WEIGHTS_0":4},"indices":5,"material":0}]}],"skins":[{"inverseBindMatrices":6,"joints":[33,30,5,0,4,3,1,2,28,16,6,7,8,10,9,11,12,13,14,15,17,18,19,20,21,22,27,25,23,24,26,29,31,32],"skeleton":33}]}