{"asset":{"version":"2.0","generator":"Blockbench 5.2.1 glTF exporter"},"scenes":[{"nodes":[3],"name":"blockbench_export"}],"scene":0,"nodes":[{"translation":[0,0.0474125,0.10225],"name":"FOLD"},{"translation":[0,0.3459875,0.96875],"name":"SIGHT_POSE"},{"name":"root","children":[0,1]},{"name":"root","mesh":0,"children":[2],"skin":0}],"bufferViews":[{"buffer":0,"byteOffset":0,"byteLength":62280,"target":34962,"byteStride":12},{"buffer":0,"byteOffset":62280,"byteLength":62280,"target":34962,"byteStride":12},{"buffer":0,"byteOffset":124560,"byteLength":41520,"target":34962,"byteStride":8},{"buffer":0,"byteOffset":166080,"byteLength":41520,"target":34962,"byteStride":8},{"buffer":0,"byteOffset":207600,"byteLength":83040,"target":34962,"byteStride":16},{"buffer":0,"byteOffset":290640,"byteLength":10380,"target":34963},{"buffer":0,"byteOffset":301020,"byteLength":192}],"buffers":[{"byteLength":301212,"uri":"data:application/octet-stream;base64,"}],"accessors":[{"bufferView":0,"componentType":5126,"count":5190,"max":[0.1826418787240982,0.3990649878978729,0.16761188209056854],"min":[-0.16142624616622925,-0.060001250356435776,-0.09815499931573868],"type":"VEC3"},{"bufferView":1,"componentType":5126,"count":5190,"max":[1,1,1],"min":[-1,-1,-1],"type":"VEC3"},{"bufferView":2,"componentType":5126,"count":5190,"max":[0.90625,0.90625],"min":[0,0],"type":"VEC2"},{"bufferView":3,"componentType":5123,"count":5190,"max":[0,1,0,0],"min":[0,0,0,0],"type":"VEC4"},{"bufferView":4,"componentType":5126,"count":5190,"max":[0,1,0,0],"min":[0,1,0,0],"type":"VEC4"},{"bufferView":5,"componentType":5123,"count":5190,"max":[5189],"min":[0],"type":"SCALAR"},{"bufferView":6,"componentType":5126,"count":3,"max":[1,0,0,0,0,1,0,0,0,0,1,0,0,0,0,1],"min":[1,0,0,0,0,1,0,0,0,0,1,0,0,-0.3459874987602234,-0.96875,1],"type":"MAT4"}],"materials":[{"pbrMetallicRoughness":{"metallicFactor":0,"roughnessFactor":1,"baseColorTexture":{"index":0}},"alphaMode":"MASK","alphaCutoff":0.05,"doubleSided":true}],"textures":[{"sampler":0,"source":0,"name":"rear.png"}],"samplers":[{"magFilter":9728,"minFilter":9728,"wrapS":33071,"wrapT":33071}],"images":[{"mimeType":"image/png","name":"rear.png","uri":"rear.png"}],"meshes":[{"primitives":[{"mode":4,"attributes":{"POSITION":0,"NORMAL":1,"TEXCOORD_0":2,"JOINTS_0":3,"WEIGHTS_0":4},"indices":5,"material":0}]}],"skins":[{"inverseBindMatrices":6,"joints":[2,0,1],"skeleton":2}]}