{"asset":{"version":"2.0","generator":"Blockbench 5.1.4 glTF exporter"},"scenes":[{"nodes":[1],"name":"blockbench_export"}],"scene":0,"nodes":[{"name":"root"},{"name":"root","mesh":0,"children":[0],"skin":0}],"bufferViews":[{"buffer":0,"byteOffset":0,"byteLength":13608,"target":34962,"byteStride":12},{"buffer":0,"byteOffset":13608,"byteLength":13608,"target":34962,"byteStride":12},{"buffer":0,"byteOffset":27216,"byteLength":9072,"target":34962,"byteStride":8},{"buffer":0,"byteOffset":36288,"byteLength":9072,"target":34962,"byteStride":8},{"buffer":0,"byteOffset":45360,"byteLength":18144,"target":34962,"byteStride":16},{"buffer":0,"byteOffset":63504,"byteLength":2268,"target":34963},{"buffer":0,"byteOffset":65772,"byteLength":64}],"buffers":[{"byteLength":65836,"uri":"data:application/octet-stream;base64,"}],"accessors":[{"bufferView":0,"componentType":5126,"count":1134,"max":[0.16535000503063202,0.3687812387943268,0.6889743804931641],"min":[-0.16535000503063202,-0.8553318977355957,-0.1563050001859665],"type":"VEC3"},{"bufferView":1,"componentType":5126,"count":1134,"max":[1,1,0.9875077605247498],"min":[-1,-1,-1],"type":"VEC3"},{"bufferView":2,"componentType":5126,"count":1134,"max":[0.59375,0.640625],"min":[0,0],"type":"VEC2"},{"bufferView":3,"componentType":5123,"count":1134,"max":[0,0,0,0],"min":[0,0,0,0],"type":"VEC4"},{"bufferView":4,"componentType":5126,"count":1134,"max":[0,1,0,0],"min":[0,1,0,0],"type":"VEC4"},{"bufferView":5,"componentType":5123,"count":1134,"max":[1133],"min":[0],"type":"SCALAR"},{"bufferView":6,"componentType":5126,"count":1,"max":[1,0,0,0,0,1,0,0,0,0,1,0,0,0,0,1],"min":[1,0,0,0,0,1,0,0,0,0,1,0,0,0,0,1],"type":"MAT4"}],"materials":[{"pbrMetallicRoughness":{"metallicFactor":0,"roughnessFactor":1,"baseColorTexture":{"index":0}},"alphaMode":"MASK","alphaCutoff":0.05,"doubleSided":true}],"textures":[{"sampler":0,"source":0,"name":"moe_grip.png"}],"samplers":[{"magFilter":9728,"minFilter":9728,"wrapS":33071,"wrapT":33071}],"images":[{"mimeType":"image/png","name":"moe_grip.png","uri":"moe_grip.png"}],"meshes":[{"primitives":[{"mode":4,"attributes":{"POSITION":0,"NORMAL":1,"TEXCOORD_0":2,"JOINTS_0":3,"WEIGHTS_0":4},"indices":5,"material":0}]}],"skins":[{"inverseBindMatrices":6,"joints":[0],"skeleton":0}]}