{"asset":{"version":"2.0","generator":"Blockbench 5.1.5 glTF exporter"},"scenes":[{"nodes":[2],"name":"blockbench_export"}],"scene":0,"nodes":[{"translation":[0,0,-2.4749999999999996],"name":"MUZZLE_FLASH"},{"name":"root","children":[0]},{"name":"root","mesh":0,"children":[1],"skin":0}],"bufferViews":[{"buffer":0,"byteOffset":0,"byteLength":9216,"target":34962,"byteStride":12},{"buffer":0,"byteOffset":9216,"byteLength":9216,"target":34962,"byteStride":12},{"buffer":0,"byteOffset":18432,"byteLength":6144,"target":34962,"byteStride":8},{"buffer":0,"byteOffset":24576,"byteLength":6144,"target":34962,"byteStride":8},{"buffer":0,"byteOffset":30720,"byteLength":12288,"target":34962,"byteStride":16},{"buffer":0,"byteOffset":43008,"byteLength":1560,"target":34963},{"buffer":0,"byteOffset":44568,"byteLength":128}],"buffers":[{"byteLength":44696,"uri":"data:application/octet-stream;base64,"}],"accessors":[{"bufferView":0,"componentType":5126,"count":768,"max":[0.20546124875545502,0.20546187460422516,0.005580625031143427],"min":[-0.20546500384807587,-0.20546375215053558,-2.529843807220459],"type":"VEC3"},{"bufferView":1,"componentType":5126,"count":768,"max":[0.9238832592964172,0.9239031076431274,1],"min":[-1,-0.9239053130149841,-1],"type":"VEC3"},{"bufferView":2,"componentType":5126,"count":768,"max":[0.777385950088501,0.6112162470817566],"min":[0,0],"type":"VEC2"},{"bufferView":3,"componentType":5123,"count":768,"max":[0,0,0,0],"min":[0,0,0,0],"type":"VEC4"},{"bufferView":4,"componentType":5126,"count":768,"max":[0,1,0,0],"min":[0,1,0,0],"type":"VEC4"},{"bufferView":5,"componentType":5123,"count":780,"max":[767],"min":[0],"type":"SCALAR"},{"bufferView":6,"componentType":5126,"count":2,"max":[1,0,0,0,0,1,0,0,0,0,1,0,0,0,2.4749999046325684,1],"min":[1,0,0,0,0,1,0,0,0,0,1,0,0,0,0,1],"type":"MAT4"}],"materials":[{"pbrMetallicRoughness":{"metallicFactor":0,"roughnessFactor":1,"baseColorTexture":{"index":0}},"alphaMode":"MASK","alphaCutoff":0.05,"doubleSided":true}],"textures":[{"sampler":0,"source":0,"name":"pbs4.png"}],"samplers":[{"magFilter":9728,"minFilter":9728,"wrapS":33071,"wrapT":33071}],"images":[{"mimeType":"image/png","name":"pbs4.png","uri":"pbs4.png"}],"meshes":[{"primitives":[{"mode":4,"attributes":{"POSITION":0,"NORMAL":1,"TEXCOORD_0":2,"JOINTS_0":3,"WEIGHTS_0":4},"indices":5,"material":0}]}],"skins":[{"inverseBindMatrices":6,"joints":[1,0],"skeleton":1}]}