{"asset":{"version":"2.0","generator":"Blockbench 5.1.5 glTF exporter"},"scenes":[{"nodes":[2],"name":"blockbench_export"}],"scene":0,"nodes":[{"translation":[0,0.19379375,-0.04375],"name":"SCOPE"},{"name":"root","children":[0]},{"name":"root","mesh":0,"children":[1],"skin":0}],"bufferViews":[{"buffer":0,"byteOffset":0,"byteLength":27552,"target":34962,"byteStride":12},{"buffer":0,"byteOffset":27552,"byteLength":27552,"target":34962,"byteStride":12},{"buffer":0,"byteOffset":55104,"byteLength":18368,"target":34962,"byteStride":8},{"buffer":0,"byteOffset":73472,"byteLength":18368,"target":34962,"byteStride":8},{"buffer":0,"byteOffset":91840,"byteLength":36736,"target":34962,"byteStride":16},{"buffer":0,"byteOffset":128576,"byteLength":4644,"target":34963},{"buffer":0,"byteOffset":133220,"byteLength":128}],"buffers":[{"byteLength":133348,"uri":"data:application/octet-stream;base64,"}],"accessors":[{"bufferView":0,"componentType":5126,"count":2296,"max":[0.18120688199996948,0.19379188120365143,1.052005648612976],"min":[-0.18120688199996948,-0.2187918722629547,-1.3860256671905518],"type":"VEC3"},{"bufferView":1,"componentType":5126,"count":2296,"max":[1,1,1],"min":[-1,-1,-1],"type":"VEC3"},{"bufferView":2,"componentType":5126,"count":2296,"max":[0.9797437787055969,0.9375],"min":[0,0],"type":"VEC2"},{"bufferView":3,"componentType":5123,"count":2296,"max":[0,0,0,0],"min":[0,0,0,0],"type":"VEC4"},{"bufferView":4,"componentType":5126,"count":2296,"max":[0,1,0,0],"min":[0,1,0,0],"type":"VEC4"},{"bufferView":5,"componentType":5123,"count":2322,"max":[2295],"min":[0],"type":"SCALAR"},{"bufferView":6,"componentType":5126,"count":2,"max":[1,0,0,0,0,1,0,0,0,0,1,0,0,0,0.04374999925494194,1],"min":[1,0,0,0,0,1,0,0,0,0,1,0,0,-0.19379374384880066,0,1],"type":"MAT4"}],"materials":[{"pbrMetallicRoughness":{"metallicFactor":0,"roughnessFactor":1,"baseColorTexture":{"index":0}},"alphaMode":"MASK","alphaCutoff":0.05,"doubleSided":true}],"textures":[{"sampler":0,"source":0,"name":"pdc_dustcover.png"}],"samplers":[{"magFilter":9728,"minFilter":9728,"wrapS":33071,"wrapT":33071}],"images":[{"mimeType":"image/png","name":"pdc_dustcover.png","uri":"pdc_dustcover.png"}],"meshes":[{"primitives":[{"mode":4,"attributes":{"POSITION":0,"NORMAL":1,"TEXCOORD_0":2,"JOINTS_0":3,"WEIGHTS_0":4},"indices":5,"material":0}]}],"skins":[{"inverseBindMatrices":6,"joints":[1,0],"skeleton":1}]}