{"asset":{"version":"2.0","generator":"Blockbench 5.2.1 glTF exporter"},"scenes":[{"nodes":[6],"name":"blockbench_export"}],"scene":0,"nodes":[{"translation":[0,-0.25,0],"name":"holder"},{"translation":[0,0.9375,0],"name":"ammo1"},{"translation":[0.075,0.8875,0],"name":"ammo2"},{"translation":[0,0.8375,0],"name":"ammo3"},{"translation":[0.075,0.7875,0],"name":"ammo4"},{"name":"root","children":[0,1,2,3,4]},{"name":"root","mesh":0,"children":[5],"skin":0}],"bufferViews":[{"buffer":0,"byteOffset":0,"byteLength":92232,"target":34962,"byteStride":12},{"buffer":0,"byteOffset":92232,"byteLength":92232,"target":34962,"byteStride":12},{"buffer":0,"byteOffset":184464,"byteLength":61488,"target":34962,"byteStride":8},{"buffer":0,"byteOffset":245952,"byteLength":61488,"target":34962,"byteStride":8},{"buffer":0,"byteOffset":307440,"byteLength":122976,"target":34962,"byteStride":16},{"buffer":0,"byteOffset":430416,"byteLength":15372,"target":34963},{"buffer":0,"byteOffset":445788,"byteLength":384}],"buffers":[{"byteLength":446172,"uri":"data:application/octet-stream;base64,"}],"accessors":[{"bufferView":0,"componentType":5126,"count":7686,"max":[0.16152624785900116,0.8802725076675415,0.36988312005996704],"min":[-0.16152624785900116,-1.0067675113677979,-0.5028812289237976],"type":"VEC3"},{"bufferView":1,"componentType":5126,"count":7686,"max":[1,1,1],"min":[-1,-1,-1],"type":"VEC3"},{"bufferView":2,"componentType":5126,"count":7686,"max":[0.890625,0.90625],"min":[0,0],"type":"VEC2"},{"bufferView":3,"componentType":5123,"count":7686,"max":[0,5,0,0],"min":[0,0,0,0],"type":"VEC4"},{"bufferView":4,"componentType":5126,"count":7686,"max":[0,1,0,0],"min":[0,1,0,0],"type":"VEC4"},{"bufferView":5,"componentType":5123,"count":7686,"max":[7685],"min":[0],"type":"SCALAR"},{"bufferView":6,"componentType":5126,"count":6,"max":[1,0,0,0,0,1,0,0,0,0,1,0,0,0.25,0,1],"min":[1,0,0,0,0,1,0,0,0,0,1,0,-0.07500000298023224,-0.9375,0,1],"type":"MAT4"}],"materials":[{"pbrMetallicRoughness":{"metallicFactor":0,"roughnessFactor":1,"baseColorTexture":{"index":0}},"alphaMode":"MASK","alphaCutoff":0.05,"doubleSided":true}],"textures":[{"sampler":0,"source":0,"name":"pmag_30r.png"}],"samplers":[{"magFilter":9728,"minFilter":9728,"wrapS":33071,"wrapT":33071}],"images":[{"mimeType":"image/png","name":"pmag_30r.png","uri":"pmag_30r.png"}],"meshes":[{"primitives":[{"mode":4,"attributes":{"POSITION":0,"NORMAL":1,"TEXCOORD_0":2,"JOINTS_0":3,"WEIGHTS_0":4},"indices":5,"material":0}]}],"skins":[{"inverseBindMatrices":6,"joints":[5,0,1,2,3,4],"skeleton":5}]}