{"asset":{"version":"2.0","generator":"Blockbench 5.1.4 glTF exporter"},"scenes":[{"nodes":[6],"name":"blockbench_export"}],"scene":0,"nodes":[{"translation":[0,0.9375,0],"name":"ammo1"},{"translation":[0.07500000000000001,0.8875000000000001,0],"name":"ammo2"},{"translation":[1.0408340855860843e-17,0.8375000000000002,0],"name":"ammo3"},{"translation":[0.07500000000000002,0.7875000000000002,0],"name":"ammo4"},{"translation":[0,0.8375,0],"name":"holder"},{"name":"root","children":[0,1,2,3,4]},{"name":"root","mesh":0,"children":[5],"skin":0}],"bufferViews":[{"buffer":0,"byteOffset":0,"byteLength":98820,"target":34962,"byteStride":12},{"buffer":0,"byteOffset":98820,"byteLength":98820,"target":34962,"byteStride":12},{"buffer":0,"byteOffset":197640,"byteLength":65880,"target":34962,"byteStride":8},{"buffer":0,"byteOffset":263520,"byteLength":65880,"target":34962,"byteStride":8},{"buffer":0,"byteOffset":329400,"byteLength":131760,"target":34962,"byteStride":16},{"buffer":0,"byteOffset":461160,"byteLength":16472,"target":34963},{"buffer":0,"byteOffset":477632,"byteLength":384}],"buffers":[{"byteLength":478016,"uri":"data:application/octet-stream;base64,"}],"accessors":[{"bufferView":0,"componentType":5126,"count":8235,"max":[0.13537806272506714,0.8735665082931519,0.384330153465271],"min":[-0.13537739217281342,-1.5983607769012451,-0.6328896880149841],"type":"VEC3"},{"bufferView":1,"componentType":5126,"count":8235,"max":[1,1,1],"min":[-1,-1,-1],"type":"VEC3"},{"bufferView":2,"componentType":5126,"count":8235,"max":[1,0.9591437578201294],"min":[0,0],"type":"VEC2"},{"bufferView":3,"componentType":5123,"count":8235,"max":[0,5,0,0],"min":[0,0,0,0],"type":"VEC4"},{"bufferView":4,"componentType":5126,"count":8235,"max":[0,1,0,0],"min":[0,1,0,0],"type":"VEC4"},{"bufferView":5,"componentType":5123,"count":8235,"max":[8234],"min":[0],"type":"SCALAR"},{"bufferView":6,"componentType":5126,"count":6,"max":[1,0,0,0,0,1,0,0,0,0,1,0,0,0,0,1],"min":[1,0,0,0,0,1,0,0,0,0,1,0,-0.07500000298023224,-0.9375,0,1],"type":"MAT4"}],"materials":[{"pbrMetallicRoughness":{"metallicFactor":0,"roughnessFactor":1,"baseColorTexture":{"index":0}},"alphaMode":"MASK","alphaCutoff":0.05,"doubleSided":true}],"textures":[{"sampler":0,"source":0,"name":"texture"}],"samplers":[{"magFilter":9728,"minFilter":9728,"wrapS":33071,"wrapT":33071}],"images":[{"mimeType":"image/png","name":"pmag_40r.png","uri":"pmag_40r.png"}],"meshes":[{"primitives":[{"mode":4,"attributes":{"POSITION":0,"NORMAL":1,"TEXCOORD_0":2,"JOINTS_0":3,"WEIGHTS_0":4},"indices":5,"material":0}]}],"skins":[{"inverseBindMatrices":6,"joints":[5,0,1,2,3,4],"skeleton":5}]}