{"asset":{"version":"2.0","generator":"Blockbench 5.1.6 glTF exporter"},"scenes":[{"nodes":[1],"name":"blockbench_export"}],"scene":0,"nodes":[{"name":"root"},{"name":"root","mesh":0,"children":[0],"skin":0}],"bufferViews":[{"buffer":0,"byteOffset":0,"byteLength":70344,"target":34962,"byteStride":12},{"buffer":0,"byteOffset":70344,"byteLength":70344,"target":34962,"byteStride":12},{"buffer":0,"byteOffset":140688,"byteLength":46896,"target":34962,"byteStride":8},{"buffer":0,"byteOffset":187584,"byteLength":46896,"target":34962,"byteStride":8},{"buffer":0,"byteOffset":234480,"byteLength":93792,"target":34962,"byteStride":16},{"buffer":0,"byteOffset":328272,"byteLength":11724,"target":34963},{"buffer":0,"byteOffset":339996,"byteLength":64}],"buffers":[{"byteLength":340060,"uri":"data:application/octet-stream;base64,"}],"accessors":[{"bufferView":0,"componentType":5126,"count":5862,"max":[0.17174312472343445,0.220741868019104,0.49774813652038574],"min":[-0.17174312472343445,-0.9476812481880188,-0.2934556305408478],"type":"VEC3"},{"bufferView":1,"componentType":5126,"count":5862,"max":[1,1,0.9953651428222656],"min":[-1,-0.995829701423645,-0.9995933175086975],"type":"VEC3"},{"bufferView":2,"componentType":5126,"count":5862,"max":[0.5874054431915283,0.59375],"min":[0,0],"type":"VEC2"},{"bufferView":3,"componentType":5123,"count":5862,"max":[0,0,0,0],"min":[0,0,0,0],"type":"VEC4"},{"bufferView":4,"componentType":5126,"count":5862,"max":[0,1,0,0],"min":[0,1,0,0],"type":"VEC4"},{"bufferView":5,"componentType":5123,"count":5862,"max":[5861],"min":[0],"type":"SCALAR"},{"bufferView":6,"componentType":5126,"count":1,"max":[1,0,0,0,0,1,0,0,0,0,1,0,0,0,0,1],"min":[1,0,0,0,0,1,0,0,0,0,1,0,0,0,0,1],"type":"MAT4"}],"materials":[{"pbrMetallicRoughness":{"metallicFactor":0,"roughnessFactor":1,"baseColorTexture":{"index":0}},"alphaMode":"MASK","alphaCutoff":0.05,"doubleSided":true}],"textures":[{"sampler":0,"source":0,"name":"texture"}],"samplers":[{"magFilter":9728,"minFilter":9728,"wrapS":33071,"wrapT":33071}],"images":[{"mimeType":"image/png","name":"rk9_grip.png","uri":"rk9_grip.png"}],"meshes":[{"primitives":[{"mode":4,"attributes":{"POSITION":0,"NORMAL":1,"TEXCOORD_0":2,"JOINTS_0":3,"WEIGHTS_0":4},"indices":5,"material":0}]}],"skins":[{"inverseBindMatrices":6,"joints":[0],"skeleton":0}]}