{"asset":{"version":"2.0","generator":"Blockbench 5.1.5 glTF exporter"},"scenes":[{"nodes":[10],"name":"blockbench_export"}],"scene":0,"nodes":[{"translation":[0,0.0671875,0],"name":"M_LOK"},{"name":"picatinny"},{"name":"MAIN","children":[0,1]},{"translation":[0,3.0000000000000004,0],"name":"L_MALE_PIVOT"},{"translation":[-0.125,0,0],"name":"L_MALE","children":[3]},{"translation":[0,3.0000000000000004,0],"name":"L_SLIM_PIVOT"},{"translation":[-0.08750000000000013,0,0],"name":"L_SLIM","children":[5]},{"translation":[0,-3.0000000000000004,0],"name":"INNER_L","children":[4,6]},{"rotation":[0.8698064572528382,-0.2695880065422376,-0.22886448111161165,0.34406406806779716],"translation":[-1.3140625,-2.103125,1.84375],"name":"LEFT_ARM","children":[7]},{"name":"root","children":[2,8]},{"name":"root","mesh":0,"children":[9],"skin":0}],"bufferViews":[{"buffer":0,"byteOffset":0,"byteLength":22788,"target":34962,"byteStride":12},{"buffer":0,"byteOffset":22788,"byteLength":22788,"target":34962,"byteStride":12},{"buffer":0,"byteOffset":45576,"byteLength":15192,"target":34962,"byteStride":8},{"buffer":0,"byteOffset":60768,"byteLength":15192,"target":34962,"byteStride":8},{"buffer":0,"byteOffset":75960,"byteLength":30384,"target":34962,"byteStride":16},{"buffer":0,"byteOffset":106344,"byteLength":3956,"target":34963},{"buffer":0,"byteOffset":110300,"byteLength":640}],"buffers":[{"byteLength":110940,"uri":"data:application/octet-stream;base64,"}],"accessors":[{"bufferView":0,"componentType":5126,"count":1899,"max":[0.11854562163352966,0.12835000455379486,0.20037250220775604],"min":[-0.9305662512779236,-0.8635637760162354,-0.20655624568462372],"type":"VEC3"},{"bufferView":1,"componentType":5126,"count":1899,"max":[1,1,1],"min":[-1,-1,-1],"type":"VEC3"},{"bufferView":2,"componentType":5126,"count":1899,"max":[0.875,0.875],"min":[0,0],"type":"VEC2"},{"bufferView":3,"componentType":5123,"count":1899,"max":[0,3,0,0],"min":[0,2,0,0],"type":"VEC4"},{"bufferView":4,"componentType":5126,"count":1899,"max":[0,1,0,0],"min":[0,1,0,0],"type":"VEC4"},{"bufferView":5,"componentType":5123,"count":1977,"max":[1898],"min":[0],"type":"SCALAR"},{"bufferView":6,"componentType":5126,"count":10,"max":[1,0,0,0,0,1,0,0,0,0.7219365239143372,1,0,0.18488632142543793,0,0,1],"min":[0.749886691570282,-0.3114906847476959,-0.5836467146873474,0,-0.6264668703079224,-0.6178844571113586,-0.4751400649547577,0,-0.21262452006340027,0,-0.6584819555282593,0,0,-3.039876937866211,-0.552151083946228,1],"type":"MAT4"}],"materials":[{"pbrMetallicRoughness":{"metallicFactor":0,"roughnessFactor":1,"baseColorTexture":{"index":0}},"alphaMode":"MASK","alphaCutoff":0.05,"doubleSided":true}],"textures":[{"sampler":0,"source":0,"name":"rk_2_grip.png"}],"samplers":[{"magFilter":9728,"minFilter":9728,"wrapS":33071,"wrapT":33071}],"images":[{"mimeType":"image/png","name":"rk_2_grip.png","uri":"rk_2_grip.png"}],"meshes":[{"primitives":[{"mode":4,"attributes":{"POSITION":0,"NORMAL":1,"TEXCOORD_0":2,"JOINTS_0":3,"WEIGHTS_0":4},"indices":5,"material":0}]}],"skins":[{"inverseBindMatrices":6,"joints":[9,2,0,1,8,7,4,3,6,5],"skeleton":9}]}