{"asset":{"version":"2.0","generator":"Blockbench 5.2.1 glTF exporter"},"scenes":[{"nodes":[1],"name":"blockbench_export"}],"scene":0,"nodes":[{"name":"root"},{"name":"root","mesh":0,"children":[0],"skin":0}],"bufferViews":[{"buffer":0,"byteOffset":0,"byteLength":12096,"target":34962,"byteStride":12},{"buffer":0,"byteOffset":12096,"byteLength":12096,"target":34962,"byteStride":12},{"buffer":0,"byteOffset":24192,"byteLength":8064,"target":34962,"byteStride":8},{"buffer":0,"byteOffset":32256,"byteLength":8064,"target":34962,"byteStride":8},{"buffer":0,"byteOffset":40320,"byteLength":16128,"target":34962,"byteStride":16},{"buffer":0,"byteOffset":56448,"byteLength":2016,"target":34963},{"buffer":0,"byteOffset":58464,"byteLength":64}],"buffers":[{"byteLength":58528,"uri":"data:application/octet-stream;base64,"}],"accessors":[{"bufferView":0,"componentType":5126,"count":1008,"max":[0.1487862467765808,0.35500311851501465,0.5849918723106384],"min":[-0.1487862467765808,-0.8585000038146973,-0.15008999407291412],"type":"VEC3"},{"bufferView":1,"componentType":5126,"count":1008,"max":[1,1,1],"min":[-1,-0.9577676057815552,-1],"type":"VEC3"},{"bufferView":2,"componentType":5126,"count":1008,"max":[0.9885249733924866,0.9922468662261963],"min":[0,0],"type":"VEC2"},{"bufferView":3,"componentType":5123,"count":1008,"max":[0,0,0,0],"min":[0,0,0,0],"type":"VEC4"},{"bufferView":4,"componentType":5126,"count":1008,"max":[0,1,0,0],"min":[0,1,0,0],"type":"VEC4"},{"bufferView":5,"componentType":5123,"count":1008,"max":[1007],"min":[0],"type":"SCALAR"},{"bufferView":6,"componentType":5126,"count":1,"max":[1,0,0,0,0,1,0,0,0,0,1,0,0,0,0,1],"min":[1,0,0,0,0,1,0,0,0,0,1,0,0,0,0,1],"type":"MAT4"}],"materials":[{"pbrMetallicRoughness":{"metallicFactor":0,"roughnessFactor":1,"baseColorTexture":{"index":0}},"alphaMode":"MASK","alphaCutoff":0.05,"doubleSided":true}],"textures":[{"sampler":0,"source":0,"name":"sako_arg_grip.png"}],"samplers":[{"magFilter":9728,"minFilter":9728,"wrapS":33071,"wrapT":33071}],"images":[{"mimeType":"image/png","name":"sako_arg_grip.png","uri":"sako_arg_grip.png"}],"meshes":[{"primitives":[{"mode":4,"attributes":{"POSITION":0,"NORMAL":1,"TEXCOORD_0":2,"JOINTS_0":3,"WEIGHTS_0":4},"indices":5,"material":0}]}],"skins":[{"inverseBindMatrices":6,"joints":[0],"skeleton":0}]}