{"asset":{"version":"2.0","generator":"Blockbench 5.1.5 glTF exporter"},"scenes":[{"nodes":[1],"name":"blockbench_export"}],"scene":0,"nodes":[{"name":"root"},{"name":"root","mesh":0,"children":[0],"skin":0}],"bufferViews":[{"buffer":0,"byteOffset":0,"byteLength":7416,"target":34962,"byteStride":12},{"buffer":0,"byteOffset":7416,"byteLength":7416,"target":34962,"byteStride":12},{"buffer":0,"byteOffset":14832,"byteLength":4944,"target":34962,"byteStride":8},{"buffer":0,"byteOffset":19776,"byteLength":4944,"target":34962,"byteStride":8},{"buffer":0,"byteOffset":24720,"byteLength":9888,"target":34962,"byteStride":16},{"buffer":0,"byteOffset":34608,"byteLength":1236,"target":34963},{"buffer":0,"byteOffset":35844,"byteLength":64}],"buffers":[{"byteLength":35908,"uri":"data:application/octet-stream;base64,"}],"accessors":[{"bufferView":0,"componentType":5126,"count":618,"max":[0.05000000074505806,0.05000000074505806,0.12751813232898712],"min":[-0.05000000074505806,-0.05000000074505806,-0.27068188786506653],"type":"VEC3"},{"bufferView":1,"componentType":5126,"count":618,"max":[0.9238866567611694,0.9238886833190918,1],"min":[-0.9238753914833069,-0.9238886833190918,-1],"type":"VEC3"},{"bufferView":2,"componentType":5126,"count":618,"max":[0.7472363710403442,0.6875],"min":[0.002758738351985812,0],"type":"VEC2"},{"bufferView":3,"componentType":5123,"count":618,"max":[0,0,0,0],"min":[0,0,0,0],"type":"VEC4"},{"bufferView":4,"componentType":5126,"count":618,"max":[0,1,0,0],"min":[0,1,0,0],"type":"VEC4"},{"bufferView":5,"componentType":5123,"count":618,"max":[617],"min":[0],"type":"SCALAR"},{"bufferView":6,"componentType":5126,"count":1,"max":[1,0,0,0,0,1,0,0,0,0,1,0,0,0,0,1],"min":[1,0,0,0,0,1,0,0,0,0,1,0,0,0,0,1],"type":"MAT4"}],"materials":[{"pbrMetallicRoughness":{"metallicFactor":0,"roughnessFactor":1,"baseColorTexture":{"index":0}},"alphaMode":"MASK","alphaCutoff":0.05,"doubleSided":true}],"textures":[{"sampler":0,"source":0,"name":"5_45x39"}],"samplers":[{"magFilter":9728,"minFilter":9728,"wrapS":33071,"wrapT":33071}],"images":[{"mimeType":"image/png","name":"5_45x39.png","uri":"5_45x39.png"}],"meshes":[{"primitives":[{"mode":4,"attributes":{"POSITION":0,"NORMAL":1,"TEXCOORD_0":2,"JOINTS_0":3,"WEIGHTS_0":4},"indices":5,"material":0}]}],"skins":[{"inverseBindMatrices":6,"joints":[0],"skeleton":0}]}