{"asset":{"version":"2.0","generator":"Blockbench 5.2.1 glTF exporter"},"scenes":[{"nodes":[1],"name":"blockbench_export"}],"scene":0,"nodes":[{"name":"root"},{"name":"root","mesh":0,"children":[0],"skin":0}],"bufferViews":[{"buffer":0,"byteOffset":0,"byteLength":9072,"target":34962,"byteStride":12},{"buffer":0,"byteOffset":9072,"byteLength":9072,"target":34962,"byteStride":12},{"buffer":0,"byteOffset":18144,"byteLength":6048,"target":34962,"byteStride":8},{"buffer":0,"byteOffset":24192,"byteLength":6048,"target":34962,"byteStride":8},{"buffer":0,"byteOffset":30240,"byteLength":12096,"target":34962,"byteStride":16},{"buffer":0,"byteOffset":42336,"byteLength":1512,"target":34963},{"buffer":0,"byteOffset":43848,"byteLength":64}],"buffers":[{"byteLength":43912,"uri":"data:application/octet-stream;base64,"}],"accessors":[{"bufferView":0,"componentType":5126,"count":756,"max":[0.059501249343156815,0.05950000137090683,0.12912625074386597],"min":[-0.05949937552213669,-0.05949999764561653,-0.38087376952171326],"type":"VEC3"},{"bufferView":1,"componentType":5126,"count":756,"max":[0.9238895177841187,0.9238930344581604,1],"min":[-0.9238871932029724,-0.9238930344581604,-1],"type":"VEC3"},{"bufferView":2,"componentType":5126,"count":756,"max":[0.6628650426864624,0.6875],"min":[0.0016287019243463874,0],"type":"VEC2"},{"bufferView":3,"componentType":5123,"count":756,"max":[0,0,0,0],"min":[0,0,0,0],"type":"VEC4"},{"bufferView":4,"componentType":5126,"count":756,"max":[0,1,0,0],"min":[0,1,0,0],"type":"VEC4"},{"bufferView":5,"componentType":5123,"count":756,"max":[755],"min":[0],"type":"SCALAR"},{"bufferView":6,"componentType":5126,"count":1,"max":[1,0,0,0,0,1,0,0,0,0,1,0,0,0,0,1],"min":[1,0,0,0,0,1,0,0,0,0,1,0,0,0,0,1],"type":"MAT4"}],"materials":[{"pbrMetallicRoughness":{"metallicFactor":0,"roughnessFactor":1,"baseColorTexture":{"index":0}},"alphaMode":"MASK","alphaCutoff":0.05,"doubleSided":true}],"textures":[{"sampler":0,"source":0,"name":"texture"}],"samplers":[{"magFilter":9728,"minFilter":9728,"wrapS":33071,"wrapT":33071}],"images":[{"mimeType":"image/png","name":"texture.png","uri":"texture.png"}],"meshes":[{"primitives":[{"mode":4,"attributes":{"POSITION":0,"NORMAL":1,"TEXCOORD_0":2,"JOINTS_0":3,"WEIGHTS_0":4},"indices":5,"material":0}]}],"skins":[{"inverseBindMatrices":6,"joints":[0],"skeleton":0}]}