{"asset":{"version":"2.0","generator":"Blockbench 5.0.3 glTF exporter"},"scenes":[{"nodes":[1],"name":"blockbench_export"}],"scene":0,"nodes":[{"name":"root"},{"name":"root","mesh":0,"children":[0],"skin":0}],"bufferViews":[{"buffer":0,"byteOffset":0,"byteLength":6768,"target":34962,"byteStride":12},{"buffer":0,"byteOffset":6768,"byteLength":6768,"target":34962,"byteStride":12},{"buffer":0,"byteOffset":13536,"byteLength":4512,"target":34962,"byteStride":8},{"buffer":0,"byteOffset":18048,"byteLength":4512,"target":34962,"byteStride":8},{"buffer":0,"byteOffset":22560,"byteLength":9024,"target":34962,"byteStride":16},{"buffer":0,"byteOffset":31584,"byteLength":1128,"target":34963},{"buffer":0,"byteOffset":32712,"byteLength":64}],"buffers":[{"byteLength":32776,"uri":"data:application/octet-stream;base64,"}],"accessors":[{"bufferView":0,"componentType":5126,"count":564,"max":[0.0485718734562397,0.04805374890565872,0.17085500061511993],"min":[-0.04737187549471855,-0.04789062589406967,-0.2791450023651123],"type":"VEC3"},{"bufferView":1,"componentType":5126,"count":564,"max":[0.9238995313644409,0.923885703086853,1],"min":[-0.9238907098770142,-0.9238878488540649,-1],"type":"VEC3"},{"bufferView":2,"componentType":5126,"count":564,"max":[0.6875,0.6333249807357788],"min":[0,0],"type":"VEC2"},{"bufferView":3,"componentType":5123,"count":564,"max":[0,0,0,0],"min":[0,0,0,0],"type":"VEC4"},{"bufferView":4,"componentType":5126,"count":564,"max":[0,1,0,0],"min":[0,1,0,0],"type":"VEC4"},{"bufferView":5,"componentType":5123,"count":564,"max":[563],"min":[0],"type":"SCALAR"},{"bufferView":6,"componentType":5126,"count":1,"max":[1,0,0,0,0,1,0,0,0,0,1,0,0,0,0,1],"min":[1,0,0,0,0,1,0,0,0,0,1,0,0,0,0,1],"type":"MAT4"}],"materials":[{"pbrMetallicRoughness":{"metallicFactor":0,"roughnessFactor":1,"baseColorTexture":{"index":0}},"alphaMode":"MASK","alphaCutoff":0.05,"doubleSided":true}],"textures":[{"sampler":0,"source":0,"name":"texture"}],"samplers":[{"magFilter":9728,"minFilter":9728,"wrapS":33071,"wrapT":33071}],"images":[{"mimeType":"image/png","name":"5_56x45.png","uri":"5_56x45.png"}],"meshes":[{"primitives":[{"mode":4,"attributes":{"POSITION":0,"NORMAL":1,"TEXCOORD_0":2,"JOINTS_0":3,"WEIGHTS_0":4},"indices":5,"material":0}]}],"skins":[{"inverseBindMatrices":6,"joints":[0],"skeleton":0}]}