{"asset":{"version":"2.0","generator":"Blockbench 5.2.1 glTF exporter"},"scenes":[{"nodes":[2],"name":"blockbench_export"}],"scene":0,"nodes":[{"translation":[0,0,-1.59375],"name":"MUZZLE_FLASH"},{"name":"root","children":[0]},{"name":"root","mesh":0,"children":[1],"skin":0}],"bufferViews":[{"buffer":0,"byteOffset":0,"byteLength":21456,"target":34962,"byteStride":12},{"buffer":0,"byteOffset":21456,"byteLength":21456,"target":34962,"byteStride":12},{"buffer":0,"byteOffset":42912,"byteLength":14304,"target":34962,"byteStride":8},{"buffer":0,"byteOffset":57216,"byteLength":14304,"target":34962,"byteStride":8},{"buffer":0,"byteOffset":71520,"byteLength":28608,"target":34962,"byteStride":16},{"buffer":0,"byteOffset":100128,"byteLength":3576,"target":34963},{"buffer":0,"byteOffset":103704,"byteLength":128}],"buffers":[{"byteLength":103832,"uri":"data:application/octet-stream;base64,"}],"accessors":[{"bufferView":0,"componentType":5126,"count":1788,"max":[0.20383311808109283,0.20383000373840332,0.07895812392234802],"min":[-0.20383311808109283,-0.20383499562740326,-1.5866912603378296],"type":"VEC3"},{"bufferView":1,"componentType":5126,"count":1788,"max":[0.9920135140419006,1,1],"min":[-0.9920135140419006,-1,-1],"type":"VEC3"},{"bufferView":2,"componentType":5126,"count":1788,"max":[0.8250617384910583,0.5625],"min":[0.003442187560722232,0],"type":"VEC2"},{"bufferView":3,"componentType":5123,"count":1788,"max":[0,0,0,0],"min":[0,0,0,0],"type":"VEC4"},{"bufferView":4,"componentType":5126,"count":1788,"max":[0,1,0,0],"min":[0,1,0,0],"type":"VEC4"},{"bufferView":5,"componentType":5123,"count":1788,"max":[1787],"min":[0],"type":"SCALAR"},{"bufferView":6,"componentType":5126,"count":2,"max":[1,0,0,0,0,1,0,0,0,0,1,0,0,0,1.59375,1],"min":[1,0,0,0,0,1,0,0,0,0,1,0,0,0,0,1],"type":"MAT4"}],"materials":[{"pbrMetallicRoughness":{"metallicFactor":0,"roughnessFactor":1,"baseColorTexture":{"index":0}},"alphaMode":"MASK","alphaCutoff":0.05,"doubleSided":true}],"textures":[{"sampler":0,"source":0,"name":"slx_suppressor.png"}],"samplers":[{"magFilter":9728,"minFilter":9728,"wrapS":33071,"wrapT":33071}],"images":[{"mimeType":"image/png","name":"slx_suppressor.png","uri":"slx_suppressor.png"}],"meshes":[{"primitives":[{"mode":4,"attributes":{"POSITION":0,"NORMAL":1,"TEXCOORD_0":2,"JOINTS_0":3,"WEIGHTS_0":4},"indices":5,"material":0}]}],"skins":[{"inverseBindMatrices":6,"joints":[1,0],"skeleton":1}]}