{"asset":{"version":"2.0","generator":"Blockbench 5.1.4 glTF exporter"},"scenes":[{"nodes":[3],"name":"blockbench_export"}],"scene":0,"nodes":[{"name":"MUZZLE"},{"translation":[0,0,-0.10625000000000018],"name":"MUZZLE_FLASH"},{"name":"root","children":[0,1]},{"name":"root","mesh":0,"children":[2],"skin":0}],"bufferViews":[{"buffer":0,"byteOffset":0,"byteLength":26856,"target":34962,"byteStride":12},{"buffer":0,"byteOffset":26856,"byteLength":26856,"target":34962,"byteStride":12},{"buffer":0,"byteOffset":53712,"byteLength":17904,"target":34962,"byteStride":8},{"buffer":0,"byteOffset":71616,"byteLength":17904,"target":34962,"byteStride":8},{"buffer":0,"byteOffset":89520,"byteLength":35808,"target":34962,"byteStride":16},{"buffer":0,"byteOffset":125328,"byteLength":4476,"target":34963},{"buffer":0,"byteOffset":129804,"byteLength":192}],"buffers":[{"byteLength":129996,"uri":"data:application/octet-stream;base64,"}],"accessors":[{"bufferView":0,"componentType":5126,"count":2238,"max":[0.18448400497436523,0.18448512256145477,0.03773512318730354],"min":[-0.18448400497436523,-0.21139287948608398,-1.585952877998352],"type":"VEC3"},{"bufferView":1,"componentType":5126,"count":2238,"max":[1,0.999993622303009,1],"min":[-0.9999939799308777,-0.999993622303009,-1],"type":"VEC3"},{"bufferView":2,"componentType":5126,"count":2238,"max":[0.6050281524658203,0.6106528043746948],"min":[0,0],"type":"VEC2"},{"bufferView":3,"componentType":5123,"count":2238,"max":[0,0,0,0],"min":[0,0,0,0],"type":"VEC4"},{"bufferView":4,"componentType":5126,"count":2238,"max":[0,1,0,0],"min":[0,1,0,0],"type":"VEC4"},{"bufferView":5,"componentType":5123,"count":2238,"max":[2237],"min":[0],"type":"SCALAR"},{"bufferView":6,"componentType":5126,"count":3,"max":[1,0,0,0,0,1,0,0,0,0,1,0,0,0,0.10625000298023224,1],"min":[1,0,0,0,0,1,0,0,0,0,1,0,0,0,0,1],"type":"MAT4"}],"materials":[{"pbrMetallicRoughness":{"metallicFactor":0,"roughnessFactor":1,"baseColorTexture":{"index":0}},"alphaMode":"MASK","alphaCutoff":0.05,"doubleSided":true}],"textures":[{"sampler":0,"source":0,"name":"texture"}],"samplers":[{"magFilter":9728,"minFilter":9728,"wrapS":33071,"wrapT":33071}],"images":[{"mimeType":"image/png","name":"suppressor_556.png","uri":"suppressor_556.png"}],"meshes":[{"primitives":[{"mode":4,"attributes":{"POSITION":0,"NORMAL":1,"TEXCOORD_0":2,"JOINTS_0":3,"WEIGHTS_0":4},"indices":5,"material":0}]}],"skins":[{"inverseBindMatrices":6,"joints":[2,0,1],"skeleton":2}]}