{"asset":{"version":"2.0","generator":"Blockbench 5.2.1 glTF exporter"},"scenes":[{"nodes":[11],"name":"blockbench_export"}],"scene":0,"nodes":[{"translation":[0,-0.2658,0.635759375],"name":"RAIL_GRIP"},{"translation":[0,0.44838125,0.05179375],"name":"RAIL_UPPER"},{"rotation":[0,0,-0.7071067811865475,0.7071067811865476],"translation":[-0.2307875,-0.060121875,0.2576625],"name":"RAIL_LEFT"},{"rotation":[0,0,0.7071067811865475,0.7071067811865476],"translation":[0.2307875,-0.06011875,0.2576625],"name":"RAIL_RIGHT"},{"translation":[0,2.999999999999999,0],"name":"L_MALE_PIVOT"},{"translation":[-0.125,0,0],"name":"L_MALE","children":[4]},{"translation":[0,2.999999999999999,0],"name":"L_SLIM_PIVOT"},{"name":"L_SLIM","children":[6]},{"rotation":[0.005196973697972399,0.008749241603149304,0.004393550152875906,0.9999385675894327],"translation":[0.10427813740378622,-2.872534896093514,0.023371500576249815],"name":"INNER_L","children":[5,7]},{"rotation":[0.7480076088459133,-0.05268828970867884,0.5480724486050251,0.3705740847877591],"translation":[-1.5875,-2.09375,2.575],"name":"LEFT_ARM","children":[8]},{"name":"root","children":[0,1,2,3,9]},{"name":"root","mesh":0,"children":[10],"skin":0}],"bufferViews":[{"buffer":0,"byteOffset":0,"byteLength":129492,"target":34962,"byteStride":12},{"buffer":0,"byteOffset":129492,"byteLength":129492,"target":34962,"byteStride":12},{"buffer":0,"byteOffset":258984,"byteLength":86328,"target":34962,"byteStride":8},{"buffer":0,"byteOffset":345312,"byteLength":86328,"target":34962,"byteStride":8},{"buffer":0,"byteOffset":431640,"byteLength":172656,"target":34962,"byteStride":16},{"buffer":0,"byteOffset":604296,"byteLength":21584,"target":34963},{"buffer":0,"byteOffset":625880,"byteLength":704}],"buffers":[{"byteLength":626584,"uri":"data:application/octet-stream;base64,"}],"accessors":[{"bufferView":0,"componentType":5126,"count":10791,"max":[0.23078687489032745,0.44838187098503113,1.986067533493042],"min":[-0.29162436723709106,-0.37737563252449036,-0.6806181073188782],"type":"VEC3"},{"bufferView":1,"componentType":5126,"count":10791,"max":[1,1,1],"min":[-1,-1,-1],"type":"VEC3"},{"bufferView":2,"componentType":5126,"count":10791,"max":[0.7230269312858582,0.7206375002861023],"min":[0,0],"type":"VEC2"},{"bufferView":3,"componentType":5123,"count":10791,"max":[0,0,0,0],"min":[0,0,0,0],"type":"VEC4"},{"bufferView":4,"componentType":5126,"count":10791,"max":[0,1,0,0],"min":[0,1,0,0],"type":"VEC4"},{"bufferView":5,"componentType":5123,"count":10791,"max":[10790],"min":[0],"type":"SCALAR"},{"bufferView":6,"componentType":5126,"count":11,"max":[1,1,0.7926232814788818,0,1,1,0,0,0.8653929233551025,0.49663046002388,1,0,0.06011874973773956,0.26579999923706055,0.2787748873233795,1],"min":[2.220446049250313e-16,-1,0,0,-1,-0.728986918926239,-0.6121384501457214,0,0,0,-0.12458287924528122,0,-1.0160470008850098,-3.6718597412109375,-0.6357593536376953,1],"type":"MAT4"}],"materials":[{"pbrMetallicRoughness":{"metallicFactor":0,"roughnessFactor":1,"baseColorTexture":{"index":0}},"alphaMode":"MASK","alphaCutoff":0.05,"doubleSided":true}],"textures":[{"sampler":0,"source":0,"name":"spear_lt_handguard.png"}],"samplers":[{"magFilter":9728,"minFilter":9728,"wrapS":33071,"wrapT":33071}],"images":[{"mimeType":"image/png","name":"spear_lt_handguard.png","uri":"spear_lt_handguard.png"}],"meshes":[{"primitives":[{"mode":4,"attributes":{"POSITION":0,"NORMAL":1,"TEXCOORD_0":2,"JOINTS_0":3,"WEIGHTS_0":4},"indices":5,"material":0}]}],"skins":[{"inverseBindMatrices":6,"joints":[10,0,1,2,3,9,8,5,4,7,6],"skeleton":10}]}