{"asset":{"version":"2.0","generator":"Blockbench 5.2.1 glTF exporter"},"scenes":[{"nodes":[8],"name":"blockbench_export"}],"scene":0,"nodes":[{"name":"ammo1"},{"name":"ammo2"},{"name":"ammo3"},{"name":"ammo4"},{"name":"ammo5"},{"name":"ammo6"},{"name":"holder"},{"name":"root","children":[0,1,2,3,4,5,6]},{"name":"root","mesh":0,"children":[7],"skin":0}],"bufferViews":[{"buffer":0,"byteOffset":0,"byteLength":142200,"target":34962,"byteStride":12},{"buffer":0,"byteOffset":142200,"byteLength":142200,"target":34962,"byteStride":12},{"buffer":0,"byteOffset":284400,"byteLength":94800,"target":34962,"byteStride":8},{"buffer":0,"byteOffset":379200,"byteLength":94800,"target":34962,"byteStride":8},{"buffer":0,"byteOffset":474000,"byteLength":189600,"target":34962,"byteStride":16},{"buffer":0,"byteOffset":663600,"byteLength":23700,"target":34963},{"buffer":0,"byteOffset":687300,"byteLength":512}],"buffers":[{"byteLength":687812,"uri":"data:application/octet-stream;base64,"}],"accessors":[{"bufferView":0,"componentType":5126,"count":11850,"max":[0.15431374311447144,0.924905002117157,0.4745100140571594],"min":[-0.15431374311447144,-0.786416232585907,-0.41644811630249023],"type":"VEC3"},{"bufferView":1,"componentType":5126,"count":11850,"max":[1,1,1],"min":[-1,-1,-1],"type":"VEC3"},{"bufferView":2,"componentType":5126,"count":11850,"max":[0.6078800559043884,0.5800031423568726],"min":[0,0],"type":"VEC2"},{"bufferView":3,"componentType":5123,"count":11850,"max":[0,7,0,0],"min":[0,0,0,0],"type":"VEC4"},{"bufferView":4,"componentType":5126,"count":11850,"max":[0,1,0,0],"min":[0,1,0,0],"type":"VEC4"},{"bufferView":5,"componentType":5123,"count":11850,"max":[11849],"min":[0],"type":"SCALAR"},{"bufferView":6,"componentType":5126,"count":8,"max":[1,0,0,0,0,1,0,0,0,0,1,0,0,0,0,1],"min":[1,0,0,0,0,1,0,0,0,0,1,0,0,0,0,1],"type":"MAT4"}],"materials":[{"pbrMetallicRoughness":{"metallicFactor":0,"roughnessFactor":1,"baseColorTexture":{"index":0}},"alphaMode":"MASK","alphaCutoff":0.05,"doubleSided":true}],"textures":[{"sampler":0,"source":0,"name":"spear_20r_mag.png"}],"samplers":[{"magFilter":9728,"minFilter":9728,"wrapS":33071,"wrapT":33071}],"images":[{"mimeType":"image/png","name":"spear_20r_mag.png","uri":"spear_20r_mag.png"}],"meshes":[{"primitives":[{"mode":4,"attributes":{"POSITION":0,"NORMAL":1,"TEXCOORD_0":2,"JOINTS_0":3,"WEIGHTS_0":4},"indices":5,"material":0}]}],"skins":[{"inverseBindMatrices":6,"joints":[7,0,1,2,3,4,5,6],"skeleton":7}]}