{"asset":{"version":"2.0","generator":"Blockbench 5.1.4 glTF exporter"},"scenes":[{"nodes":[6],"name":"blockbench_export"}],"scene":0,"nodes":[{"translation":[0,0.39185625,1.625],"name":"SIGHT_POSE"},{"translation":[0,0.39185625,-25],"name":"CROSS_HAIR"},{"translation":[0,0.39185625,1.1772312500000002],"name":"REAR_LENS"},{"translation":[0,0,0.21875],"name":"body"},{"translation":[0,0.39185625,-0.0625],"name":"CROSS_HAIR_Z"},{"name":"root","children":[0,1,2,3,4]},{"name":"root","mesh":0,"children":[5],"skin":0}],"bufferViews":[{"buffer":0,"byteOffset":0,"byteLength":120444,"target":34962,"byteStride":12},{"buffer":0,"byteOffset":120444,"byteLength":120444,"target":34962,"byteStride":12},{"buffer":0,"byteOffset":240888,"byteLength":80296,"target":34962,"byteStride":8},{"buffer":0,"byteOffset":321184,"byteLength":80296,"target":34962,"byteStride":8},{"buffer":0,"byteOffset":401480,"byteLength":160592,"target":34962,"byteStride":16},{"buffer":0,"byteOffset":562072,"byteLength":20528,"target":34963},{"buffer":0,"byteOffset":582600,"byteLength":384}],"buffers":[{"byteLength":582984,"uri":"data:application/octet-stream;base64,"}],"accessors":[{"bufferView":0,"componentType":5126,"count":10037,"max":[0.3238149881362915,0.7156693935394287,1.229933738708496],"min":[-0.43226125836372375,-0.07085062563419342,-1.3031187057495117],"type":"VEC3"},{"bufferView":1,"componentType":5126,"count":10037,"max":[1,1,1],"min":[-1,-1,-1],"type":"VEC3"},{"bufferView":2,"componentType":5126,"count":10037,"max":[0.9120457172393799,0.9430226683616638],"min":[0,0],"type":"VEC2"},{"bufferView":3,"componentType":5123,"count":10037,"max":[0,4,0,0],"min":[0,3,0,0],"type":"VEC4"},{"bufferView":4,"componentType":5126,"count":10037,"max":[0,1,0,0],"min":[0,1,0,0],"type":"VEC4"},{"bufferView":5,"componentType":5123,"count":10263,"max":[10036],"min":[0],"type":"SCALAR"},{"bufferView":6,"componentType":5126,"count":6,"max":[1,0,0,0,0,1,0,0,0,0,1,0,0,0,25,1],"min":[1,0,0,0,0,1,0,0,0,0,1,0,0,-0.39185625314712524,-1.625,1],"type":"MAT4"}],"materials":[{"pbrMetallicRoughness":{"metallicFactor":0,"roughnessFactor":1,"baseColorTexture":{"index":0}},"alphaMode":"MASK","alphaCutoff":0.05,"doubleSided":true}],"textures":[{"sampler":0,"source":0,"name":"vortex_razor_hd.png"}],"samplers":[{"magFilter":9728,"minFilter":9728,"wrapS":33071,"wrapT":33071}],"images":[{"mimeType":"image/png","name":"vortex_razor_hd.png","uri":"vortex_razor_hd.png"}],"meshes":[{"primitives":[{"mode":4,"attributes":{"POSITION":0,"NORMAL":1,"TEXCOORD_0":2,"JOINTS_0":3,"WEIGHTS_0":4},"indices":5,"material":0}]}],"skins":[{"inverseBindMatrices":6,"joints":[5,0,1,2,3,4],"skeleton":5}]}