{"asset":{"version":"2.0","generator":"Blockbench 5.0.2 glTF exporter"},"scenes":[{"nodes":[3],"name":"blockbench_export"}],"scene":0,"nodes":[{"translation":[0,0,-3.625],"name":"MUZZLE"},{"translation":[0,0,-3.7312499999999997],"name":"MUZZLE_FLASH"},{"name":"root","children":[0,1]},{"name":"root","mesh":0,"children":[2],"skin":0}],"bufferViews":[{"buffer":0,"byteOffset":0,"byteLength":21096,"target":34962,"byteStride":12},{"buffer":0,"byteOffset":21096,"byteLength":21096,"target":34962,"byteStride":12},{"buffer":0,"byteOffset":42192,"byteLength":14064,"target":34962,"byteStride":8},{"buffer":0,"byteOffset":56256,"byteLength":14064,"target":34962,"byteStride":8},{"buffer":0,"byteOffset":70320,"byteLength":28128,"target":34962,"byteStride":16},{"buffer":0,"byteOffset":98448,"byteLength":3516,"target":34963},{"buffer":0,"byteOffset":101964,"byteLength":192}],"buffers":[{"byteLength":102156,"uri":"data:application/octet-stream;base64,"}],"accessors":[{"bufferView":0,"componentType":5126,"count":1758,"max":[0.1281687468290329,0.21479687094688416,0.23865187168121338],"min":[-0.1281687468290329,-0.1281687468290329,-3.7340481281280518],"type":"VEC3"},{"bufferView":1,"componentType":5126,"count":1758,"max":[1,1,1],"min":[-1,-1,-1],"type":"VEC3"},{"bufferView":2,"componentType":5126,"count":1758,"max":[0.6794825196266174,0.46875],"min":[0.00020484374545048922,0],"type":"VEC2"},{"bufferView":3,"componentType":5123,"count":1758,"max":[0,0,0,0],"min":[0,0,0,0],"type":"VEC4"},{"bufferView":4,"componentType":5126,"count":1758,"max":[0,1,0,0],"min":[0,1,0,0],"type":"VEC4"},{"bufferView":5,"componentType":5123,"count":1758,"max":[1757],"min":[0],"type":"SCALAR"},{"bufferView":6,"componentType":5126,"count":3,"max":[1,0,0,0,0,1,0,0,0,0,1,0,0,0,3.731250047683716,1],"min":[1,0,0,0,0,1,0,0,0,0,1,0,0,0,0,1],"type":"MAT4"}],"materials":[{"pbrMetallicRoughness":{"metallicFactor":0,"roughnessFactor":1,"baseColorTexture":{"index":0}},"alphaMode":"MASK","alphaCutoff":0.05,"doubleSided":true}],"textures":[{"sampler":0,"source":0,"name":"urgi_barrel.png"}],"samplers":[{"magFilter":9728,"minFilter":9728,"wrapS":33071,"wrapT":33071}],"images":[{"mimeType":"image/png","name":"urgi_barrel.png","uri":"urgi_barrel.png"}],"meshes":[{"primitives":[{"mode":4,"attributes":{"POSITION":0,"NORMAL":1,"TEXCOORD_0":2,"JOINTS_0":3,"WEIGHTS_0":4},"indices":5,"material":0}]}],"skins":[{"inverseBindMatrices":6,"joints":[2,0,1],"skeleton":2}]}