{"asset":{"version":"2.0","generator":"Blockbench 5.1.4 glTF exporter"},"scenes":[{"nodes":[5],"name":"blockbench_export"}],"scene":0,"nodes":[{"translation":[0.00933,-0.0003925,0.18203625],"name":"REAR_LENS"},{"translation":[0,0.25,-25],"name":"CROSS_HAIR"},{"translation":[0,0.25,-0.125],"name":"CROSS_HAIR_Z"},{"translation":[0,0.25,1.65],"name":"SIGHT_POSE"},{"name":"root","children":[0,1,2,3]},{"name":"root","mesh":0,"children":[4],"skin":0}],"bufferViews":[{"buffer":0,"byteOffset":0,"byteLength":30132,"target":34962,"byteStride":12},{"buffer":0,"byteOffset":30132,"byteLength":30132,"target":34962,"byteStride":12},{"buffer":0,"byteOffset":60264,"byteLength":20088,"target":34962,"byteStride":8},{"buffer":0,"byteOffset":80352,"byteLength":20088,"target":34962,"byteStride":8},{"buffer":0,"byteOffset":100440,"byteLength":40176,"target":34962,"byteStride":16},{"buffer":0,"byteOffset":140616,"byteLength":5024,"target":34963},{"buffer":0,"byteOffset":145640,"byteLength":320}],"buffers":[{"byteLength":145960,"uri":"data:application/octet-stream;base64,"}],"accessors":[{"bufferView":0,"componentType":5126,"count":2511,"max":[0.19327124953269958,0.3599012494087219,0.2217743694782257],"min":[-0.18449874222278595,-0.06009874865412712,-0.24575187265872955],"type":"VEC3"},{"bufferView":1,"componentType":5126,"count":2511,"max":[1,1,1],"min":[-1,-1,-1],"type":"VEC3"},{"bufferView":2,"componentType":5126,"count":2511,"max":[1,0.71875],"min":[0,0],"type":"VEC2"},{"bufferView":3,"componentType":5123,"count":2511,"max":[0,1,0,0],"min":[0,0,0,0],"type":"VEC4"},{"bufferView":4,"componentType":5126,"count":2511,"max":[0,1,0,0],"min":[0,1,0,0],"type":"VEC4"},{"bufferView":5,"componentType":5123,"count":2511,"max":[2510],"min":[0],"type":"SCALAR"},{"bufferView":6,"componentType":5126,"count":5,"max":[1,0,0,0,0,1,0,0,0,0,1,0,0,0.0003924999909941107,25,1],"min":[1,0,0,0,0,1,0,0,0,0,1,0,-0.009329999797046185,-0.25,-1.649999976158142,1],"type":"MAT4"}],"materials":[{"pbrMetallicRoughness":{"metallicFactor":0,"roughnessFactor":1,"baseColorTexture":{"index":0}},"alphaMode":"MASK","alphaCutoff":0.05,"doubleSided":true}],"textures":[{"sampler":0,"source":0,"name":"vortex_razor_red_dot.png"}],"samplers":[{"magFilter":9728,"minFilter":9728,"wrapS":33071,"wrapT":33071}],"images":[{"mimeType":"image/png","name":"vortex_razor_red_dot.png","uri":"vortex_razor_red_dot.png"}],"meshes":[{"primitives":[{"mode":4,"attributes":{"POSITION":0,"NORMAL":1,"TEXCOORD_0":2,"JOINTS_0":3,"WEIGHTS_0":4},"indices":5,"material":0}]}],"skins":[{"inverseBindMatrices":6,"joints":[4,0,1,2,3],"skeleton":4}]}